<?xml version="1.0" encoding="UTF-8" standalone="no"?>
<!-- Created with Inkscape (http://www.inkscape.org/) -->

<svg
   version="1.1"
   id="svg2"
   xml:space="preserve"
   width="1000"
   height="500"
   viewBox="0 0 1000 500.00001"
   sodipodi:docname="2-people.svg"
   inkscape:version="1.1.2 (0a00cf5339, 2022-02-04)"
   xmlns:inkscape="http://www.inkscape.org/namespaces/inkscape"
   xmlns:sodipodi="http://sodipodi.sourceforge.net/DTD/sodipodi-0.dtd"
   xmlns="http://www.w3.org/2000/svg"
   xmlns:svg="http://www.w3.org/2000/svg"><defs
     id="defs6" /><sodipodi:namedview
     id="namedview4"
     pagecolor="#ffffff"
     bordercolor="#666666"
     borderopacity="1.0"
     inkscape:pageshadow="2"
     inkscape:pageopacity="0.0"
     inkscape:pagecheckerboard="0"
     showgrid="false"
     fit-margin-top="0"
     fit-margin-left="0"
     fit-margin-right="0"
     fit-margin-bottom="0"
     inkscape:zoom="0.32737499"
     inkscape:cx="1279.8779"
     inkscape:cy="-555.9374"
     inkscape:window-width="2560"
     inkscape:window-height="1573"
     inkscape:window-x="0"
     inkscape:window-y="-10"
     inkscape:window-maximized="1"
     inkscape:current-layer="g2212" /><g
     id="g8"
     inkscape:groupmode="layer"
     inkscape:label="ink_ext_XXXXXX"
     transform="matrix(1.3333333,0,0,-1.3333333,-2.6602669e-4,600.09855)"><g
       id="g2212"
       transform="matrix(0.7129142,0,0,0.7129142,127.39721,17.766164)"><path
         d="m 479.515,345.303 c -19.947,2.1 -40.944,0 -60.892,5.25 0,-34.988 -9.691,-67.553 -23.406,-99.112 13.782,-3.005 35.015,-7.055 46.765,-6.388 18.374,1.045 41.733,6.491 41.733,6.491 l -1.993,13.977 8.439,-12.541 c 0,0 0.022,0.012 0.027,0.015 -16.349,25.861 -15.932,61.504 -10.673,92.308"
         style="fill:#f79c0b;fill-opacity:1;fill-rule:nonzero;stroke:none;stroke-width:0.1"
         id="path14" /><path
         d="m 460.034,400.865 c -10.105,3.157 -35.619,9.033 -49.195,-6.735 -1.974,-2.292 -3.699,-4.568 -5.224,-6.831 19.399,-0.42 38.658,3.441 54.419,13.566"
         style="fill:#feb01b;fill-opacity:1;fill-rule:nonzero;stroke:none;stroke-width:0.1"
         id="path16" /><path
         d="m 465.147,399.331 c -0.274,0.016 -0.545,0.037 -0.825,0.049 0,0 -1.61,0.649 -4.288,1.485 -15.761,-10.125 -35.02,-13.986 -54.419,-13.566 -4.375,-6.49 -7.019,-12.865 -8.567,-19.146 25.437,2.831 50.355,13.295 68.099,31.178"
         style="fill:#ffb640;fill-opacity:1;fill-rule:nonzero;stroke:none;stroke-width:0.1"
         id="path18" /><path
         d="m 486.608,303.579 c -0.269,13.911 7.344,35.434 10.493,46.72 3.127,11.207 7.083,46.736 -31.954,49.032 -17.744,-17.883 -42.662,-28.347 -68.099,-31.178 -2.609,-10.588 -2.106,-20.908 -1.523,-31.066 1.05,-18.285 -13.473,-82.59 -13.473,-82.59 0,0 5.401,-1.362 13.165,-3.056 13.715,31.559 23.406,64.124 23.406,99.112 19.948,-5.25 40.945,-3.15 60.892,-5.25 -5.259,-30.804 -5.676,-66.447 10.673,-92.308 0.303,0.157 10.131,5.278 14.525,11.739 0,0 -17.837,24.934 -18.105,38.845"
         style="fill:#feb01b;fill-opacity:1;fill-rule:nonzero;stroke:none;stroke-width:0.1"
         id="path20" /><path
         d="m 472.429,193.352 c 0,0 -37.901,7.977 -53.902,0 0,0 -3.468,-9.533 -6.407,-21.548 20.072,8.758 41.722,12.929 63.426,15.251 -1.814,4.119 -3.117,6.297 -3.117,6.297"
         style="fill:#1e1d35;fill-opacity:1;fill-rule:nonzero;stroke:none;stroke-width:0.1"
         id="path22" /><path
         d="m 475.546,187.055 c -21.704,-2.322 -43.354,-6.493 -63.426,-15.251 -2.393,-9.78 -4.436,-21.2 -3.975,-30.484 1.029,-20.69 7.055,-60.58312 7.055,-60.58312 l 28.27,-0.2468 c 0,0 2.926,43.28792 1.463,53.08692 l 5.536,2.189 c 0,0 3.849,-54.47282 4.55,-55.02912 0.7,-0.5546 26.703,0 26.703,0 0,0 7.242,36.74212 4.093,66.13912 -2.028,18.926 -6.989,32.733 -10.269,40.179"
         style="fill:#2c2945;fill-opacity:1;fill-rule:nonzero;stroke:none;stroke-width:0.1"
         id="path24"
         sodipodi:nodetypes="ccccccccccc" /><path
         d="m 421.073,296.562 c -1.681,-1.655 -3.588,-2.892 -5.732,-3.359 -0.457,-0.099 -0.89,-0.209 -1.328,-0.318 1.163,-7.293 2.565,-17.324 2.248,-21.598 0,0 20.472,-10.499 25.984,-10.761 5.511,-0.263 18.111,7.874 20.472,11.023 1.433,1.911 -0.127,12.44 -1.576,20.437 -3.703,1.16 -5.614,3.27 -6.342,8.609 -10.788,-3.192 -22.331,-4.288 -33.726,-4.033"
         style="fill:#fcceb6;fill-opacity:1;fill-rule:nonzero;stroke:none;stroke-width:0.1"
         id="path26" /><path
         d="m 430.511,315.097 c 0,0 -3.087,-12.285 -9.438,-18.535 11.395,-0.255 22.938,0.841 33.726,4.033 -0.269,1.979 -0.382,4.39 -0.352,7.379 l -23.936,7.123"
         style="fill:#fcbfa4;fill-opacity:1;fill-rule:nonzero;stroke:none;stroke-width:0.1"
         id="path28" /><path
         d="m 411.799,269.704 c 0.621,9.396 -0.713,17.121 -1.907,21.875 -6.644,-2.665 -10.326,-7.465 -13.003,-17.327 -3.332,-12.282 -3.988,-32.099 -3.988,-32.099 0,0 -0.774,-25.971 15.244,-28.561 0.158,11.016 1.254,25.952 1.983,31.448 0.954,7.174 1.671,24.664 1.671,24.664"
         style="fill:#fcbfa4;fill-opacity:1;fill-rule:nonzero;stroke:none;stroke-width:0.1"
         id="path30" /><path
         d="m 480.762,241.527 c -1.945,15.062 -11.22,27.136 -12.532,31.335 -0.863,2.763 -2.732,12.23 -3.908,18.382 -1.181,0.213 -2.24,0.447 -3.181,0.742 1.449,-7.997 3.009,-18.526 1.576,-20.437 -2.361,-3.149 -14.961,-11.286 -20.472,-11.023 -5.512,0.262 -25.984,10.761 -25.984,10.761 0.317,4.274 -1.085,14.305 -2.248,21.598 -1.488,-0.372 -2.86,-0.8 -4.121,-1.306 1.194,-4.754 2.528,-12.479 1.907,-21.875 0,0 -0.717,-17.49 -1.671,-24.664 -0.729,-5.496 -1.825,-20.432 -1.983,-31.448 0.082,-0.015 0.158,-0.035 0.242,-0.049 0,0 3.743,-18.074 10.14,-20.191 0,0 28.705,2.869 37.366,1.819 8.662,-1.05 15.224,-3.115 16.536,-1.819 1.313,1.294 3.971,7.001 6.824,20.191 2.19,10.123 2.1,11.024 2.1,11.024 0,0 0.116,-0.128 0.319,-0.346 0.164,5.433 -0.062,10.756 -0.91,17.306"
         style="fill:#64ad99;fill-opacity:1;fill-rule:nonzero;stroke:none;stroke-width:0.1"
         id="path32" /><path
         d="m 466.392,290.907 c -0.731,0.11 -1.417,0.22 -2.07,0.337 1.176,-6.152 3.045,-15.619 3.908,-18.382 1.312,-4.199 10.587,-16.273 12.532,-31.335 0.848,-6.55 1.074,-11.873 0.91,-17.306 1.014,-1.092 4.461,-4.694 9.489,-8.848 -4.402,26.491 -12.027,51.227 -22.867,75.211 -0.603,0.117 -1.233,0.223 -1.902,0.323"
         style="fill:#fcbfa4;fill-opacity:1;fill-rule:nonzero;stroke:none;stroke-width:0.1"
         id="path34" /><path
         d="m 515.999,228.504 c 0,0 -16.274,18.374 -27.035,38.583 -9.977,18.74 -12.964,22.021 -20.67,23.497 10.84,-23.984 18.465,-48.72 22.867,-75.211 6.33,-5.231 15.169,-11.339 24.838,-14.428 v 27.559"
         style="fill:#fcceb6;fill-opacity:1;fill-rule:nonzero;stroke:none;stroke-width:0.1"
         id="path36" /><path
         d="m 420.985,360.658 c 0,0 -15.748,8.268 -18.241,-5.381 -2.494,-13.648 5.773,-14.392 11.81,-13.823 0,0 1.969,-22.922 25.723,-31.321 23.753,-8.4 45.144,9.186 47.768,21.391 2.625,12.205 2.757,16.929 2.757,16.929 0,0 -14.567,21.26 -18.11,33.203 0,0 -35.828,-22.31 -51.707,-20.998"
         style="fill:#fcceb6;fill-opacity:1;fill-rule:nonzero;stroke:none;stroke-width:0.1"
         id="path38" /><path
         d="m 407.441,356.785 c 3.237,1.734 5.888,1.743 8.492,-0.993 2.389,-2.51 1.026,-7.446 -0.235,-10.246 -0.28,-0.621 0.533,-1.421 1.026,-0.792 2.484,3.167 2.871,8.932 0.236,12.065 -2.539,3.019 -7.207,3.718 -9.982,0.565 -0.285,-0.324 0.072,-0.809 0.463,-0.599 v 0"
         style="fill:#000000;fill-opacity:1;fill-rule:nonzero;stroke:none;stroke-width:0.1"
         id="path40" /><path
         d="m 411.974,351.884 c 1.961,-0.059 3.829,-0.718 4.671,-2.632 0.328,-0.745 1.341,-0.173 1.224,0.516 -0.397,2.332 -4.091,3.655 -6.062,2.732 -0.314,-0.147 -0.139,-0.606 0.167,-0.616 v 0"
         style="fill:#000000;fill-opacity:1;fill-rule:nonzero;stroke:none;stroke-width:0.1"
         id="path42" /><path
         d="m 451.143,333.596 c -0.462,-1.571 0.524,-3.294 1.464,-4.523 0.838,-1.096 2.334,-2.546 3.812,-2.339 0.614,0.086 0.576,0.926 0.158,1.202 -0.995,0.657 -1.924,1.187 -2.782,2.054 -1.012,1.023 -1.291,2.498 -1.939,3.699 -0.165,0.305 -0.62,0.221 -0.713,-0.093 v 0"
         style="fill:#000000;fill-opacity:1;fill-rule:nonzero;stroke:none;stroke-width:0.1"
         id="path44" /><path
         d="m 445.432,343.708 c 1.068,3.321 2.443,8.952 -1.798,10.589 -2.275,0.878 -4.642,-0.466 -6.04,-2.193 -1.252,-1.547 -2.881,-4.483 -2.743,-6.538 0.035,-0.524 0.719,-0.934 1.122,-0.465 2.151,2.496 2.114,8.248 6.812,7.609 3.486,-0.474 2.133,-6.63 1.858,-8.895 -0.058,-0.468 0.656,-0.517 0.789,-0.107 v 0"
         style="fill:#000000;fill-opacity:1;fill-rule:nonzero;stroke:none;stroke-width:0.1"
         id="path46" /><path
         d="m 473.824,337.417 c 1.131,2.265 2.86,5.995 6.015,5.479 3,-0.492 0.683,-7.035 0.463,-8.709 -0.094,-0.72 1.065,-1.005 1.365,-0.369 1.206,2.555 2.875,9.117 -0.909,10.567 -4.223,1.62 -7.144,-3.321 -7.609,-6.786 -0.048,-0.36 0.521,-0.491 0.675,-0.182 v 0"
         style="fill:#000000;fill-opacity:1;fill-rule:nonzero;stroke:none;stroke-width:0.1"
         id="path48" /><path
         d="m 461.512,335.559 c 3.257,0.862 9.045,5.597 4.059,8.247 -0.541,0.287 -1.41,0.358 -1.961,0.172 -3.741,-1.269 -2.579,3.092 -2.067,5.534 1.096,5.224 3.587,10.606 6.712,14.928 0.493,0.679 -0.637,1.551 -1.162,0.897 -4.114,-5.131 -6.885,-12.219 -7.729,-18.721 -0.128,-0.986 -0.784,-4.591 0.777,-5.07 0.96,-0.294 0.947,-0.285 1.914,0.075 1.336,0.638 2.119,-0.478 2.349,-3.348 -0.927,-0.904 -1.992,-1.566 -3.197,-1.988 -0.423,-0.185 -0.118,-0.839 0.305,-0.726 v 0"
         style="fill:#000000;fill-opacity:1;fill-rule:nonzero;stroke:none;stroke-width:0.1"
         id="path50" /><path
         d="m 436.228,356.483 c 3.77,3.543 8.99,4.327 13.88,5.114 0.732,0.118 0.475,1.146 -0.163,1.206 -4.838,0.454 -11.009,-2.239 -14.279,-5.757 -0.35,-0.376 0.188,-0.914 0.562,-0.563 v 0"
         style="fill:#000000;fill-opacity:1;fill-rule:nonzero;stroke:none;stroke-width:0.1"
         id="path52" /><path
         d="m 481.804,355.78 c 1.103,-1.548 2.352,-2.982 3.241,-4.664 1.11,-2.096 1.922,-4.344 2.943,-6.478 0.295,-0.62 1.11,-0.239 1.166,0.316 0.209,2.083 -1.528,4.454 -2.387,6.273 -0.966,2.043 -2.477,3.91 -4.43,5.086 -0.318,0.193 -0.765,-0.206 -0.533,-0.533 v 0"
         style="fill:#000000;fill-opacity:1;fill-rule:nonzero;stroke:none;stroke-width:0.1"
         id="path54" /><path
         d="m 407.337,346.441 c -2.802,-0.267 -3.945,-3.424 -4.397,-5.862 -0.503,-2.713 0.392,-5.314 2.124,-7.374 2.107,-2.507 11.907,-5.49 12.016,-0.063 0.008,0.432 -0.506,0.589 -0.8,0.332 -2.854,-2.506 -6.721,-2.037 -9.613,0.297 -3.171,2.56 -3.607,10.234 0.763,11.982 0.337,0.134 0.333,0.729 -0.093,0.688 v 0"
         style="fill:#000000;fill-opacity:1;fill-rule:nonzero;stroke:none;stroke-width:0.1"
         id="path56" /><path
         d="m 433.933,223.548 c 3.85,-1.008 8.663,0.529 12.45,1.328 6.039,1.274 11.441,3.754 17.252,5.55 1.008,0.311 0.593,1.83 -0.435,1.58 -4.656,-1.136 -9.143,-3.49 -13.816,-4.824 -4.399,-1.256 -10.759,-3.6 -15.363,-2.984 -0.376,0.05 -0.439,-0.557 -0.088,-0.65 v 0"
         style="fill:#000000;fill-opacity:1;fill-rule:nonzero;stroke:none;stroke-width:0.1"
         id="path58" /><path
         d="m 436.82,217.393 c 8.996,-0.606 18.067,-0.267 26.583,2.919 0.722,0.27 0.448,1.325 -0.32,1.162 -8.841,-1.874 -17.149,-3.346 -26.263,-3.38 -0.456,-0.002 -0.446,-0.671 0,-0.701 v 0"
         style="fill:#000000;fill-opacity:1;fill-rule:nonzero;stroke:none;stroke-width:0.1"
         id="path60" /><path
         d="m 430.171,130.488 c 7.746,-0.033 15.973,2.683 23.14,5.449 3.236,1.249 6.262,3.407 9.122,5.33 1.878,1.262 4.102,2.393 5.291,4.366 0.503,0.834 -0.708,1.462 -1.266,0.738 -1.523,-1.976 -4.244,-3.273 -6.282,-4.644 -3.347,-2.253 -6.852,-4.119 -10.67,-5.443 -6.273,-2.176 -12.904,-3.862 -19.458,-4.883 -0.53,-0.083 -0.385,-0.911 0.123,-0.913 v 0"
         style="fill:#000000;fill-opacity:1;fill-rule:nonzero;stroke:none;stroke-width:0.1"
         id="path62" /><path
         d="m 420.022,186.813 c 0.173,0 0.173,0.268 0,0.268 -0.173,0 -0.173,-0.268 0,-0.268 v 0"
         style="fill:#000000;fill-opacity:1;fill-rule:nonzero;stroke:none;stroke-width:0.1"
         id="path64" /><path
         d="m 419.847,187.585 c -0.086,-0.006 -0.173,-0.012 -0.259,-0.019 0.058,-0.426 0.116,-0.854 0.173,-1.281 7.656,2.795 17.246,2.652 25.316,3.161 9.26,0.586 17.696,0.66 26.859,-1.059 1.087,-0.204 1.542,1.342 0.461,1.67 -8.988,2.726 -18.106,1.855 -27.32,1.32 -7.906,-0.46 -18.584,-0.288 -25.818,-3.899 -0.703,-0.351 -0.182,-1.32 0.502,-1.193 0.086,0.016 0.171,0.031 0.256,0.047 0.707,0.132 0.545,1.304 -0.17,1.253 v 0"
         style="fill:#000000;fill-opacity:1;fill-rule:nonzero;stroke:none;stroke-width:0.1"
         id="path66" /><path
         d="m 445.072,195.872 c 0.193,-3.062 -0.416,-6.387 -0.399,-9.494 0.029,-4.981 0.203,-9.964 0.433,-14.939 0.406,-8.79 3.004,-17.091 3.927,-25.788 0.098,-0.928 1.433,-0.965 1.472,0 0.16,3.975 -0.816,7.702 -1.72,11.546 -1.247,5.306 -1.758,10.713 -2.029,16.146 -0.248,4.963 -0.415,9.935 -0.569,14.903 -0.074,2.412 0.561,5.555 -0.514,7.789 -0.137,0.288 -0.621,0.151 -0.601,-0.163 v 0"
         style="fill:#000000;fill-opacity:1;fill-rule:nonzero;stroke:none;stroke-width:0.1"
         id="path68" /><path
         d="m 449.02,152.721 c 5.359,0.857 3.991,8.615 3.651,12.509 -0.709,8.122 -2.339,16.304 -3.629,24.353 -0.125,0.772 -1.452,0.594 -1.37,-0.186 0.482,-4.563 1.095,-9.129 1.918,-13.644 0.746,-4.091 5.035,-19.673 -0.822,-22.12 -0.56,-0.235 -0.357,-1.009 0.252,-0.912 v 0"
         style="fill:#000000;fill-opacity:1;fill-rule:nonzero;stroke:none;stroke-width:0.1"
         id="path70" /><path
         d="m 481.519,164.725 c -1.025,-0.239 -3.192,2.025 -3.954,2.605 -2.742,2.088 -4.753,5.357 -6.45,8.302 -1.754,3.043 -3.643,5.917 -4.806,9.259 -0.683,1.96 -1.028,4.283 -2.366,5.907 -0.564,0.683 -1.534,-0.187 -1.169,-0.902 1.595,-3.125 2.224,-6.68 3.855,-9.833 1.604,-3.098 3.486,-6.47 5.694,-9.178 1.251,-1.534 6.649,-8.254 9.475,-6.823 0.38,0.193 0.109,0.752 -0.279,0.663 v 0"
         style="fill:#000000;fill-opacity:1;fill-rule:nonzero;stroke:none;stroke-width:0.1"
         id="path72" /><path
         d="m 411.376,158.398 c 10.218,4 13.695,18.943 12.312,28.612 -0.162,1.139 -1.902,0.658 -1.73,-0.477 1.398,-9.275 -1.982,-22.649 -10.881,-27.422 -0.384,-0.206 -0.117,-0.875 0.299,-0.713 v 0"
         style="fill:#000000;fill-opacity:1;fill-rule:nonzero;stroke:none;stroke-width:0.1"
         id="path74" /><path
         d="m 445.901,332.183 c -1.048,-2.6 -5.587,-3.22 -10.14,-1.385 -4.552,1.834 -7.392,5.429 -6.344,8.029 1.046,2.599 5.586,3.219 10.138,1.384 4.551,-1.834 7.393,-5.429 6.346,-8.028"
         style="fill:#fcbfa4;fill-opacity:1;fill-rule:nonzero;stroke:none;stroke-width:0.1"
         id="path76" /><path
         d="m 482.395,324.972 c 0.059,-2.802 -3.873,-5.156 -8.779,-5.258 -4.906,-0.101 -8.931,2.088 -8.99,4.89 -0.058,2.803 3.874,5.156 8.78,5.258 4.906,0.101 8.932,-2.088 8.989,-4.89"
         style="fill:#fcbfa4;fill-opacity:1;fill-rule:nonzero;stroke:none;stroke-width:0.1"
         id="path78" /><path
         d="m 274.729,396.537 c 0,0 3.735,16.484 -2.039,25.801 -5.775,9.318 -11.418,10.63 -11.418,10.63 0,0 -3.018,12.468 -17.454,16.273 -14.436,3.806 -24.41,-6.824 -35.171,-4.068 -10.761,2.756 -18.635,0.656 -15.485,-5.118 0,0 -9.056,2.231 -6.825,-4.856 0,0 -9.58,3.806 -12.861,-4.068 -3.281,-7.874 8.126,-19.643 18.557,-17.323 10.43,2.319 72.783,-21.391 72.783,-21.391 l 9.913,4.12"
         style="fill:#000000;fill-opacity:1;fill-rule:nonzero;stroke:none;stroke-width:0.1"
         id="path80" /><path
         d="m 271.64,332.413 c -1.4,-17.439 7.529,-51.265 7.529,-51.265 5.207,-2.336 16.401,-3.884 29.32,-4.909 -12.782,15.49 -23.069,33.014 -29.699,52.289 -4.519,2.385 -7.15,3.885 -7.15,3.885"
         style="fill:#6b4e45;fill-opacity:1;fill-rule:nonzero;stroke:none;stroke-width:0.1"
         id="path82" /><path
         d="m 373.478,274.262 -3.851,22.397 c -31.665,2.203 -74.157,23.071 -90.837,31.869 6.63,-19.275 16.917,-36.799 29.699,-52.289 28.341,-2.248 64.989,-1.977 64.989,-1.977"
         style="fill:#826459;fill-opacity:1;fill-rule:nonzero;stroke:none;stroke-width:0.1"
         id="path84" /><path
         d="m 116.224,272.563 -2.328,-14.662 c 0,0 31.108,2.919 53.464,6.655 9.551,16.883 16.626,35.287 18.644,54.808 -13.316,-10.228 -49.876,-37.712 -69.78,-46.801"
         style="fill:#826459;fill-opacity:1;fill-rule:nonzero;stroke:none;stroke-width:0.1"
         id="path86" /><path
         d="m 191.029,323.256 c 0,0 -1.858,-1.46 -5.025,-3.892 -2.018,-19.521 -9.093,-37.925 -18.644,-54.808 10.547,1.762 19.147,3.707 21.611,5.612 0,0 13.89,47.053 2.058,53.088"
         style="fill:#6b4e45;fill-opacity:1;fill-rule:nonzero;stroke:none;stroke-width:0.1"
         id="path88" /><path
         d="m 281.047,179.413 c -0.074,0.361 -0.147,0.716 -0.22,1.06 -46.195,-1.05 -85.916,-13.386 -85.916,-13.386 0,0 -0.267,-13.457 -0.395,-29.861 27.531,16.281 56.869,29.267 87.042,39.596 -0.172,0.904 -0.343,1.77 -0.511,2.591"
         style="fill:#1e1d35;fill-opacity:1;fill-rule:nonzero;stroke:none;stroke-width:0.1"
         id="path90" /><path
         d="m 194.516,137.226 c -0.174,-22.317 -0.091,-50.0838 1.271,-56.8408 h 48.818 c 0,0 -4.199,36.5698 -4.724,39.4568 l 7.349,1.838 2.625,-41.2948 h 44.62 c 0,0 -7.446,67.8038 -12.917,96.4368 -30.173,-10.329 -59.511,-23.315 -87.042,-39.596"
         style="fill:#2c2945;fill-opacity:1;fill-rule:nonzero;stroke:none;stroke-width:0.1"
         id="path92" /><path
         d="m 209.419,332.413 c 0,0 -12.911,-3.908 -18.39,-9.157 0,0 1.345,-37.377 -3.642,-63.177 0,0 1.575,-32.624 1.575,-42.336 0,-9.711 0.349,-41.732 5.949,-50.656 0,0 31.584,6.211 42.87,6.386 11.286,0.175 37.796,2.013 43.046,7 5.249,4.987 0.787,28.609 0,48.556 -0.788,19.948 -0.263,45.884 -0.263,45.884 0,0 -9.974,42.773 -8.924,57.5 l -16.536,4.36 -45.685,-4.36"
         style="fill:#64ad99;fill-opacity:1;fill-rule:nonzero;stroke:none;stroke-width:0.1"
         id="path94" /><path
         d="m 209.419,332.413 c 0,0 -3.397,-30.68 19.701,-31.205 23.097,-0.524 25.984,35.565 25.984,35.565 0,0 -5.656,-0.638 -8.897,7.472 -10.556,-4.464 -22.669,-9.501 -33.275,-9.692 -1.001,-0.898 -2.16,-1.641 -3.513,-2.14"
         style="fill:#826459;fill-opacity:1;fill-rule:nonzero;stroke:none;stroke-width:0.1"
         id="path96" /><path
         d="m 219.062,350.206 c 0,0 -0.347,-10.468 -6.13,-15.653 10.606,0.191 22.719,5.228 33.275,9.692 -0.972,2.43 -1.729,5.637 -2.049,9.894 l -25.096,-3.933"
         style="fill:#6b4e45;fill-opacity:1;fill-rule:nonzero;stroke:none;stroke-width:0.1"
         id="path98" /><path
         d="m 192.111,415.908 c 0,0 0.788,-21.175 0,-31.979 -0.787,-10.804 4.2,-27.34 19.948,-32.326 15.749,-4.987 44.358,1.049 53.544,23.097 0,0 15.224,-5.249 16.273,13.386 -3.149,14.173 -17.323,6.824 -17.323,6.824 0,0 -8.399,8.662 -10.498,23.36 0,0 -9.187,2.625 -28.085,0 -18.898,-2.624 -33.859,-2.362 -33.859,-2.362"
         style="fill:#826459;fill-opacity:1;fill-rule:nonzero;stroke:none;stroke-width:0.1"
         id="path100" /><path
         d="m 223.346,372.208 c 1.168,-1.048 3.713,-0.366 4.935,0.263 1.932,0.996 3.023,3.491 3.538,5.476 0.173,0.662 -0.836,1.138 -1.136,0.479 -0.65,-1.425 -1.03,-2.885 -2.086,-4.093 -1.24,-1.419 -3.221,-1.581 -4.989,-1.494 -0.316,0.016 -0.499,-0.419 -0.262,-0.631 v 0"
         style="fill:#000000;fill-opacity:1;fill-rule:nonzero;stroke:none;stroke-width:0.1"
         id="path102" /><path
         d="m 221.017,379.313 c -0.392,0.173 -0.783,0.347 -1.174,0.521 -2.627,0.825 -2.841,2.342 -0.643,4.551 0.747,-0.347 1.71,-0.929 2.571,-0.929 1.75,0 2.221,1.473 2.653,2.866 2.005,6.467 -1.133,15.853 -2.569,22.178 -0.219,0.965 -1.701,0.556 -1.48,-0.408 1.236,-5.396 2.354,-10.992 2.899,-16.501 0.308,-3.097 0.025,-7.58 -4.441,-5.544 -0.868,0.396 -1.556,0.236 -2.437,0.1 -1.686,-0.258 -1.419,-2.575 -1.102,-3.603 0.689,-2.23 3.436,-3.431 5.471,-3.828 0.341,-0.067 0.61,0.438 0.252,0.597 v 0"
         style="fill:#000000;fill-opacity:1;fill-rule:nonzero;stroke:none;stroke-width:0.1"
         id="path104" /><path
         d="m 266.582,378.564 c -1.243,2.312 -0.732,6.403 0.572,8.551 0.929,1.531 2.887,2.696 4.496,3.368 1.977,0.826 3.521,0.056 5.132,-1.061 0.718,-0.498 1.412,0.558 0.887,1.15 -3.245,3.665 -7.983,1.281 -10.907,-1.492 -2.668,-2.53 -2.91,-7.962 -0.825,-10.894 0.275,-0.388 0.877,-0.054 0.645,0.378 v 0"
         style="fill:#000000;fill-opacity:1;fill-rule:nonzero;stroke:none;stroke-width:0.1"
         id="path106" /><path
         d="m 265.617,383.196 c 0.772,3.596 5.7,2.304 7.96,1.542 0.559,-0.189 1.084,0.641 0.597,1.026 -1.735,1.372 -4.268,1.466 -6.341,0.934 -1.46,-0.375 -3.241,-1.854 -2.992,-3.502 0.06,-0.397 0.696,-0.373 0.776,0 v 0"
         style="fill:#000000;fill-opacity:1;fill-rule:nonzero;stroke:none;stroke-width:0.1"
         id="path108" /><path
         d="m 207.072,171.648 c 6.264,-0.043 12.216,-0.282 18.466,0.506 6.299,0.794 12.563,2.029 18.8,3.205 10.486,1.979 21.904,5.33 29.961,12.69 0.504,0.46 -0.17,1.355 -0.735,0.952 -9.094,-6.488 -18.673,-10.143 -29.556,-12.445 -5.524,-1.169 -11.133,-2.111 -16.712,-2.977 -6.785,-1.054 -13.44,-0.758 -20.224,-1.341 -0.374,-0.032 -0.386,-0.588 0,-0.59 v 0"
         style="fill:#000000;fill-opacity:1;fill-rule:nonzero;stroke:none;stroke-width:0.1"
         id="path110" /><path
         d="m 230.534,191.522 c 7.264,1.98 13.83,8.645 19.117,13.702 2.948,2.819 5.231,6.205 7.313,9.688 2.145,3.589 4.886,6.934 6.422,10.819 0.241,0.609 -0.702,0.952 -1.022,0.431 -1.568,-2.551 -3.482,-4.82 -5.017,-7.386 -2.398,-4.007 -4.46,-7.867 -7.616,-11.394 -5,-5.589 -12.236,-12.626 -19.4,-15.123 -0.46,-0.16 -0.278,-0.867 0.203,-0.737 v 0"
         style="fill:#000000;fill-opacity:1;fill-rule:nonzero;stroke:none;stroke-width:0.1"
         id="path112" /><path
         d="m 225.636,192.22 c 7.256,4.063 12.504,13.156 16.257,20.281 2.254,4.28 4.151,8.837 5.817,13.376 1.41,3.838 3.122,8.764 3.144,12.864 0.005,0.964 -1.389,0.93 -1.473,0 -0.788,-8.739 -5.09,-17.692 -8.848,-25.446 -3.47,-7.16 -8.591,-15.847 -15.279,-20.423 -0.398,-0.272 -0.048,-0.893 0.382,-0.652 v 0"
         style="fill:#000000;fill-opacity:1;fill-rule:nonzero;stroke:none;stroke-width:0.1"
         id="path114" /><path
         d="m 227.647,114.746 c 7.596,1.9 14.827,4.869 21.983,8.025 6.072,2.678 14.127,7.002 17.644,12.926 0.327,0.551 -0.446,1.162 -0.891,0.688 -10.162,-10.859 -25.179,-16.18 -38.941,-20.895 -0.467,-0.16 -0.281,-0.866 0.205,-0.744 v 0"
         style="fill:#000000;fill-opacity:1;fill-rule:nonzero;stroke:none;stroke-width:0.1"
         id="path116" /><path
         d="m 245.606,121.37 c 1.681,-1.176 5.62,0.639 7.394,0.933 3.889,0.643 8.045,1.231 11.434,3.37 0.499,0.314 0.176,1.225 -0.419,0.993 -2.969,-1.165 -5.867,-2.083 -8.998,-2.717 -1.552,-0.314 -3.11,-0.593 -4.66,-0.921 -1.379,-0.292 -3.01,-1.326 -4.475,-1.003 -0.408,0.09 -0.608,-0.422 -0.276,-0.655 v 0"
         style="fill:#000000;fill-opacity:1;fill-rule:nonzero;stroke:none;stroke-width:0.1"
         id="path118" /><path
         d="m 242.681,388.654 c 0,-1.666 -0.901,-3.018 -2.013,-3.018 -1.111,0 -2.011,1.352 -2.011,3.018 0,1.667 0.9,3.018 2.011,3.018 1.112,0 2.013,-1.351 2.013,-3.018"
         style="fill:#000000;fill-opacity:1;fill-rule:nonzero;stroke:none;stroke-width:0.1"
         id="path120" /><path
         d="m 207.947,388.654 c 0,-1.666 -0.901,-3.018 -2.012,-3.018 -1.112,0 -2.012,1.352 -2.012,3.018 0,1.667 0.9,3.018 2.012,3.018 1.111,0 2.012,-1.351 2.012,-3.018"
         style="fill:#000000;fill-opacity:1;fill-rule:nonzero;stroke:none;stroke-width:0.1"
         id="path122" /><path
         d="m 251.604,403.834 c 0,0 -7.523,8.926 -10.148,8.836 -2.859,-0.098 -1.575,-2.186 -1.575,-2.186 0,0 -3.85,-1.137 -2.187,-3.15 1.662,-2.012 8.399,-3.238 10.936,-4.638 2.537,-1.399 3.937,-2.099 3.937,-2.099 l -0.963,3.237"
         style="fill:#000000;fill-opacity:1;fill-rule:nonzero;stroke:none;stroke-width:0.1"
         id="path124" /><path
         d="m 197.24,403.484 c 0,0 7.524,8.927 10.149,8.837 2.858,-0.098 1.575,-2.187 1.575,-2.187 0,0 3.849,-1.137 2.187,-3.15 -1.662,-2.012 -8.4,-3.238 -10.937,-4.637 -2.537,-1.4 -3.937,-2.1 -3.937,-2.1 l 0.963,3.237"
         style="fill:#000000;fill-opacity:1;fill-rule:nonzero;stroke:none;stroke-width:0.1"
         id="path126" /><path
         d="m 281.783,380.127 c 0.133,-9.599 10.801,-12.228 10.801,-12.228 0,0 14.066,-11.07 30.343,-21.612 15.274,15.608 27.174,34.976 32.703,55.709 -22.914,-12.831 -48.228,-16.861 -73.847,-21.869"
         style="fill:#bf674f;fill-opacity:1;fill-rule:nonzero;stroke:none;stroke-width:0.1"
         id="path128" /><path
         d="m 379.515,381.524 c -4.463,22.835 -19.993,24.251 -20.735,24.761 -20.736,14.261 -60.106,5.948 -72.704,-13.868 -3.183,-5.007 -4.338,-9.045 -4.293,-12.29 25.619,5.008 50.933,9.038 73.847,21.869 -5.529,-20.733 -17.429,-40.101 -32.703,-55.709 15.73,-10.188 33.523,-19.883 42.688,-18.616 18.644,2.577 18.362,31.018 13.9,53.853"
         style="fill:#cd7659;fill-opacity:1;fill-rule:nonzero;stroke:none;stroke-width:0.1"
         id="path130" /><path
         d="m 397.555,144.153 c -0.317,0.797 -0.643,1.544 -0.98,2.229 -7.874,16.011 -9.982,14.698 -9.982,14.698 l -74.832,-10.235 c 0,0 -0.156,-11.433 -0.264,-25.047 28.315,6.318 57.488,19.012 86.058,18.355"
         style="fill:#2c8599;fill-opacity:1;fill-rule:nonzero;stroke:none;stroke-width:0.1"
         id="path132" /><path
         d="m 311.497,125.798 c -0.141,-17.649 -0.201,-40.280495 0.264,-45.120795 h 95.157 c 0,0 -2.262,45.642795 -9.363,63.475795 -28.57,0.657 -57.743,-12.037 -86.058,-18.355"
         style="fill:#3793b5;fill-opacity:1;fill-rule:nonzero;stroke:none;stroke-width:0.1"
         id="path134"
         sodipodi:nodetypes="ccccc" /><path
         d="m 324.514,296.323 c 0,0 -10.951,-1.676 -12.753,-7.713 -1.801,-6.037 -14.924,-13.386 -17.286,-20.735 -2.362,-7.349 -9.4,-43.308 -11.131,-55.118 -1.73,-11.812 0.895,-35.434 6.406,-48.032 5.512,-12.599 17.25,-22.573 22.011,-25.46 v 9.974 c 0,0 33.108,-5.774 63.291,3.675 0,0 8.4,-15.224 18.899,-23.623 0,0 20.21,30.185 23.359,46.195 3.15,16.01 0,39.51 -4.986,57.157 -4.988,17.647 -12.862,38.381 -19.16,48.356 -6.299,9.973 -27.036,13.648 -27.036,13.648 0,0 -4.723,7.6 -13.91,6.556 -9.186,-1.044 -27.704,-4.88 -27.704,-4.88"
         style="fill:#e95f33;fill-opacity:1;fill-rule:nonzero;stroke:none;stroke-width:0.1"
         id="path136" /><path
         d="m 355.579,301.591 c -10.216,-0.494 -20.356,-1.137 -30.255,-2.915 -0.628,-2.484 -1.832,-4.86 -4.077,-6.129 0,0 22.835,-5.512 38.32,3.675 0,0 -2.091,2.028 -3.988,5.369"
         style="fill:#f9b28f;fill-opacity:1;fill-rule:nonzero;stroke:none;stroke-width:0.1"
         id="path138" /><path
         d="m 352.581,313.042 -26.78,-5.673 c 0,0 0.584,-4.5 -0.477,-8.693 9.899,1.778 20.039,2.421 30.255,2.915 -1.673,2.946 -3.197,6.911 -2.998,11.451"
         style="fill:#f2a381;fill-opacity:1;fill-rule:nonzero;stroke:none;stroke-width:0.1"
         id="path140" /><path
         d="m 292.584,367.899 c 0,0 1.215,-14.039 0.059,-23.885 -1.158,-9.845 4.813,-36.077 41.166,-36.645 36.341,4.683 33.391,30.398 33.259,30.398 -0.131,-10e-4 13.394,-3.38 13.757,9.351 0.362,12.73 -13.408,9.547 -13.408,9.547 0,0 -13.168,17.858 -15.688,28.395 0,0 -36.58,-14.218 -59.145,-17.161"
         style="fill:#f9b28f;fill-opacity:1;fill-rule:nonzero;stroke:none;stroke-width:0.1"
         id="path142" /><path
         d="m 333.672,98.9711 c 10.667,-2.941 23.66,-4.2711 34.508,-1.7191 0.513,0.121 0.409,0.975 -0.126,0.9289 -11.534,-0.993 -22.781,-0.8817 -34.21,1.4132 -0.405,0.0809 -0.576,-0.5121 -0.172,-0.623 v 0"
         style="fill:#000000;fill-opacity:1;fill-rule:nonzero;stroke:none;stroke-width:0.1"
         id="path144" /><path
         d="m 349.61,81.784 c 0.248,2.4449 -0.11,4.9031 -0.213,7.35 -0.104,2.4512 0.01,4.9039 -0.25,7.348 -0.069,0.659 -0.977,0.67 -1.031,0 -0.394,-4.83 0.253,-9.9879 0.945,-14.7718 0.049,-0.3364 0.52,-0.2141 0.549,0.0738 v 0"
         style="fill:#000000;fill-opacity:1;fill-rule:nonzero;stroke:none;stroke-width:0.1"
         id="path146" /><path
         d="m 347.044,102.781 c 0.019,8.31 -0.718,16.695 -1.173,24.993 -0.338,6.175 -0.235,13.288 -1.776,19.298 -0.237,0.925 -1.665,0.532 -1.428,-0.392 0.015,-0.055 0.028,-0.11 0.042,-0.164 0.171,-0.666 1.173,-0.666 1.344,0 0.014,0.054 0.028,0.109 0.042,0.164 0.238,0.924 -1.191,1.317 -1.428,0.392 -0.489,-1.908 0.39,-4.554 0.604,-6.495 0.469,-4.234 0.701,-8.552 1.019,-12.803 0.623,-8.348 1.184,-16.667 2.078,-24.993 0.045,-0.425 0.675,-0.446 0.676,0 v 0"
         style="fill:#000000;fill-opacity:1;fill-rule:nonzero;stroke:none;stroke-width:0.1"
         id="path148" /><path
         d="m 346.636,111.326 c 5.926,1.128 7.029,4.924 6.955,10.354 -0.118,8.675 -1.811,17.975 -3.532,26.448 -0.169,0.83 -1.559,0.648 -1.484,-0.201 0.01,-0.116 0.021,-0.234 0.031,-0.35 0.083,-0.932 1.366,-0.932 1.449,0 0.01,0.116 0.021,0.234 0.03,0.35 -0.494,-0.068 -0.988,-0.134 -1.483,-0.201 0.944,-5.162 1.516,-10.432 2.366,-15.617 0.573,-3.486 1.032,-6.898 1.102,-10.429 0.093,-4.733 -1.141,-7.743 -5.643,-9.594 -0.464,-0.191 -0.299,-0.857 0.209,-0.76 v 0"
         style="fill:#000000;fill-opacity:1;fill-rule:nonzero;stroke:none;stroke-width:0.1"
         id="path150" /><path
         d="m 312.424,139.603 c 3.715,-2.085 8.611,-1.919 12.76,-2.167 6.992,-0.42 14.034,-0.357 21.035,-0.23 6.256,0.114 12.406,0.427 18.541,1.711 3.804,0.797 10.202,2.249 12.835,5.418 0.513,0.616 -0.273,1.426 -0.885,0.885 -3.549,-3.136 -9.605,-4.276 -14.12,-5.218 -5.977,-1.249 -12.205,-1.219 -18.283,-1.347 -5.1,-0.107 -10.201,-0.053 -15.299,0.061 -5.277,0.118 -11.276,-0.134 -16.338,1.47 -0.348,0.11 -0.559,-0.408 -0.246,-0.583 v 0"
         style="fill:#000000;fill-opacity:1;fill-rule:nonzero;stroke:none;stroke-width:0.1"
         id="path152" /><path
         d="m 311.813,123.236 c 2.726,0.956 5.07,5.566 6.542,7.74 3.179,4.693 6.314,11.096 7.151,16.765 0.13,0.88 -1.215,1.257 -1.344,0.371 -0.696,-4.788 -3.12,-9.478 -5.262,-13.775 -1.402,-2.812 -4.445,-8.857 -7.382,-10.402 -0.38,-0.201 -0.116,-0.843 0.295,-0.699 v 0"
         style="fill:#000000;fill-opacity:1;fill-rule:nonzero;stroke:none;stroke-width:0.1"
         id="path154" /><path
         d="m 373.707,152.303 c 1.841,-2.741 4.11,-5.131 5.905,-7.915 1.501,-2.326 2.836,-4.907 4.704,-6.97 4.617,-5.098 10.61,-9.73 16.488,-13.311 0.606,-0.369 1.329,0.528 0.769,0.996 -4.95,4.126 -10.419,7.575 -15.031,12.113 -4.713,4.636 -7.457,10.837 -12.297,15.502 -0.274,0.262 -0.761,-0.083 -0.538,-0.415 v 0"
         style="fill:#000000;fill-opacity:1;fill-rule:nonzero;stroke:none;stroke-width:0.1"
         id="path156" /><path
         d="m 310.462,151.161 c 0.862,5.575 -3.556,11.778 -5.538,16.759 -3.056,7.68 -4.407,15.972 -5.179,24.156 -1.502,15.936 0.037,31.673 1.398,47.539 0.044,0.511 -0.818,0.63 -0.897,0.121 -2.264,-14.541 -2.604,-29.424 -1.817,-44.1 0.384,-7.172 1.406,-14.282 3.178,-21.243 0.743,-2.915 1.698,-5.835 2.875,-8.604 1.953,-4.594 5.12,-9.413 5.315,-14.538 0.014,-0.364 0.604,-0.482 0.665,-0.09 v 0"
         style="fill:#000000;fill-opacity:1;fill-rule:nonzero;stroke:none;stroke-width:0.1"
         id="path158" /><path
         d="m 375.674,153.779 c 6.808,8.645 13.375,20.267 15.183,31.258 0.123,0.75 -0.954,1.085 -1.162,0.32 -2.994,-11.03 -8.155,-21.696 -14.626,-31.111 -0.247,-0.358 0.335,-0.811 0.605,-0.467 v 0"
         style="fill:#000000;fill-opacity:1;fill-rule:nonzero;stroke:none;stroke-width:0.1"
         id="path160" /><path
         d="m 389.359,190.622 c 0.088,7.747 -2.424,15.766 -4.71,23.089 -2.449,7.845 -5.41,15.715 -8.913,23.154 -0.435,0.923 -1.799,0.119 -1.367,-0.799 6.544,-13.897 13.036,-30.013 14.377,-45.444 0.033,-0.389 0.609,-0.401 0.613,0 v 0"
         style="fill:#000000;fill-opacity:1;fill-rule:nonzero;stroke:none;stroke-width:0.1"
         id="path162" /><path
         d="m 314.592,283.548 c 3.922,-1.231 7.653,-2.983 11.602,-4.125 4.086,-1.183 8.613,-1.04 12.813,-1.054 4.12,-0.014 7.93,0.798 11.871,1.955 2.761,0.81 5.849,1.455 7.954,3.51 0.466,0.457 -0.13,1.206 -0.688,0.891 -6.135,-3.469 -14.053,-4.77 -20.974,-4.772 -8.044,-0.003 -14.723,2.425 -22.392,4.271 -0.44,0.106 -0.617,-0.541 -0.186,-0.676 v 0"
         style="fill:#000000;fill-opacity:1;fill-rule:nonzero;stroke:none;stroke-width:0.1"
         id="path164" /><path
         d="m 322.096,283.631 c 0.047,-0.152 0.074,-0.261 0.178,-0.38 0.25,-0.286 0.662,-0.036 0.686,0.284 0.082,1.069 0.213,2.132 0.351,3.194 0.115,0.894 0.343,1.783 -0.028,2.625 -0.127,0.289 -0.616,0.277 -0.748,0 -0.382,-0.809 -0.254,-1.741 -0.303,-2.625 -0.06,-1.067 -0.13,-2.124 -0.075,-3.194 0.228,0.095 0.457,0.19 0.686,0.284 -0.117,0.104 -0.229,0.133 -0.379,0.181 -0.215,0.067 -0.434,-0.155 -0.368,-0.369 v 0"
         style="fill:#000000;fill-opacity:1;fill-rule:nonzero;stroke:none;stroke-width:0.1"
         id="path166" /><path
         d="m 331.567,282.532 c 0.663,0.097 0.704,1.771 0.772,2.215 0.197,1.286 0.379,2.644 0.384,3.947 0,0.188 -0.103,0.375 -0.268,0.467 -1.055,0.589 -0.846,-1.622 -0.866,-2.07 -0.036,-0.821 -0.1,-1.64 -0.158,-2.46 -0.02,-0.275 -0.002,-1.439 -0.171,-1.572 -0.279,-0.222 0.038,-0.566 0.307,-0.527 v 0"
         style="fill:#000000;fill-opacity:1;fill-rule:nonzero;stroke:none;stroke-width:0.1"
         id="path168" /><path
         d="m 339.926,282.84 c -0.056,-0.122 -0.106,-0.219 -0.114,-0.354 0.261,0.071 0.521,0.141 0.782,0.212 -0.329,0.584 -0.071,1.599 -0.04,2.238 0.063,1.334 0.104,2.689 0.09,4.024 -0.008,0.756 -1.165,0.756 -1.173,0 -0.015,-1.403 0.092,-2.807 0.089,-4.211 -10e-4,-0.78 -0.184,-1.8 0.31,-2.475 0.223,-0.307 0.809,-0.245 0.782,0.212 -0.008,0.135 -0.058,0.232 -0.114,0.354 -0.106,0.232 -0.506,0.232 -0.612,0 v 0"
         style="fill:#000000;fill-opacity:1;fill-rule:nonzero;stroke:none;stroke-width:0.1"
         id="path170" /><path
         d="m 348.815,283.535 c 0.186,2.212 -0.273,4.46 -0.543,6.65 -0.079,0.642 -1.074,0.676 -1.031,0 0.14,-2.243 0.895,-4.381 0.857,-6.65 -0.008,-0.468 0.679,-0.453 0.717,0 v 0"
         style="fill:#000000;fill-opacity:1;fill-rule:nonzero;stroke:none;stroke-width:0.1"
         id="path172" /><path
         d="m 357.093,286.161 c -0.094,0.865 -0.236,1.721 -0.406,2.575 -0.148,0.749 -0.475,1.562 -0.461,2.324 0.006,0.299 -0.37,0.552 -0.634,0.364 -0.745,-0.532 -0.3,-1.151 -0.095,-1.897 0.314,-1.148 0.597,-2.3 0.785,-3.476 0.073,-0.459 0.862,-0.352 0.811,0.11 v 0"
         style="fill:#000000;fill-opacity:1;fill-rule:nonzero;stroke:none;stroke-width:0.1"
         id="path174" /><path
         d="m 360.108,294.312 c 0.516,-0.84 1.012,-1.694 1.432,-2.587 0.473,-1.009 0.459,-2.253 1.028,-3.18 0.227,-0.371 0.731,-0.268 0.87,0.114 0.736,2.015 -1.412,4.771 -2.563,6.245 -0.345,0.443 -1.051,-0.127 -0.767,-0.592 v 0"
         style="fill:#000000;fill-opacity:1;fill-rule:nonzero;stroke:none;stroke-width:0.1"
         id="path176" /><path
         d="m 317.043,284.578 c 0.034,0.014 0.067,0.028 0.101,0.043 0.152,0.065 0.201,0.267 0.168,0.411 -0.301,1.3 -0.244,2.616 -0.155,3.941 0.115,1.722 0.796,2.629 1.862,3.878 0.277,0.325 0.019,0.841 -0.426,0.73 -1.553,-0.389 -2.136,-2.219 -2.357,-3.627 -0.137,-0.876 -0.126,-1.772 -0.116,-2.657 0.003,-0.197 0.212,-2.551 0.513,-2.188 -0.255,-0.307 0.056,-0.684 0.41,-0.531 v 0"
         style="fill:#000000;fill-opacity:1;fill-rule:nonzero;stroke:none;stroke-width:0.1"
         id="path178" /><path
         d="m 368.905,341.543 c -0.459,2.55 -1.156,5.155 -0.46,7.722 0.455,1.681 2.444,3.459 4.158,3.658 1.494,0.173 2.478,-1.244 3.54,-2.026 0.522,-0.384 1.12,0.341 0.84,0.84 -2.033,3.619 -5.772,3.217 -8.34,0.498 -2.919,-3.091 -1.482,-7.331 -0.391,-10.871 0.13,-0.423 0.73,-0.245 0.653,0.179 v 0"
         style="fill:#000000;fill-opacity:1;fill-rule:nonzero;stroke:none;stroke-width:0.1"
         id="path180" /><path
         d="m 367.403,345.085 c 0.027,-0.016 0.055,-0.032 0.082,-0.048 0.131,-0.078 0.321,-0.035 0.394,0.104 0.648,1.221 0.452,2.512 1.996,3.087 0.62,0.23 1.304,0.243 1.947,0.115 0.791,-0.157 1.114,-0.832 1.772,-1.166 0.307,-0.156 0.701,0.032 0.699,0.401 -0.011,1.933 -2.781,2.258 -4.184,1.957 -0.721,-0.155 -1.637,-0.576 -2.058,-1.206 -0.163,-0.243 -1.014,-2.873 -0.589,-2.783 -0.218,-0.046 -0.238,-0.355 -0.059,-0.461 v 0"
         style="fill:#000000;fill-opacity:1;fill-rule:nonzero;stroke:none;stroke-width:0.1"
         id="path182" /><path
         d="m 323.959,331.521 c 1.007,0.029 1.897,-0.456 2.91,-0.252 0.991,0.199 1.925,0.557 2.723,1.194 1.756,1.403 2.847,3.425 3.074,5.666 0.067,0.671 -0.921,0.871 -1.226,0.332 -0.349,-0.617 -0.51,-1.259 -0.714,-1.936 -0.339,-1.118 -0.989,-1.945 -1.808,-2.754 -0.67,-0.662 -1.496,-1.019 -2.396,-1.244 -0.865,-0.217 -1.798,0.12 -2.692,-0.055 -0.541,-0.106 -0.411,-0.968 0.129,-0.951 v 0"
         style="fill:#000000;fill-opacity:1;fill-rule:nonzero;stroke:none;stroke-width:0.1"
         id="path184" /><path
         d="m 319.055,340.872 c -1.108,0.698 -1.993,1.618 -2.656,2.758 1.391,2.604 2.891,3.218 4.501,1.84 0.671,-0.385 1.731,-0.907 2.534,-0.907 1.369,0 1.842,0.849 2.128,2.027 0.684,2.81 -0.527,6.648 -0.844,9.457 -0.485,4.288 -1.06,8.399 -2.267,12.565 -0.247,0.853 -1.579,0.7 -1.561,-0.211 0.001,-0.059 0.002,-0.117 0.003,-0.175 0.02,-1.021 1.563,-1.021 1.583,0 10e-4,0.058 0.002,0.116 0.003,0.175 -0.52,-0.07 -1.041,-0.141 -1.561,-0.212 1.565,-5.654 2.131,-11.374 2.819,-17.181 0.283,-2.389 0.36,-5.664 -3.23,-3.665 -1.261,0.702 -2.268,1.02 -3.703,0.973 -5.3,-0.172 -0.057,-7.099 1.909,-8.029 0.392,-0.185 0.712,0.344 0.342,0.585 v 0"
         style="fill:#000000;fill-opacity:1;fill-rule:nonzero;stroke:none;stroke-width:0.1"
         id="path186" /><path
         d="m 346.006,349.052 c 0,-1.874 -0.901,-3.393 -2.012,-3.393 -1.111,0 -2.013,1.519 -2.013,3.393 0,1.875 0.902,3.394 2.013,3.394 1.111,0 2.012,-1.519 2.012,-3.394"
         style="fill:#000000;fill-opacity:1;fill-rule:nonzero;stroke:none;stroke-width:0.1"
         id="path188" /><path
         d="m 308.473,347.586 c 0,-1.874 -0.9,-3.394 -2.012,-3.394 -1.111,0 -2.013,1.52 -2.013,3.394 0,1.874 0.902,3.394 2.013,3.394 1.112,0 2.012,-1.52 2.012,-3.394"
         style="fill:#000000;fill-opacity:1;fill-rule:nonzero;stroke:none;stroke-width:0.1"
         id="path190" /><path
         d="m 355.674,362.276 c 0,0 -7.043,8.749 -10.892,9.099 -3.85,0.351 -7.525,-2.1 -5.95,-3.674 1.575,-1.575 -2.833,-2.926 1.575,-3.675 10.288,-1.75 19.108,-6.004 15.267,-1.75"
         style="fill:#bf674f;fill-opacity:1;fill-rule:nonzero;stroke:none;stroke-width:0.1"
         id="path192" /><path
         d="m 295.565,355.479 c 0,0 4.828,10.141 8.493,11.372 3.664,1.231 7.806,-0.302 6.638,-2.199 -1.168,-1.896 3.433,-2.19 -0.682,-3.939 -9.604,-4.082 -17.201,-10.26 -14.449,-5.234"
         style="fill:#bf674f;fill-opacity:1;fill-rule:nonzero;stroke:none;stroke-width:0.1"
         id="path194" /><path
         d="m 391.062,293.667 c 0,0 -14.961,0.618 -16.773,-7.543 -1.815,-8.161 -0.182,-14.056 0.997,-14.509 1.178,-0.453 3.807,12.12 3.807,12.12 0,0 -2.629,-12.12 0,-12.755 2.63,-0.635 4.262,12.514 4.262,12.514 0,0 -1.443,-12.786 0.819,-13.329 2.264,-0.545 3.897,13.329 3.897,13.329 0,0 -1.27,-13.42 0.543,-13.783 1.813,-0.363 3.894,13.42 3.894,13.42 0,0 1.547,-9.521 3.362,-10.156 1.813,-0.635 4.265,8.04 3.13,12.634 -1.137,4.595 -3.041,7.892 -7.938,8.058"
         style="fill:#fcceb6;fill-opacity:1;fill-rule:nonzero;stroke:none;stroke-width:0.1"
         id="path196" /><path
         d="m 621.25,266.563 c 5.249,16.798 -9.45,27.296 -22.048,36.746 -4.2,2.099 -1.05,9.448 0,13.648 2.099,7.349 2.099,14.698 0,20.997 -2.1,4.2 -5.249,9.449 -10.499,11.549 -11.549,2.1 -17.848,-9.449 -25.197,-12.598 -9.449,-5.25 -23.097,0 -33.596,6.299 -7.35,4.199 -16.798,-1.05 -17.848,-8.399 -2.1,-11.549 10.498,-19.948 4.199,-31.496 -3.149,-6.3 -9.449,-14.699 -5.249,-19.948 14.698,-14.698 11.548,-35.696 1.05,-51.444 -1.6,-2.399 -2.28,-5.103 -2.226,-7.822 4.888,-1.633 11.194,-2.896 19.286,-3.202 27.823,-1.049 68.092,1.522 79.322,6.536 4.856,2.162 8.606,3.787 8.606,3.787 l -0.788,14.807 4.988,-14.807 c 0,0 1.305,0.169 3.333,0.461 -2.907,5.504 -6.19,10.858 -8.583,15.988 -3.15,6.299 3.149,12.598 5.25,18.898"
         style="fill:#db4d28;fill-opacity:1;fill-rule:nonzero;stroke:none;stroke-width:0.1"
         id="path198" /><path
         d="m 578.205,383.099 c 7.282,3.641 15.187,6.651 22.815,7.783 -5.186,0.465 -10.34,-1.14 -14.679,3.765 -6.037,6.825 -15.291,15.749 -31.793,12.337 -4.641,-0.959 -9.368,-2.667 -13.764,-4.625 7.668,-3.816 14.903,-10.391 20.622,-16.11 4.2,-4.2 11.55,-6.3 16.799,-3.15"
         style="fill:#e95f33;fill-opacity:1;fill-rule:nonzero;stroke:none;stroke-width:0.1"
         id="path200" /><path
         d="m 557.207,372.6 c 16.908,-20.666 38.018,-4.351 56.564,7.585 -1.131,3.789 -2.709,6.031 -6.695,8.689 -1.993,1.328 -4.027,1.826 -6.056,2.008 -7.628,-1.132 -15.533,-4.142 -22.815,-7.783 -5.249,-3.15 -12.599,-1.05 -16.799,3.15 -5.719,5.719 -12.954,12.294 -20.622,16.11 -2.283,-1.017 -4.469,-2.1 -6.515,-3.182 9.568,-4.918 15.764,-18.685 22.938,-26.577"
         style="fill:#ef6843;fill-opacity:1;fill-rule:nonzero;stroke:none;stroke-width:0.1"
         id="path202" /><path
         d="m 626.236,312.058 c 3.675,9.886 4.462,16.972 -2.624,30.096 -7.087,13.123 -4.2,12.336 -7.087,25.459 -1.264,5.742 -1.873,9.624 -2.754,12.572 -18.546,-11.936 -39.656,-28.251 -56.564,-7.585 -7.174,7.892 -13.37,21.659 -22.938,26.577 -8.03,-4.246 -13.808,-8.467 -13.808,-8.467 0,0 -22.047,-2.099 -24.147,-19.16 -2.101,-17.06 3.936,-25.33 2.756,-33.925 -1.181,-8.595 -8.793,-15.506 -8.268,-25.567 0.525,-10.062 12.599,-14.387 11.548,-22.067 -1.05,-7.68 -7.086,-16.604 -5.512,-25.003 1.576,-8.399 2.887,-24.41 -2.362,-30.709 0,0 3.441,-6.201 15.36,-10.184 -0.054,2.719 0.626,5.423 2.226,7.822 10.498,15.748 13.648,36.746 -1.05,51.444 -4.2,5.249 2.1,13.648 5.249,19.948 6.299,11.548 -6.299,19.947 -4.199,31.496 1.05,7.349 10.498,12.598 17.848,8.399 10.499,-6.299 24.147,-11.549 33.596,-6.299 7.349,3.149 13.648,14.698 25.197,12.598 5.25,-2.1 8.399,-7.349 10.499,-11.549 2.099,-6.299 2.099,-13.648 0,-20.997 -1.05,-4.2 -4.2,-11.549 0,-13.648 12.598,-9.45 27.297,-19.948 22.048,-36.746 -2.101,-6.3 -8.4,-12.599 -5.25,-18.898 2.393,-5.13 5.676,-10.484 8.583,-15.988 4.53,0.655 12.667,1.938 17.926,3.389 0,0 -2.362,9.187 0,14.699 2.363,5.512 1.177,13.006 -4.199,24.934 -5.377,11.928 -15.748,27.472 -12.074,37.359"
         style="fill:#e95f33;fill-opacity:1;fill-rule:nonzero;stroke:none;stroke-width:0.1"
         id="path204" /><path
         d="m 604.626,312.058 c 0,0 12.599,-5.774 20.649,-13.999 8.05,-8.224 9.272,-16.679 9.272,-16.679 0,0 -9.272,1.417 -16.622,8.611 -7.348,7.193 -13.299,22.067 -13.299,22.067"
         style="fill:#2c2945;fill-opacity:1;fill-rule:nonzero;stroke:none;stroke-width:0.1"
         id="path206" /><path
         d="m 608.444,306.022 c 7.668,-19.858 22.021,-23.145 22.021,-23.145 5.738,8.625 10.672,16.65 14.936,24.09 -10.006,2.419 -19.798,6.142 -29.01,10.423 -4.567,-6.635 -7.947,-11.368 -7.947,-11.368"
         style="fill:#f2a381;fill-opacity:1;fill-rule:nonzero;stroke:none;stroke-width:0.1"
         id="path208" /><path
         d="m 676.543,379.949 c 4.901,3.5 20.123,21.173 17.849,22.922 -2.273,1.75 -12.773,-8.923 -12.773,-8.923 0,0 9.973,15.573 7.524,16.623 -2.449,1.05 -12.249,-13.124 -12.249,-13.124 0,0 7.698,16.449 5.425,17.323 -2.275,0.876 -11.2,-15.398 -11.2,-15.398 0,0 8.049,16.448 4.024,16.973 -4.025,0.525 -10.147,-18.373 -10.147,-18.373 0,0 -1.05,13.823 -3.5,12.424 -2.452,-1.4 -3.151,-22.923 -3.151,-22.923 0,0 -12.948,-22.922 -21.522,-38.32 -5.033,-9.041 -13.936,-22.328 -20.432,-31.763 9.212,-4.281 19.004,-8.004 29.01,-10.423 26.594,46.412 26.92,69.966 31.142,72.982"
         style="fill:#f9b28f;fill-opacity:1;fill-rule:nonzero;stroke:none;stroke-width:0.1"
         id="path210" /><path
         d="m 522.806,216.298 c -0.22,-3.944 -0.437,-8.298 -0.611,-12.729 21.242,-1.909 57.94,-1.981 87.807,14.562 0.175,4.072 0.307,8.037 0.352,11.49 -30.328,-15.903 -67.067,-15.333 -87.548,-13.323"
         style="fill:#feb01b;fill-opacity:1;fill-rule:nonzero;stroke:none;stroke-width:0.1"
         id="path212" /><path
         d="m 522.806,216.298 c 20.481,-2.01 57.22,-2.58 87.548,13.323 0.011,0.856 0.018,1.685 0.018,2.471 0,5.659 2.55,13.637 6.084,21.552 -30.366,-23.325 -72.503,-26.689 -93.003,-26.805 -0.189,-2.815 -0.418,-6.451 -0.647,-10.541"
         style="fill:#fad8b4;fill-opacity:1;fill-rule:nonzero;stroke:none;stroke-width:0.1"
         id="path214" /><path
         d="m 522.195,203.569 c -0.133,-3.386 -0.239,-6.81 -0.304,-10.128 20.086,-2.059 56.908,-2.885 87.5,12.748 0.22,3.817 0.437,7.925 0.611,11.942 -29.867,-16.543 -66.565,-16.471 -87.807,-14.562"
         style="fill:#fad8b4;fill-opacity:1;fill-rule:nonzero;stroke:none;stroke-width:0.1"
         id="path216" /><path
         d="m 521.891,193.441 c -0.07,-3.648 -0.09,-7.165 -0.03,-10.343 0,0 71.74,3.148 86.438,6.298 0,0 0.557,7.513 1.092,16.793 -30.592,-15.633 -67.414,-14.807 -87.5,-12.748"
         style="fill:#feb01b;fill-opacity:1;fill-rule:nonzero;stroke:none;stroke-width:0.1"
         id="path218" /><path
         d="m 611.455,301.139 c -4.549,7.436 -6.829,10.919 -6.829,10.919 0,0 -6.549,-7.438 -13.677,-14.154 -18.92,-23.424 -58.128,-26.658 -79.42,-26.548 -1.003,-3.442 -2.483,-7.706 -4.079,-12.023 21.114,-1.136 81.304,-0.428 104.005,41.806"
         style="fill:#feb01b;fill-opacity:1;fill-rule:nonzero;stroke:none;stroke-width:0.1"
         id="path220" /><path
         d="m 590.949,297.904 c -5.53,-5.209 -11.407,-9.984 -14.845,-10.518 -7.874,-1.225 -46.982,-2.888 -46.982,-2.888 0,0 -14.699,0.788 -16.535,-8.924 -0.221,-1.169 -0.588,-2.605 -1.058,-4.218 21.292,-0.11 60.5,3.124 79.42,26.548"
         style="fill:#fad8b4;fill-opacity:1;fill-rule:nonzero;stroke:none;stroke-width:0.1"
         id="path222" /><path
         d="m 634.547,281.38 c 0,0 -6.707,1.797 -12.975,6.786 -32.101,-50.574 -97.08,-47.17 -120.097,-44.16 -1.43,-3.518 -2.405,-5.833 -2.405,-5.833 0,0 16.666,-6.299 24.803,-5.381 0,0 -0.175,-2.275 -0.42,-5.953 20.5,0.116 62.637,3.48 93.003,26.805 5.638,12.64 13.787,25.119 18.091,27.736"
         style="fill:#feb01b;fill-opacity:1;fill-rule:nonzero;stroke:none;stroke-width:0.1"
         id="path224" /><path
         d="m 621.572,288.166 c -2.559,2.035 -5.044,4.599 -6.971,7.793 -1.151,1.907 -2.195,3.624 -3.146,5.18 -22.701,-42.234 -82.891,-42.942 -104.005,-41.806 -2.069,-5.595 -4.323,-11.265 -5.975,-15.327 23.017,-3.01 87.996,-6.414 120.097,44.16"
         style="fill:#fad8b4;fill-opacity:1;fill-rule:nonzero;stroke:none;stroke-width:0.1"
         id="path226" /><path
         d="m 543.559,298.321 c 0,0 1.908,-8.637 -8.213,-12.944 12.965,-2.646 24.502,0.922 34.698,7.617 -0.842,2.092 -1.58,4.801 -2.044,8.307 l -24.441,-2.98"
         style="fill:#f2a381;fill-opacity:1;fill-rule:nonzero;stroke:none;stroke-width:0.1"
         id="path228" /><path
         d="m 535.346,285.377 c -1.712,-0.728 -3.756,-1.336 -6.224,-1.754 0,0 2.039,-1.675 2.538,-1.837 14.873,-4.829 33.159,-4.462 44.444,4.199 0,0 -3.516,0.698 -6.06,7.009 -10.196,-6.695 -21.733,-10.263 -34.698,-7.617"
         style="fill:#f9b28f;fill-opacity:1;fill-rule:nonzero;stroke:none;stroke-width:0.1"
         id="path230" /><path
         d="m 509.087,339.001 c 0,0 3.325,-9.621 5.424,-19.944 2.1,-10.324 19.772,-24.148 41.995,-21.348 22.223,2.799 30.447,24.146 31.672,38.233 0,0 15.225,0.787 11.199,16.361 -4.025,15.572 -16.273,2.274 -16.273,2.274 0,0 -15.4,-2.449 -22.923,7.174 -7.523,9.624 -1.923,15.399 -15.397,16.099 -13.475,0.7 -16.799,-5.075 -16.799,-5.075 0,0 -1.051,-10.673 -8.225,-16.798 -7.173,-6.124 -11.197,-10.854 -10.673,-16.976"
         style="fill:#f9b28f;fill-opacity:1;fill-rule:nonzero;stroke:none;stroke-width:0.1"
         id="path232" /><path
         d="m 475.917,186.204 c 0,0 4.916,-12.437 6.499,-19.748 0,0 24.144,18.648 35.89,40.247 -6.573,6.21 -13.778,11.835 -21.308,16.913 -5.017,-11.918 -12.977,-28.742 -21.081,-37.412"
         style="fill:#f9b28f;fill-opacity:1;fill-rule:nonzero;stroke:none;stroke-width:0.1"
         id="path234" /><path
         d="m 523.873,232.792 c 0,0 -12.476,0.8 -21.592,4.249 0,0 -2.023,-5.679 -5.283,-13.425 7.53,-5.078 14.735,-10.703 21.308,-16.913 2.112,3.884 3.83,7.862 4.927,11.846 l 0.64,14.243"
         style="fill:#f2a381;fill-opacity:1;fill-rule:nonzero;stroke:none;stroke-width:0.1"
         id="path236" /><path
         d="m 525.971,284.412 c 0,0 -3.76,-35.346 -2.098,-51.62 1.662,-16.274 -4.46,-29.397 -6.912,-36.922 -2.45,-7.524 -1.751,-101.962698 2.623,-115.436898 h 39.022 L 556.331,109.956 c 0,0 4.201,0 9.275,1.574 0,0 0.699,-21.513698 1.399,-31.096898 h 50.22 c 0,0 3.324,38.270898 2.449,48.069898 -0.875,9.799 -11.549,61.592 -11.375,60.893 0.176,-0.7 -13.472,5.25 -19.771,19.948 -6.299,14.698 -8.749,46.019 -8.749,46.019 l 0.431,33.812 -5.331,-1.441 0.526,-42.519 c 0,0 -45.321,-2.275 -45.321,-2.975 l 0.36,42.316 -4.473,-0.144"
         style="fill:#3793b5;fill-opacity:1;fill-rule:nonzero;stroke:none;stroke-width:0.1"
         id="path238"
         sodipodi:nodetypes="cscccccccscsccccccc"
         inkscape:export-filename="/home/thejoeejoee/projs/esn/buddy-guide/docs/assets/02-people.png"
         inkscape:export-xdpi="96"
         inkscape:export-ydpi="96" /><path
         d="m 514.833,339.153 c 1.023,3.237 3.925,6.063 6.088,8.578 2.118,2.461 4.497,4.574 6.843,6.805 0.643,0.611 -0.298,1.507 -0.957,0.958 -2.814,-2.345 -5.286,-4.95 -7.576,-7.803 -1.959,-2.44 -4.374,-5.256 -5.218,-8.311 -0.146,-0.531 0.655,-0.747 0.82,-0.227 v 0"
         style="fill:#000000;fill-opacity:1;fill-rule:nonzero;stroke:none;stroke-width:0.1"
         id="path240" /><path
         d="m 551.432,359.882 c 7.297,-0.467 14.513,-4.851 20.965,-7.998 0.679,-0.331 1.225,0.592 0.592,1.013 -3.089,2.058 -7.037,3.806 -10.527,5.079 -3.489,1.274 -7.252,2.95 -11.03,2.67 -0.49,-0.036 -0.493,-0.732 0,-0.764 v 0"
         style="fill:#000000;fill-opacity:1;fill-rule:nonzero;stroke:none;stroke-width:0.1"
         id="path242" /><path
         d="m 589.601,341.979 c -1.124,2.089 -1.675,4.245 -1.795,6.609 -0.187,3.682 2.704,7.415 6.584,5.698 0.685,-0.304 1.436,0.496 0.84,1.088 -2.853,2.829 -6.514,0.257 -8.269,-2.494 -2.153,-3.376 -0.543,-8.751 1.959,-11.426 0.347,-0.37 0.909,0.101 0.681,0.525 v 0"
         style="fill:#000000;fill-opacity:1;fill-rule:nonzero;stroke:none;stroke-width:0.1"
         id="path244" /><path
         d="m 587.259,345.592 c 0.016,-0.002 0.031,-0.004 0.046,-0.006 0.124,-0.014 0.253,0.1 0.281,0.214 0.064,0.259 0.066,0.523 0.08,0.788 0.033,0.616 0.517,1.174 0.943,1.566 0.496,0.457 0.958,0.714 1.586,0.959 0.631,0.247 1.318,0.081 1.955,0.307 0.673,0.239 0.557,1.196 -0.167,1.238 -1.581,0.091 -3.204,-0.389 -4.235,-1.643 -0.84,-1.021 -0.979,-2 -0.716,-3.25 0.022,-0.11 0.127,-0.161 0.227,-0.173 v 0"
         style="fill:#000000;fill-opacity:1;fill-rule:nonzero;stroke:none;stroke-width:0.1"
         id="path246" /><path
         d="m 545.002,328.187 c -0.656,1.28 -1.312,2.56 -1.968,3.839 0.541,-0.022 1.077,0.005 1.609,0.083 -0.064,-0.023 1.313,0.309 1.635,0.632 1.066,1.067 1.21,2.819 0.976,4.219 -1.069,6.424 -4.841,12.514 -8.726,17.625 -0.542,0.712 -1.766,0.034 -1.225,-0.715 2.254,-3.118 4.181,-6.324 5.954,-9.734 0.785,-1.508 5.435,-10.462 -0.223,-10.752 -1.114,-0.057 -1.945,-0.038 -2.959,-0.632 -3.753,-2.199 3.294,-5.314 4.927,-5.241 0.443,0.019 0.429,0.635 0,0.676 v 0"
         style="fill:#000000;fill-opacity:1;fill-rule:nonzero;stroke:none;stroke-width:0.1"
         id="path248" /><path
         d="m 520.397,177.088 c 5.836,-2.089 11.818,-2.273 17.947,-2.612 7.596,-0.423 15.213,-0.45 22.818,-0.358 14.047,0.17 28.852,1.094 41.166,8.571 0.527,0.321 0.066,1.078 -0.477,0.817 -12.971,-6.235 -26.478,-7.695 -40.689,-7.939 -6.982,-0.119 -13.959,-0.058 -20.939,0.152 -6.514,0.197 -13.41,-0.037 -19.697,1.84 -0.305,0.09 -0.422,-0.367 -0.129,-0.471 v 0"
         style="fill:#000000;fill-opacity:1;fill-rule:nonzero;stroke:none;stroke-width:0.1"
         id="path250" /><path
         d="m 534.372,106.302 c 7.356,-0.362 14.98,2.582 22.178,3.908 8.977,1.655 17.384,2.56 26.044,5.792 0.851,0.317 0.514,1.662 -0.381,1.381 -7.563,-2.374 -14.673,-3.99 -22.514,-5.178 -8.402,-1.271 -16.866,-4.717 -25.327,-5.069 -0.539,-0.023 -0.538,-0.808 0,-0.834 v 0"
         style="fill:#000000;fill-opacity:1;fill-rule:nonzero;stroke:none;stroke-width:0.1"
         id="path252" /><path
         d="m 556.452,123.518 c 0.887,16.805 -2.487,33.414 -2.482,50.13 0,0.905 -1.402,0.905 -1.402,0 0.005,-16.716 3.451,-33.353 3.294,-50.13 -0.004,-0.383 0.57,-0.378 0.59,0 v 0"
         style="fill:#000000;fill-opacity:1;fill-rule:nonzero;stroke:none;stroke-width:0.1"
         id="path254" /><path
         d="m 589.133,176.437 c 1.229,-4.289 5.01,-8.651 7.804,-12.042 4.2,-5.1 9.258,-10.533 15.362,-13.287 0.546,-0.246 1.226,0.448 0.692,0.897 -8.554,7.206 -17.923,14.454 -23.182,24.717 -0.193,0.378 -0.79,0.114 -0.676,-0.285 v 0"
         style="fill:#000000;fill-opacity:1;fill-rule:nonzero;stroke:none;stroke-width:0.1"
         id="path256" /><path
         d="m 517.639,142.087 c 3.794,4.409 7.131,8.563 9.418,13.974 2.167,5.128 2.926,10.738 5.179,15.835 0.448,1.014 -1.035,1.903 -1.502,0.879 -1.895,-4.154 -2.815,-8.684 -4.147,-13.034 -2.056,-6.719 -6.194,-11.231 -9.677,-17.092 -0.265,-0.445 0.38,-0.969 0.729,-0.562 v 0"
         style="fill:#000000;fill-opacity:1;fill-rule:nonzero;stroke:none;stroke-width:0.1"
         id="path258" /><path
         d="m 613.712,83.5289 c 2.472,9.7871 2.535,20.6181 3.031,30.6701 0.272,5.521 -0.183,11.1 -0.656,16.599 -0.362,4.216 -0.482,8.889 -2.055,12.848 -0.317,0.795 -1.584,0.493 -1.315,-0.362 2.617,-8.278 2.577,-18.487 2.566,-27.116 -0.006,-5.255 -0.637,-10.514 -1.031,-15.748 -0.421,-5.6059 -0.247,-11.1348 -1.215,-16.7052 -0.077,-0.4367 0.563,-0.6308 0.675,-0.1859 v 0"
         style="fill:#000000;fill-opacity:1;fill-rule:nonzero;stroke:none;stroke-width:0.1"
         id="path260" /><path
         d="m 556.635,129.636 c 0.075,-0.102 0.152,-0.203 0.227,-0.305 0.139,-0.188 0.359,-0.272 0.578,-0.151 5.227,2.897 3.559,12.323 3.602,17.173 0.079,8.778 0.072,18.721 -2.277,27.246 -0.273,0.992 -1.823,0.568 -1.541,-0.426 1.92,-6.767 1.877,-14.324 2.269,-21.309 0.195,-3.477 0.199,-6.962 0.198,-10.443 0,-1.256 -0.582,-12.659 -2.566,-11.295 -0.287,0.197 -0.704,-0.202 -0.49,-0.49 v 0"
         style="fill:#000000;fill-opacity:1;fill-rule:nonzero;stroke:none;stroke-width:0.1"
         id="path262" /><path
         d="m 530.434,234.72 c 7.771,-0.122 15.536,-0.752 23.308,-0.414 3.097,0.134 6.112,0.691 9.154,1.237 3.485,0.625 7.055,0.101 10.437,1.201 0.446,0.146 0.395,0.92 -0.116,0.86 -2.975,-0.356 -5.947,-0.211 -8.924,-0.51 -3.539,-0.357 -6.984,-1.208 -10.551,-1.486 -7.753,-0.603 -15.545,0.189 -23.308,-0.195 -0.444,-0.022 -0.449,-0.686 0,-0.693 v 0"
         style="fill:#000000;fill-opacity:1;fill-rule:nonzero;stroke:none;stroke-width:0.1"
         id="path264" /><path
         d="m 548.862,316.289 c 1.788,-0.712 4.05,-0.89 6.638,0.537 3.568,1.965 3.782,5.343 3.266,7.963 -4.211,-1.347 -8.034,-4.576 -9.904,-8.5"
         style="fill:#e95f33;fill-opacity:1;fill-rule:nonzero;stroke:none;stroke-width:0.1"
         id="path266" /><path
         d="m 544.608,319.582 c 0,0 1.6,-2.238 4.254,-3.293 1.87,3.924 5.693,7.153 9.904,8.5 -0.413,2.102 -1.297,3.716 -1.297,3.716 -5.643,-1.312 -12.861,-8.923 -12.861,-8.923"
         style="fill:#000000;fill-opacity:1;fill-rule:nonzero;stroke:none;stroke-width:0.1"
         id="path268" /><path
         d="m 562.551,342.268 c 0.443,-1.481 0.042,-2.91 -0.894,-3.19 -0.938,-0.281 -2.058,0.693 -2.501,2.174 -0.443,1.482 -0.042,2.91 0.894,3.19 0.938,0.281 2.058,-0.693 2.501,-2.174"
         style="fill:#000000;fill-opacity:1;fill-rule:nonzero;stroke:none;stroke-width:0.1"
         id="path270" /><path
         d="m 529,335.269 c 0.386,-1.498 -0.068,-2.909 -1.015,-3.153 -0.947,-0.246 -2.029,0.769 -2.415,2.267 -0.387,1.496 0.067,2.909 1.014,3.153 0.948,0.245 2.03,-0.77 2.416,-2.267"
         style="fill:#000000;fill-opacity:1;fill-rule:nonzero;stroke:none;stroke-width:0.1"
         id="path272" /><path
         d="m 580.925,332.436 c 1.165,-3.564 -1.577,-7.658 -6.124,-9.145 -4.547,-1.487 -9.176,0.197 -10.343,3.761 -1.165,3.564 1.577,7.657 6.124,9.143 4.546,1.487 9.177,-0.195 10.343,-3.759"
         style="fill:#f2a381;fill-opacity:1;fill-rule:nonzero;stroke:none;stroke-width:0.1"
         id="path274" /><path
         d="m 537.785,319.744 c 0.013,-3.749 -3.853,-6.803 -8.637,-6.821 -4.784,-0.019 -8.673,3.007 -8.688,6.756 -0.013,3.749 3.852,6.803 8.636,6.821 4.784,0.018 8.674,-3.006 8.689,-6.756"
         style="fill:#f2a381;fill-opacity:1;fill-rule:nonzero;stroke:none;stroke-width:0.1"
         id="path276" /><path
         d="m 95.0074,398.705 c -2.9386,0.827 -6.2379,0.947 -9.5742,0.142 -10.5406,-2.543 -20.3176,-7.411 -21.7102,-19.97 11.8473,3.86 22.8004,10.575 31.2844,19.828"
         style="fill:#cd7659;fill-opacity:1;fill-rule:nonzero;stroke:none;stroke-width:0.1"
         id="path278" /><path
         d="m 95.0074,398.705 c -8.484,-9.253 -19.4371,-15.968 -31.2844,-19.828 -0.0449,-0.401 -0.107,-0.786 -0.1335,-1.203 -0.8747,-13.473 9.0992,-16.272 9.0992,-16.272 20.9968,-0.35 31.6703,13.648 32.8953,23.272 0.85,6.672 -3.938,12.162 -10.5766,14.031"
         style="fill:#bf674f;fill-opacity:1;fill-rule:nonzero;stroke:none;stroke-width:0.1"
         id="path280" /><path
         d="m 58.0504,336.305 c -0.0371,-13.248 6.0133,-15.594 7.2957,-19.063 25.1449,10.75 56.3579,21.585 63.2459,47.977 -0.916,1.902 -1.65,3.892 -2.18,5.963 -21.223,-14.799 -43.8307,-26.241 -68.3616,-34.877"
         style="fill:#bf674f;fill-opacity:1;fill-rule:nonzero;stroke:none;stroke-width:0.1"
         id="path282" /><path
         d="m 128.646,372.76 c -0.743,-0.53 -1.487,-1.058 -2.234,-1.578 0.53,-2.071 1.264,-4.061 2.18,-5.963 0.564,2.161 0.948,4.437 1.169,6.815 -0.373,0.242 -0.744,0.484 -1.115,0.726"
         style="fill:#bf674f;fill-opacity:1;fill-rule:nonzero;stroke:none;stroke-width:0.1"
         id="path284" /><path
         d="m 129.906,373.65 c -0.418,-0.301 -0.841,-0.591 -1.26,-0.89 0.371,-0.242 0.742,-0.484 1.115,-0.726 0.05,0.538 0.114,1.067 0.145,1.616"
         style="fill:#cd7659;fill-opacity:1;fill-rule:nonzero;stroke:none;stroke-width:0.1"
         id="path286" /><path
         d="m 129.761,372.034 c -0.221,-2.378 -0.605,-4.654 -1.169,-6.815 5.735,-11.907 18.539,-20.323 32.38,-22.749 -0.433,4.79 -1.404,10.162 -3.341,16.074 -10.032,2.645 -19.217,7.883 -27.87,13.49"
         style="fill:#bf674f;fill-opacity:1;fill-rule:nonzero;stroke:none;stroke-width:0.1"
         id="path288" /><path
         d="m 128.646,372.76 c 0.419,0.299 0.842,0.589 1.26,0.89 -0.031,-0.549 -0.095,-1.078 -0.145,-1.616 8.653,-5.607 17.838,-10.845 27.87,-13.49 -0.197,0.601 -0.385,1.197 -0.602,1.808 -5.6,15.748 -20.123,27.996 -51.969,22.047 0,0 -38.8467,-1.575 -45.3205,-32.196 -1.1965,-5.659 -1.6786,-10.201 -1.6891,-13.898 24.5309,8.636 47.1386,20.078 68.3616,34.877 -0.295,1.151 -0.541,2.32 -0.705,3.518 0.972,-0.648 1.954,-1.295 2.939,-1.94"
         style="fill:#cd7659;fill-opacity:1;fill-rule:nonzero;stroke:none;stroke-width:0.1"
         id="path290" /><path
         d="m 125.707,374.7 c 0.164,-1.198 0.41,-2.367 0.705,-3.518 0.747,0.52 1.491,1.048 2.234,1.578 -0.985,0.645 -1.967,1.292 -2.939,1.94"
         style="fill:#cd7659;fill-opacity:1;fill-rule:nonzero;stroke:none;stroke-width:0.1"
         id="path292" /><path
         d="m 89.352,327.622 c -7.9883,-3.766 -16.2821,-7.078 -24.0059,-10.38 0.2969,-0.802 0.341,-1.663 -0.0066,-2.735 -2.275,-6.999 -13.6493,-15.923 -10.6739,-28.522 2.9746,-12.598 6.2989,-17.497 6.2989,-17.497 0,0 6.6492,-2.975 12.4242,-3.325 l 2.9797,15.748 1.3945,-15.748 c 0,0 4.2738,0.386 10.8223,1.033 4.5597,20.32 6.8078,41.746 0.7668,61.426"
         style="fill:#cd7659;fill-opacity:1;fill-rule:nonzero;stroke:none;stroke-width:0.1"
         id="path294" /><path
         d="m 128.592,365.219 c -4.772,-18.286 -21.223,-29.102 -39.24,-37.597 6.041,-19.68 3.7929,-41.106 -0.7668,-61.426 18.1728,1.794 53.8708,5.594 64.4188,8.717 v 9.848 l 3.324,-8.924 5.558,1.601 c -12.251,20.799 -16.933,46.947 -17.332,71.076 -6.913,4.07 -12.633,9.793 -15.962,16.705"
         style="fill:#bf674f;fill-opacity:1;fill-rule:nonzero;stroke:none;stroke-width:0.1"
         id="path296" /><path
         d="m 164.203,298.059 c -3.85,13.473 -3.676,19.073 -3.325,26.772 0.203,4.456 0.749,10.387 0.094,17.639 -5.806,1.018 -11.422,3.102 -16.418,6.044 0.399,-24.129 5.081,-50.277 17.332,-71.076 l 4.766,1.373 c 0,0 1.401,5.775 -2.449,19.248"
         style="fill:#cd7659;fill-opacity:1;fill-rule:nonzero;stroke:none;stroke-width:0.1"
         id="path298" /><path
         d="m 163.909,178.203 -51.96,-4.73 c 0,0 -4.609,-12.585 -8.682,-25.559 20.93,9.368 44.254,14.392 67.159,17.044 -3.645,7.824 -6.517,13.245 -6.517,13.245"
         style="fill:#db4d28;fill-opacity:1;fill-rule:nonzero;stroke:none;stroke-width:0.1"
         id="path300" /><path
         d="m 170.426,164.958 c -22.905,-2.652 -46.229,-7.676 -67.159,-17.044 -2.244,-7.148 -4.3252,-14.414 -5.3818,-19.76 -2.9743,-15.049 2.6248,-47.7688 2.6248,-47.7688 h 84.691 c 0,0 2.449,20.9958 0,41.6438 -1.494,12.591 -9.08,30.703 -14.775,42.929"
         style="fill:#e95f33;fill-opacity:1;fill-rule:nonzero;stroke:none;stroke-width:0.1"
         id="path302" /><path
         d="m 182.96,244.61 -11.132,-19.813 c 0,0 2.318,-5.434 5.78,-12.102 4.933,7.508 7.525,16.111 8.829,25.023 l -3.477,6.892"
         style="fill:#f2a381;fill-opacity:1;fill-rule:nonzero;stroke:none;stroke-width:0.1"
         id="path304" /><path
         d="m 209.872,241.891 c -0.742,12.794 -1.05,13.649 -1.05,13.649 0,0 2.45,9.098 -3.499,12.423 0,0 3.849,12.599 0.349,15.398 -3.499,2.8 -3.674,-14.173 -3.674,-14.173 0,0 -2.624,14.972 -5.074,14.485 -2.45,-0.487 1.575,-16.41 1.575,-16.41 0,0 -4.2,-0.174 -3.851,-8.049 0.351,-7.874 -1.049,-35.696 -1.049,-35.696 l -7.162,14.2 c -1.304,-8.912 -3.896,-17.515 -8.829,-25.023 5.446,-10.484 13.734,-24.028 20.366,-24.348 10.848,-0.525 13.297,27.822 11.898,53.544"
         style="fill:#f9b28f;fill-opacity:1;fill-rule:nonzero;stroke:none;stroke-width:0.1"
         id="path306" /><path
         d="m 108.384,262.713 c 0,0 -19.9481,-4.2 -26.4215,-16.799 -6.4742,-12.598 -10.3242,-32.72 -10.3242,-32.72 0,0 7.6984,-9.799 26.2469,-13.473 0,0 5.4248,-11.024 5.5998,-15.923 0.174,-4.901 1.399,-11.198 4.899,-13.123 3.5,-1.926 8.399,1.574 18.898,2.099 10.498,0.526 28.871,4.2 34.121,4.549 5.249,0.35 9.973,10.15 11.723,19.423 1.75,9.274 -1.05,25.722 -1.75,26.947 -0.699,1.225 7.875,6.475 12.249,23.274 0,0 -7.174,16.622 -14.698,22.046 -7.524,5.424 -12.774,6.648 -22.048,4.374 -9.273,-2.274 -38.495,-10.674 -38.495,-10.674"
         style="fill:#feb01b;fill-opacity:1;fill-rule:nonzero;stroke:none;stroke-width:0.1"
         id="path308" /><path
         d="m 108.384,262.713 c 0,0 4.374,-3.85 19.423,0 15.048,3.85 19.072,10.674 19.072,10.674 0,0 -5.854,-0.058 -8.665,8.813 -6.529,-3.312 -13.775,-5.579 -21.201,-7.197 -1.274,-4.613 -3.775,-9.422 -8.629,-12.29"
         style="fill:#f9b28f;fill-opacity:1;fill-rule:nonzero;stroke:none;stroke-width:0.1"
         id="path310" /><path
         d="m 118.189,287.354 c 0,0 0.581,-5.988 -1.176,-12.351 7.426,1.618 14.672,3.885 21.201,7.197 -0.574,1.813 -1.025,3.989 -1.268,6.624 l -18.757,-1.47"
         style="fill:#f2a381;fill-opacity:1;fill-rule:nonzero;stroke:none;stroke-width:0.1"
         id="path312" /><path
         d="m 87.2113,329.73 c 0,0 -12.4238,1.576 -10.6738,-12.423 1.75,-13.998 13.8238,-7.699 13.8238,-7.699 0,0 6.8399,-23.57 35.1707,-22.573 24.847,0.875 36.746,18.548 34.121,36.221 -2.624,17.673 -5.599,26.072 -5.599,26.072 0,0 -15.399,8.225 -23.623,16.274 0,0 -27.121,-29.223 -43.2197,-35.872"
         style="fill:#f9b28f;fill-opacity:1;fill-rule:nonzero;stroke:none;stroke-width:0.1"
         id="path314" /><path
         d="m 123.257,307.508 c 0,-3.056 -4.152,-5.533 -9.274,-5.533 -5.122,0 -9.274,2.477 -9.274,5.533 0,3.056 4.152,5.534 9.274,5.534 5.122,0 9.274,-2.478 9.274,-5.534"
         style="fill:#f2a381;fill-opacity:1;fill-rule:nonzero;stroke:none;stroke-width:0.1"
         id="path316" /><path
         d="m 156.507,314.23 c 0.823,-2.582 -2.018,-5.793 -6.345,-7.172 -4.327,-1.381 -8.503,-0.406 -9.326,2.176 -0.823,2.581 2.018,5.793 6.344,7.174 4.328,1.379 8.503,0.404 9.327,-2.178"
         style="fill:#f2a381;fill-opacity:1;fill-rule:nonzero;stroke:none;stroke-width:0.1"
         id="path318" /><path
         d="m 23.3137,131.964 c 0.0187,0.024 0.0301,0.039 0.0301,0.039 0,0 -0.0215,-0.028 -0.0301,-0.039"
         style="fill:#f9b28f;fill-opacity:1;fill-rule:nonzero;stroke:none;stroke-width:0.1"
         id="path320" /><path
         d="m 65.3395,174.174 c -5.2497,-4.55 -39.3711,-25.022 -39.3711,-25.022 0,0 -16.79692,3.325 -20.12231,0 -3.32461,-3.325 7.87421,-6.475 7.87421,-6.475 0,0 -14.87303,-10.673 -13.648425,-12.423 1.224605,-1.75 14.348025,7.699 14.348025,7.699 0,0 -9.79881,-9.974 -9.0992,-12.424 0.70039,-2.45 12.7734,9.623 12.7734,9.623 0,0 -6.8238,-12.248 -5.4242,-13.823 1.3539,-1.522 10.0742,9.886 10.6438,10.635 0.0086,0.011 0.0301,0.039 0.0301,0.039 0,0 -0.0114,-0.015 -0.0301,-0.039 -0.3203,-0.42 -6.1883,-8.184 -3.2946,-10.774 2.9747,-2.66 15.5731,13.264 15.5731,13.264 0,0 40.0137,20.997 49.841,29.221 6.9469,5.811 9.502,12.688 10.9621,22.391 -8.3191,0.626 -16.6027,2.749 -24.4445,6.002 -1.802,-7.829 -4.1516,-15.762 -6.6113,-17.894"
         style="fill:#f9b28f;fill-opacity:1;fill-rule:nonzero;stroke:none;stroke-width:0.1"
         id="path322" /><path
         d="m 75.332,209.675 c 0,0 -1.3386,-8.736 -3.3812,-17.607 7.8418,-3.253 16.1254,-5.376 24.4445,-6.002 0.6063,4.025 1.0281,8.523 1.4899,13.655 0,0 -13.2602,3.109 -22.5532,9.954"
         style="fill:#f2a381;fill-opacity:1;fill-rule:nonzero;stroke:none;stroke-width:0.1"
         id="path324" /><path
         d="m 194.911,263.044 c 0,0 2.187,-9.315 4.462,-9.023 2.275,0.293 -1.472,13.109 -1.472,13.109 0,0 -1.854,-0.256 -2.99,-4.086"
         style="fill:#f2a381;fill-opacity:1;fill-rule:nonzero;stroke:none;stroke-width:0.1"
         id="path326" /><path
         d="m 205.323,267.963 c 0,0 -5.074,-11.024 -3.15,-12.074 1.925,-1.05 5.075,8.225 5.075,8.225 0,0 -4.286,-10.501 -2.755,-11.725 1.529,-1.224 5.649,3.563 4.816,7.787 -0.833,4.224 -0.661,6.562 -3.986,7.787"
         style="fill:#f2a381;fill-opacity:1;fill-rule:nonzero;stroke:none;stroke-width:0.1"
         id="path328" /><path
         d="m 80.7961,322.498 c 1.7648,2.278 6.341,2.938 8.209,0.459 2.1918,-2.909 0.5742,-6.969 -0.3836,-9.938 -0.1453,-0.452 0.4984,-0.852 0.816,-0.476 2.5805,3.06 2.8113,9.14 -0.2203,12 -2.3551,2.223 -7.5031,1.076 -8.9406,-1.645 -0.1676,-0.316 0.28,-0.709 0.5195,-0.4 v 0"
         style="fill:#000000;fill-opacity:1;fill-rule:nonzero;stroke:none;stroke-width:0.1"
         id="path330" /><path
         d="m 84.4988,319.247 c 1.1516,-0.008 2.1571,0.442 3.3278,0.12 0.8879,-0.244 1.298,-0.817 1.7402,-1.543 0.1441,-0.236 0.4812,-0.232 0.6262,0 0.5707,0.913 -0.6965,1.771 -1.3867,2.131 -1.4743,0.768 -2.8086,0.153 -4.3075,-0.039 -0.4148,-0.053 -0.4441,-0.666 0,-0.669 v 0"
         style="fill:#000000;fill-opacity:1;fill-rule:nonzero;stroke:none;stroke-width:0.1"
         id="path332" /><path
         d="m 105.073,328.424 c 1.351,2.143 2.38,4.477 3.799,6.606 1.758,2.64 4.629,4.834 7.552,5.999 0.6,0.24 0.591,1.283 -0.166,1.222 -2.895,-0.232 -5.595,-3.011 -7.453,-5.014 -2.252,-2.427 -3.351,-5.481 -4.502,-8.488 -0.177,-0.463 0.526,-0.713 0.77,-0.325 v 0"
         style="fill:#000000;fill-opacity:1;fill-rule:nonzero;stroke:none;stroke-width:0.1"
         id="path334" /><path
         d="m 144.8,343.651 c 1.748,-1.025 3.605,-1.898 5.413,-2.817 2.014,-1.022 2.961,-3.418 4.773,-4.71 0.793,-0.565 1.536,0.738 0.759,1.299 -1.823,1.316 -2.766,3.572 -4.845,4.587 -1.829,0.893 -3.81,1.892 -5.797,2.361 -0.431,0.101 -0.696,-0.489 -0.303,-0.72 v 0"
         style="fill:#000000;fill-opacity:1;fill-rule:nonzero;stroke:none;stroke-width:0.1"
         id="path336" /><path
         d="m 129.775,312.614 c -0.023,0 -0.045,0 -0.067,0 -0.192,-0.002 -0.347,-0.128 -0.404,-0.307 -0.273,-0.862 1.034,-2.038 1.535,-2.565 1.026,-1.081 2.658,-1.954 4.186,-1.817 0.967,0.087 0.993,1.581 0,1.528 -1.18,-0.064 -2.36,0.481 -3.245,1.23 -0.535,0.454 -1.384,1.085 -1.712,1.724 0,-0.141 0,-0.282 0,-0.422 0.013,0.018 0.025,0.036 0.036,0.055 0.162,0.244 -0.051,0.576 -0.329,0.574 v 0"
         style="fill:#000000;fill-opacity:1;fill-rule:nonzero;stroke:none;stroke-width:0.1"
         id="path338" /><path
         d="m 136.2,315.167 c 2.57,1.639 4.597,3.33 5.308,6.388 0.374,1.614 -0.6,3.422 -2.376,3.422 -0.976,0 -1.877,-0.878 -2.557,-1.434 -3.782,-3.09 -3.746,3.41 -3.901,5.348 -0.449,5.603 0.104,11.206 -0.085,16.806 -0.025,0.749 -1.173,0.754 -1.165,0 0.049,-4.453 -0.189,-8.9 -0.117,-13.357 0.047,-2.95 -0.227,-7.321 1.067,-10.122 0.663,-1.436 1.092,-1.886 2.582,-1.624 0.556,0.098 1.487,1.156 1.856,1.525 1.155,1.515 2.07,0.655 2.747,-2.581 -0.672,-1.386 -2.566,-2.826 -3.66,-3.981 -0.189,-0.2 0.057,-0.545 0.301,-0.39 v 0"
         style="fill:#000000;fill-opacity:1;fill-rule:nonzero;stroke:none;stroke-width:0.1"
         id="path340" /><path
         d="m 120.825,319.712 c -0.328,2.62 -0.88,8.393 -4.58,8.412 -2.223,0.012 -3.872,-1.209 -4.855,-3.145 -1.336,-2.631 -0.767,-5.61 -0.612,-8.416 0.054,-0.967 1.506,-0.981 1.512,0 0.011,2.15 -0.444,4.228 0.023,6.358 0.422,1.926 2.304,4.504 4.595,3.518 2.291,-0.986 2.233,-4.983 3.477,-6.846 0.116,-0.175 0.472,-0.134 0.44,0.119 v 0"
         style="fill:#000000;fill-opacity:1;fill-rule:nonzero;stroke:none;stroke-width:0.1"
         id="path342" /><path
         d="m 144.674,323.725 c 0.441,2.314 1.209,9.682 5.229,7.678 2.51,-1.252 2.32,-5.833 2.372,-8.147 0.018,-0.795 1.277,-1.027 1.431,-0.194 0.591,3.185 -0.293,8.712 -3.748,9.977 -1.894,0.692 -3.942,-0.693 -4.897,-2.23 -1.34,-2.157 -0.853,-4.666 -0.796,-7.028 0.005,-0.228 0.364,-0.294 0.409,-0.056 v 0"
         style="fill:#000000;fill-opacity:1;fill-rule:nonzero;stroke:none;stroke-width:0.1"
         id="path344" /><path
         d="m 97.5566,199.143 c 0.1438,-0.241 0.4606,-0.368 0.6922,-0.136 0.3391,0.339 8e-4,0.82 -0.1761,1.147 -1.3122,2.435 -2.7305,5.059 -4.4129,7.243 -0.3059,0.398 -1.043,0.193 -0.8707,-0.367 0.5879,-1.909 2.055,-3.589 3.1179,-5.259 0.3403,-0.535 0.6707,-1.071 1.025,-1.595 0.1614,-0.239 0.3176,-0.48 0.4703,-0.724 0.25,-0.399 0.1032,-0.449 0.1739,-0.149 0.1312,0.074 0.2629,0.149 0.3945,0.223 -0.0332,0.009 -0.066,0.018 -0.0984,0.027 -0.2344,0.062 -0.443,-0.198 -0.3157,-0.41 v 0"
         style="fill:#000000;fill-opacity:1;fill-rule:nonzero;stroke:none;stroke-width:0.1"
         id="path346" /><path
         d="m 98.5141,199.021 c 0.0117,1.273 -0.1532,2.533 -0.0661,3.806 0.1051,1.522 0.3895,3.069 0.2528,4.593 -0.036,0.398 -0.652,0.546 -0.7422,0.101 -0.5695,-2.793 -0.3656,-5.685 -0.177,-8.5 0.0313,-0.467 0.7282,-0.477 0.7325,0 v 0"
         style="fill:#000000;fill-opacity:1;fill-rule:nonzero;stroke:none;stroke-width:0.1"
         id="path348" /><path
         d="m 170.966,223.429 c 0.014,-0.038 0.028,-0.076 0.042,-0.115 0.219,-0.6 1.073,-0.107 0.658,0.383 -0.48,0.568 -0.567,2.604 -0.787,3.341 -0.379,1.274 -0.84,2.524 -1.297,3.771 -0.811,2.212 -1.632,4.534 -2.832,6.568 -0.247,0.417 -0.865,0.134 -0.763,-0.322 0.652,-2.901 2.117,-5.658 3.191,-8.425 0.48,-1.234 0.887,-2.493 1.295,-3.753 0.177,-0.551 0.158,-1.332 0.636,-1.736 0.491,-0.415 0.983,0.439 0.383,0.658 -0.038,0.013 -0.076,0.027 -0.114,0.041 -0.232,0.085 -0.496,-0.18 -0.412,-0.411 v 0"
         style="fill:#000000;fill-opacity:1;fill-rule:nonzero;stroke:none;stroke-width:0.1"
         id="path350" /><path
         d="m 170.856,223.963 c -0.017,-0.054 -0.035,-0.107 -0.052,-0.16 0.27,-0.036 0.54,-0.074 0.81,-0.11 0.084,4.081 1.257,8.401 0.219,12.438 -0.114,0.44 -0.714,0.309 -0.75,-0.102 -0.174,-1.934 0.105,-3.914 0.06,-5.862 -0.049,-2.168 -0.436,-4.3 -0.354,-6.474 0.024,-0.622 0.993,-0.448 0.811,0.11 -0.018,0.053 -0.036,0.106 -0.053,0.16 -0.112,0.341 -0.579,0.341 -0.691,0 v 0"
         style="fill:#000000;fill-opacity:1;fill-rule:nonzero;stroke:none;stroke-width:0.1"
         id="path352" /><path
         d="m 110.682,159.485 c 8.708,4.685 20.064,5.258 29.7,6.339 3.973,0.446 8.016,0.642 11.967,1.252 4.105,0.634 8.857,0.427 12.736,1.707 0.71,0.234 0.626,1.401 -0.183,1.354 -9.484,-0.559 -18.978,-2.022 -28.424,-3.199 -8.467,-1.054 -19.018,-1.685 -26.193,-6.773 -0.41,-0.29 -0.057,-0.924 0.397,-0.68 v 0"
         style="fill:#000000;fill-opacity:1;fill-rule:nonzero;stroke:none;stroke-width:0.1"
         id="path354" /><path
         d="m 142.186,173.473 c 1.386,-15.325 1.824,-30.699 3.334,-46.02 1.451,-14.731 1.618,-29.8292 4.282,-44.3811 0.085,-0.4637 0.845,-0.3547 0.82,0.1121 -0.805,14.7219 -2.077,29.583 -3.598,44.269 -0.796,7.685 -1.41,15.387 -1.885,23.098 -0.472,7.675 -0.398,15.513 -2.326,23.007 -0.088,0.341 -0.66,0.279 -0.627,-0.085 v 0"
         style="fill:#000000;fill-opacity:1;fill-rule:nonzero;stroke:none;stroke-width:0.1"
         id="path356" /><path
         d="m 150.204,171.461 c 0,-1.112 -0.861,-2.014 -1.925,-2.014 -1.062,0 -1.924,0.902 -1.924,2.014 0,1.11 0.862,2.012 1.924,2.012 1.064,0 1.925,-0.902 1.925,-2.012"
         style="fill:#000000;fill-opacity:1;fill-rule:nonzero;stroke:none;stroke-width:0.1"
         id="path358" /><path
         d="m 151.08,157.812 c 0,-1.111 -0.863,-2.012 -1.926,-2.012 -1.063,0 -1.924,0.901 -1.924,2.012 0,1.112 0.861,2.013 1.924,2.013 1.063,0 1.926,-0.901 1.926,-2.013"
         style="fill:#000000;fill-opacity:1;fill-rule:nonzero;stroke:none;stroke-width:0.1"
         id="path360" /><path
         d="m 153.004,128.328 c 0,-1.11 -0.862,-2.012 -1.925,-2.012 -1.063,0 -1.925,0.902 -1.925,2.012 0,1.112 0.862,2.014 1.925,2.014 1.063,0 1.925,-0.902 1.925,-2.014"
         style="fill:#000000;fill-opacity:1;fill-rule:nonzero;stroke:none;stroke-width:0.1"
         id="path362" /><path
         d="m 156.853,93.3332 c 0,-1.1113 -0.861,-2.0133 -1.925,-2.0133 -1.062,0 -1.924,0.902 -1.924,2.0133 0,1.1109 0.862,2.0129 1.924,2.0129 1.064,0 1.925,-0.902 1.925,-2.0129"
         style="fill:#000000;fill-opacity:1;fill-rule:nonzero;stroke:none;stroke-width:0.1"
         id="path364" /><path
         d="m 111.949,338.414 c -8.358,0 -15.1568,-6.8 -15.1568,-15.158 0,-8.358 6.7988,-15.157 15.1568,-15.157 8.359,0 15.158,6.799 15.158,15.157 0,8.358 -6.799,15.158 -15.158,15.158 z m 0,-31.366 c -8.936,0 -16.2072,7.271 -16.2072,16.208 0,8.937 7.2712,16.208 16.2072,16.208 8.937,0 16.208,-7.271 16.208,-16.208 0,-8.937 -7.271,-16.208 -16.208,-16.208"
         style="fill:#2c2945;fill-opacity:1;fill-rule:nonzero;stroke:none;stroke-width:0.1"
         id="path366" /><path
         d="m 155.366,338.414 c -8.358,0 -15.158,-6.8 -15.158,-15.158 0,-8.358 6.8,-15.157 15.158,-15.157 8.358,0 15.158,6.799 15.158,15.157 0,8.358 -6.8,15.158 -15.158,15.158 z m 0,-31.366 c -8.937,0 -16.208,7.271 -16.208,16.208 0,8.937 7.271,16.208 16.208,16.208 8.937,0 16.208,-7.271 16.208,-16.208 0,-8.937 -7.271,-16.208 -16.208,-16.208"
         style="fill:#2c2945;fill-opacity:1;fill-rule:nonzero;stroke:none;stroke-width:0.1"
         id="path368" /><path
         d="m 127.875,324.652 -0.696,0.785 c 0.145,0.129 3.671,3.144 12.901,1.382 l -0.197,-1.031 c -8.727,1.665 -11.975,-1.108 -12.008,-1.136"
         style="fill:#2c2945;fill-opacity:1;fill-rule:nonzero;stroke:none;stroke-width:0.1"
         id="path370" /><path
         d="m 116.224,272.563 c 0,0 -31.2002,-7.969 -36.974,-12.825 -5.7742,-4.855 -17.4453,-16.5 -6.8242,-24.802 10.7613,-8.414 15.748,-7.995 16.4043,-6.3 1.2945,3.343 -11.0238,10.237 -11.0238,10.237 0,0 12.0738,-7.543 15.0917,-6.23 3.0184,1.312 -9.1863,11.216 -9.1863,11.216 0,0 9.1863,-8.399 12.5985,-6.037 3.4121,2.363 -9.0547,10.629 -9.0547,10.629 0,0 11.0234,-5.641 13.1225,-4.329 2.101,1.312 -9.5792,10.892 -9.5792,10.892 0,0 10.1052,6.605 17.5852,7.699 0,0 6.595,5.545 7.84,9.85"
         style="fill:#826459;fill-opacity:1;fill-rule:nonzero;stroke:none;stroke-width:0.1"
         id="path372" /></g></g></svg>
