<?xml version="1.0" encoding="UTF-8" standalone="no"?>
<!-- Created with Inkscape (http://www.inkscape.org/) -->

<svg
   version="1.1"
   id="svg2"
   xml:space="preserve"
   width="1066"
   height="533"
   viewBox="0 0 1066 532.99999"
   sodipodi:docname="0-sky.svg"
   inkscape:version="1.1.2 (0a00cf5339, 2022-02-04)"
   inkscape:export-filename="/home/thejoeejoee/projs/esn/buddy-guide/docs/assets/0-sky.png"
   inkscape:export-xdpi="96"
   inkscape:export-ydpi="96"
   xmlns:inkscape="http://www.inkscape.org/namespaces/inkscape"
   xmlns:sodipodi="http://sodipodi.sourceforge.net/DTD/sodipodi-0.dtd"
   xmlns="http://www.w3.org/2000/svg"
   xmlns:svg="http://www.w3.org/2000/svg"><sodipodi:namedview
     id="namedview56376"
     pagecolor="#ffffff"
     bordercolor="#666666"
     borderopacity="1.0"
     inkscape:pageshadow="2"
     inkscape:pageopacity="0.0"
     inkscape:pagecheckerboard="0"
     showgrid="false"
     inkscape:zoom="0.81870878"
     inkscape:cx="945.39111"
     inkscape:cy="218.63696"
     inkscape:window-width="2560"
     inkscape:window-height="1573"
     inkscape:window-x="0"
     inkscape:window-y="-10"
     inkscape:window-maximized="1"
     inkscape:current-layer="svg2" /><defs
     id="defs6"><clipPath
       clipPathUnits="userSpaceOnUse"
       id="clipPath2612"><path
         d="m 7468.11,1098.04 h -2.43 l 0.09,0.63 0.54,0.54 h 6.93 l -1.26,20.88 0.54,0.63 0.54,-0.54 1.35,-21.51 -0.18,-0.45 -0.36,-0.18 h -5.76 m -17.46,26.01 -26.64,8.55 0.72,7.56 0.45,1.71 c -3.78,3.69 -6.57,8.28 -7.92,13.5 l -0.81,1.08 c 0,1.08 0,2.16 -0.09,3.24 0,0.36 0,0.63 -0.09,0.99 h -8.91 v 15.48 c -3.6,-0.72 -6.75,-0.72 -8.82,-0.54 -27.09,0.81 -63.27,4.59 -75.42,5.94 -2.52,0.27 -4.41,2.07 -4.95,4.41 l -0.81,3.87 c -0.54,2.7 1.53,5.4 4.41,5.58 7.11,0.63 20.7,1.89 39.78,4.5 l -0.18,0.09 0.9,0.81 c 2.52,1.89 9.18,6.93 12.24,6.84 1.71,-0.09 2.43,-0.27 2.52,-0.63 6.66,2.52 10.17,1.98 11.97,1.26 l -0.18,-0.9 c -1.44,-0.36 -2.79,-0.81 -4.05,-1.26 1.8,0.27 3.69,0.09 5.58,-0.9 0.18,-0.09 0.54,-0.45 0.54,-0.72 0.81,0.09 1.53,0.18 2.34,0.27 0.81,1.17 3.6,5.13 12.96,18.54 0.36,0.54 0.81,1.08 1.17,1.62 v 61.29 h 45.54 v 0.09 c -1.8,3.24 -2.79,7.02 -2.79,11.07 0,5.94 2.16,11.25 5.76,15.3 1.98,3.96 6.48,6.57 11.61,7.02 1.62,0.36 3.33,0.54 5.04,0.54 3.96,0 7.65,-0.99 10.8,-2.79 l 2.97,-0.54 c 0.45,-0.09 0.9,-0.27 1.26,-0.54 3.42,-0.09 6.03,-2.97 5.58,-6.12 2.88,-2.52 2.88,-8.37 1.89,-13.68 -0.09,-1.8 -0.36,-3.6 -0.81,-5.22 1.98,-1.8 2.16,-5.13 0.09,-7.74 -0.72,-0.9 -1.62,-1.62 -2.61,-2.07 0.45,-2.43 1.08,-4.5 0.36,-6.48 -0.54,-1.35 -1.26,-2.07 -1.98,-2.43 v -13.59 l 8.46,-5.4 -0.09,-0.09 c 1.35,-0.36 2.34,-0.45 3.78,-0.9 0.27,-0.09 0.54,-0.18 0.9,-0.27 l 0.54,1.62 7.11,-3.24 -0.36,-1.08 c 22.14,-9.72 33.12,-35.37 35.28,-40.05 l 0.54,0.18 0.45,-0.99 -2.07,-0.81 0.27,-0.72 c 2.07,-4.95 2.61,-10.44 1.26,-15.66 -2.16,-8.19 -6.75,-17.19 -12.24,-20.07 -0.45,-0.27 -0.9,-0.45 -1.35,-0.72 0.45,-4.95 0.9,-9.99 1.26,-14.94 0.54,-7.2 1.26,-17.1 1.89,-26.37 0.18,-2.7 -1.89,-4.86 -4.68,-4.86 h -2.16 c -4.95,0 -9.09,3.6 -9.72,8.46 v -0.09 l -28.89,-10.98 -39.6,1.98"
         clip-rule="evenodd"
         id="path2610" /></clipPath></defs><path
     style="fill:#abc3d5;fill-opacity:0.760784;stroke:none;stroke-width:1px;stroke-linecap:butt;stroke-linejoin:miter;stroke-opacity:1"
     d="M 85.642877,530.12833 H 938.62672 c 0,0 193.44068,-310.34687 89.26868,-397.43245 C 766.36466,-85.938123 695.61412,235.01086 85.642877,530.12833 Z"
     id="path59231"
     sodipodi:nodetypes="ccac" /><rect
     style="opacity:0.760826;fill:#6d96b5;fill-opacity:0.991257;stroke:none;stroke-width:2.01904;stroke-linecap:round;stroke-linejoin:round;stop-color:#000000"
     id="rect56657"
     width="1066"
     height="533"
     x="0"
     y="0" /><path
     d="m 844.58627,166.40742 c 0,0 85.0207,-21.77981 88.57914,-33.36008 3.55844,-11.58025 -177.03761,21.94022 -189.12741,31.98267 -12.09143,10.04339 87.15495,-0.12834 87.15495,-0.12834 0,0 -174.46674,19.42386 -147.88922,30.59804 14.25094,5.99123 55.84701,2.03978 91.37467,-2.91515 -29.29948,5.496 -58.25683,12.37848 -54.78647,17.62753 5.26594,7.96498 83.80059,-5.06334 119.41155,-11.43154 -8.22963,2.19411 -17.60384,5.79043 -23.83408,11.5626 -13.36064,12.37433 168.62095,-8.43579 169.99379,-25.52131 0.4973,-6.18331 -9.98473,-7.89043 -23.56393,-7.55351 9.90878,-2.40262 19.61909,-5.55827 27.74563,-9.70147 19.38991,-9.89051 -18.78329,-7.13251 -50.215,-3.66274 32.91099,-4.42616 77.17501,-11.28204 79.24591,-16.37837 3.3143,-8.15475 -174.08953,18.88167 -174.08953,18.88167"
     style="fill:#d6e9f4;fill-opacity:1;fill-rule:nonzero;stroke:none;stroke-width:0.133333"
     id="path16" /><g
     id="g56553"
     transform="translate(-30.670817,-27.584307)"
     style="fill:#d6e9f4;fill-opacity:1"><path
       d="m 220.84394,262.73138 c 0,0 -34.65999,0 -92.45839,0 -0.086,-0.0333 -0.16774,-0.0667 -0.25374,-0.1 74.5188,0 74.51214,0 74.51214,0 0,0 -1.82934,-11.49466 -11.88267,-11.49466 -3.08133,0 -6.93467,1.07866 -11.74667,3.9 0,0 -49.25933,-14.66934 -72.53693,-14.66934 -0.512,0 -1.01093,0.008 -1.4964,0.0213 -0.54787,-8.97866 7.80267,-16.34666 18.41147,-16.34666 8.57453,0 18.62453,4.81333 26.6432,17.47733 -1.92934,-13.65733 7.244,-19.412 16.208,-19.412 7.81733,0 15.476,4.37733 15.476,11.70667 1.09066,-4.732 7.564,-7.70667 14.048,-7.70667 8.37066,0 16.75599,4.95733 13.59333,17.48667 23.38933,1.276 11.48266,19.13733 11.48266,19.13733"
       style="fill:#d6e9f4;fill-opacity:1;fill-rule:nonzero;stroke:none;stroke-width:0.133333"
       id="path1700" /><path
       d="m 202.64395,262.63138 c 0,0 0.007,0 -74.51214,0 -11.84426,0 -25.57853,0 -41.486928,0 -16.318799,-4.972 -11.669199,-14.70266 0.6208,-14.70266 2.5724,0 5.4808,0.42666 8.601067,1.412 -3.6688,-6.252 0.7344,-8.70267 9.114531,-8.952 0.48547,-0.0133 0.9844,-0.0213 1.4964,-0.0213 23.2776,0 72.53693,14.66933 72.53693,14.66933 4.812,-2.82133 8.66534,-3.9 11.74667,-3.9 10.05333,0 11.88267,11.49467 11.88267,11.49467"
       style="fill:#d6e9f4;fill-opacity:1;fill-rule:nonzero;stroke:none;stroke-width:0.133333"
       id="path1702" /></g><path
     d="m 388.03394,246.29459 h -60.164 c -3.43333,0 -6.864,-0.27066 -10.24933,-0.848 -3.92933,-0.66933 -6.42667,-1.51866 -6.72267,-2.59066 -0.82,-2.976 3.164,-3.736 7.44667,-3.736 1.676,0 3.39867,0.116 4.89733,0.26133 -8.20133,-1.224 -25.14266,-4.59333 -25.74266,-11.6 -0.30534,-3.56 2.22,-4.65467 5.444,-4.65467 1.15733,0 2.40533,0.14134 3.644,0.36 -4.03467,-1.61466 -8.644,-4.18266 -11.732,-8.136 -3.63867,-4.65733 1.932,-6.832 11.47066,-6.832 7.79467,0 18.23734,1.452 28.464,4.188 22.74534,6.08267 7.152,15.07467 7.152,15.07467 29.89734,0 38.868,4.232 32.676,11.37333 2.64134,-0.20666 4.91734,-0.3 6.876,-0.3 10.42267,0 11.79734,2.64134 10.62267,4.98267 -0.76667,1.52933 -2.372,2.45733 -4.08267,2.45733"
     style="fill:#d6e9f4;fill-opacity:1;fill-rule:nonzero;stroke:none;stroke-width:0.133333"
     id="path1704" /><path
     d="m 473.23929,162.6752 c -25.22134,0 -39.96,-5.75066 -30.33867,-18.06666 8.168,-10.45334 20.35733,-17.24534 31.03067,-21.51467 -3.27734,0.57867 -6.576,0.952 -9.63734,0.952 -8.52533,0 -15.20533,-2.896 -14.39733,-12.31067 153.15368,-117.7669655 340.6547,-1.22526 117.52933,0 0,0 41.23733,23.78 -18.912,39.86667 -27.05067,7.23467 -54.66267,11.07333 -75.27466,11.07333"
     style="fill:#d6e9f4;fill-opacity:1;fill-rule:nonzero;stroke:none;stroke-width:0.133333"
     id="path1706"
     sodipodi:nodetypes="cccsccsc" /><path
     id="path18"
     style="fill:#d6e9f4;fill-opacity:1;fill-rule:nonzero;stroke:none;stroke-width:0.133333"
     d="m 165.96606,77.307443 c -1.27822,0 -2.493,0.03319 -3.67773,0.08203 -0.23799,0.0098 -0.47111,0.02141 -0.70508,0.0332 -1.39476,0.0703 -2.7223,0.17305 -3.96485,0.314453 -0.38704,0.04405 -0.75965,0.09352 -1.13086,0.144531 -0.29654,0.04074 -0.60056,0.07785 -0.88671,0.123047 -0.43949,0.06944 -0.85338,0.150466 -1.26758,0.230469 -0.23481,0.04534 -0.48254,0.08406 -0.70899,0.132813 -0.62382,0.134338 -1.21942,0.281047 -1.77734,0.441406 -0.003,8.75e-4 -0.007,0.0011 -0.01,0.002 -0.5505,0.158472 -1.06408,0.331582 -1.54687,0.515625 -0.19724,0.0752 -0.36721,0.160737 -0.55274,0.240234 -0.27882,0.11943 -0.56077,0.238028 -0.8125,0.367188 -0.17709,0.09091 -0.33079,0.189404 -0.49414,0.285156 -0.21953,0.128626 -0.43868,0.257136 -0.63281,0.394531 -0.15178,0.107466 -0.28405,0.221134 -0.41992,0.333985 -0.17223,0.143022 -0.33829,0.287746 -0.48438,0.439453 -0.1113,0.115574 -0.20693,0.236786 -0.30273,0.357422 -0.12761,0.160691 -0.24425,0.324436 -0.34375,0.49414 -0.075,0.127853 -0.1425,0.257635 -0.20117,0.390625 -0.0774,0.175525 -0.13708,0.35651 -0.18555,0.541016 -0.0374,0.142417 -0.072,0.285804 -0.0918,0.433594 -0.0254,0.189808 -0.0257,0.387234 -0.0215,0.585937 0.003,0.152363 0.002,0.303324 0.0234,0.460938 0.0286,0.214915 0.0881,0.439347 0.15039,0.664062 0.0429,0.154742 0.0736,0.305437 0.13281,0.464844 0.0987,0.265775 0.23997,0.543469 0.38477,0.822266 0.0676,0.130019 0.11558,0.253856 0.19336,0.386718 0.24629,0.420934 0.53743,0.855081 0.88867,1.304688 4.3449,5.560336 10.56221,9.416826 16.39648,12.033196 0.83347,0.37377 1.65749,0.72043 2.46875,1.04493 -0.97224,-0.17173 -1.94585,-0.30981 -2.90625,-0.41016 -0.27135,-0.0284 -0.52835,-0.0274 -0.79687,-0.0488 -0.67514,-0.0539 -1.3481,-0.10506 -1.9961,-0.10937 -0.052,-3.5e-4 -0.10839,-0.01 -0.16015,-0.01 -0.71874,0 -1.40782,0.0456 -2.07422,0.11914 -0.50876,0.0562 -1.00379,0.1293 -1.47266,0.23438 -0.0834,0.0187 -0.16023,0.0441 -0.24219,0.0645 -0.41271,0.10235 -0.80432,0.22873 -1.17773,0.375 -0.10959,0.0429 -0.22029,0.0839 -0.32617,0.13086 -0.42,0.18607 -0.81602,0.39586 -1.17188,0.64844 -0.23668,0.16796 -0.45719,0.35316 -0.66211,0.55273 -0.0548,0.0534 -0.10384,0.11225 -0.15625,0.16797 -0.15501,0.16479 -0.29847,0.33955 -0.43164,0.52539 -0.0539,0.0753 -0.10604,0.15167 -0.15625,0.23047 -0.14366,0.22558 -0.27508,0.46317 -0.38672,0.71875 -0.0147,0.0336 -0.0328,0.0635 -0.0469,0.0977 -0.1212,0.29333 -0.21584,0.60969 -0.29297,0.94336 -0.022,0.095 -0.0364,0.19654 -0.0547,0.29493 -0.047,0.2534 -0.0821,0.51861 -0.10351,0.79492 -0.009,0.12062 -0.0191,0.24014 -0.0234,0.36523 -0.0134,0.38799 -0.0116,0.79041 0.0254,1.22266 0.0299,0.34852 0.0851,0.68994 0.16406,1.02734 0.0242,0.10337 0.0651,0.20236 0.0937,0.30469 0.0639,0.22831 0.12537,0.45845 0.21094,0.68164 0.0528,0.13753 0.1248,0.27065 0.18555,0.40625 0.0829,0.18511 0.16041,0.3712 0.25781,0.55273 0.0705,0.13138 0.1565,0.25916 0.23437,0.38868 0.10946,0.18201 0.21426,0.3646 0.3379,0.54297 0.0896,0.12929 0.19223,0.25542 0.28906,0.38281 0.13003,0.17105 0.25769,0.34212 0.40039,0.50976 0.10629,0.12489 0.22478,0.24614 0.33789,0.36914 0.1569,0.17064 0.31087,0.34273 0.48047,0.50977 0.11545,0.1137 0.24214,0.22389 0.36328,0.33594 0.17403,0.16099 0.34585,0.32287 0.53125,0.48047 0.15649,0.13302 0.32399,0.26195 0.48828,0.39257 0.15769,0.12538 0.3139,0.24987 0.47852,0.37305 0.33876,0.25349 0.72718,0.49008 1.09375,0.73438 0.4131,0.27531 0.81223,0.55455 1.25781,0.81836 0.38768,0.22952 0.81057,0.44507 1.2207,0.66601 0.45788,0.24667 0.90348,0.49825 1.38672,0.73438 0.45531,0.22248 0.93862,0.43127 1.41406,0.64453 0.47688,0.21391 0.94465,0.43195 1.43946,0.63672 0.47981,0.19857 0.97813,0.38411 1.47265,0.57421 0.55378,0.21291 1.10249,0.4284 1.67188,0.63086 0.4566,0.16235 0.92375,0.31303 1.38867,0.46875 0.59046,0.19781 1.1763,0.39669 1.77734,0.58399 0.54089,0.16855 1.08578,0.32809 1.63282,0.48828 0.55376,0.16217 1.10441,0.32477 1.6621,0.47852 0.57741,0.15917 1.15341,0.30869 1.73243,0.45898 0.52589,0.13652 1.04907,0.27302 1.57422,0.40234 0.55744,0.13727 1.10781,0.2672 1.66211,0.39649 0.50412,0.1176 0.9984,0.23068 1.49804,0.34179 1.09866,0.24436 2.12034,0.43854 3.1836,0.65235 1.17767,0.23689 2.33747,0.47882 3.44726,0.67969 0.93107,0.16865 1.73278,0.29904 2.59961,0.44336 0.73253,0.122 1.55176,0.27368 2.22852,0.3789 h 0.0859 c 0.34739,0.0537 0.77704,0.13231 1.10743,0.18164 -0.71074,-0.0691 -1.48561,-0.12432 -2.24805,-0.18164 h 0.16016 c -0.20993,-0.0161 -0.4336,-0.0242 -0.64649,-0.0391 -0.42333,-0.0296 -0.83728,-0.0543 -1.26953,-0.0781 -0.69986,-0.0387 -1.39691,-0.0644 -2.10742,-0.084 -0.41318,-0.0114 -0.81591,-0.0237 -1.22852,-0.0273 -0.17834,-0.002 -0.35734,-0.0117 -0.53515,-0.0117 -0.86463,0 -1.7177,0.0213 -2.55274,0.0644 -0.69279,0.0358 -1.36704,0.0908 -2.02148,0.16211 -0.0543,0.006 -0.11397,0.007 -0.16797,0.0137 h 0.0644 c -4.78621,0.53891 -8.30358,2.10763 -7.29492,5.76758 0.4744,1.72266 4.49122,3.08869 10.81055,4.16602 5.4416,0.928 10.95758,1.36132 16.47851,1.36132 h 87.76172 8.97461 c 0.4467,0 0.88569,-0.0525 1.31836,-0.1289 0.11268,-0.0199 0.22268,-0.0435 0.33398,-0.0684 0.37628,-0.0841 0.74357,-0.19287 1.09961,-0.33203 0.0521,-0.0204 0.10663,-0.0332 0.15821,-0.0547 0.39674,-0.16538 0.7722,-0.37113 1.13281,-0.60156 0.0885,-0.0565 0.17187,-0.11746 0.25781,-0.17774 0.2968,-0.20812 0.57719,-0.43634 0.83984,-0.6875 0.0433,-0.0414 0.0964,-0.0708 0.13868,-0.11328 v -0.0137 c 0.24312,-0.24518 0.46956,-0.50787 0.67578,-0.78906 h 0.01 c 0.0108,-0.0148 0.0186,-0.032 0.0293,-0.0469 0.21219,-0.29474 0.40601,-0.60641 0.57227,-0.9375 0.13022,-0.25972 0.23444,-0.52045 0.32226,-0.7832 0.0257,-0.0769 0.0408,-0.15351 0.0625,-0.23047 0.0533,-0.18902 0.0977,-0.37767 0.125,-0.5664 0.0136,-0.0936 0.0187,-0.18599 0.0254,-0.2793 0.012,-0.16679 0.0133,-0.33278 0.002,-0.49805 -0.007,-0.10274 -0.0166,-0.20474 -0.0332,-0.30664 -0.0269,-0.16587 -0.0732,-0.32921 -0.12695,-0.49219 -0.0304,-0.0921 -0.0563,-0.18437 -0.0957,-0.27539 -0.0846,-0.19525 -0.19766,-0.38722 -0.32618,-0.57617 -0.0357,-0.0525 -0.0584,-0.10625 -0.0977,-0.1582 -0.18184,-0.24067 -0.40559,-0.47444 -0.66797,-0.70117 -0.0603,-0.0521 -0.13831,-0.10109 -0.20313,-0.15235 -0.21407,-0.16942 -0.44593,-0.33477 -0.71093,-0.49414 -0.12562,-0.0755 -0.26868,-0.14767 -0.40625,-0.2207 -0.24299,-0.12905 -0.50152,-0.25436 -0.78321,-0.375 -0.17028,-0.0729 -0.34824,-0.14329 -0.5332,-0.21289 -0.3084,-0.11609 -0.64348,-0.22582 -0.99414,-0.33203 -0.19734,-0.0598 -0.38843,-0.1213 -0.59961,-0.17774 -0.43446,-0.11615 -0.91107,-0.22117 -1.40625,-0.32226 -0.16984,-0.0347 -0.32084,-0.0746 -0.49805,-0.10743 -0.69414,-0.12848 -1.44038,-0.24208 -2.25195,-0.33984 -0.17255,-0.0208 -0.37274,-0.0334 -0.55078,-0.0527 -0.65359,-0.0709 -1.33273,-0.1355 -2.0625,-0.18555 -0.33034,-0.0227 -0.68871,-0.0365 -1.03516,-0.0547 -0.64352,-0.0338 -1.30722,-0.0625 -2.00781,-0.0801 -0.39278,-0.01 -0.79974,-0.015 -1.21094,-0.0195 -0.34516,-0.004 -0.6592,-0.0176 -1.01757,-0.0176 -0.26384,0 -0.58634,0.0174 -0.85743,0.0195 -1.01614,0.008 -2.09409,0.0352 -3.21484,0.0742 -0.5145,0.0179 -1.00769,0.0299 -1.54492,0.0547 -1.70577,0.0786 -3.49404,0.18243 -5.4375,0.33399 9.95467,-11.48134 -4.468,-18.28516 -52.53907,-18.28516 0,0 25.07329,-14.458902 -11.49804,-24.240232 -2.19724,-0.58754 -4.39906,-1.133241 -6.59766,-1.646485 -0.6143,-0.143417 -1.22263,-0.266746 -1.83594,-0.404297 -1.55725,-0.349235 -3.11084,-0.690851 -4.65625,-1.001953 -0.84541,-0.170204 -1.67752,-0.319833 -2.51757,-0.478515 -1.28625,-0.242972 -2.56802,-0.481525 -3.83789,-0.697266 -0.91197,-0.154941 -1.80752,-0.294774 -2.70899,-0.435547 -1.2183,-0.190268 -2.42561,-0.370975 -3.62109,-0.535156 -0.86421,-0.11869 -1.71407,-0.227088 -2.56446,-0.332031 -1.18934,-0.146798 -2.35899,-0.280696 -3.51757,-0.400391 -0.82584,-0.08532 -1.64286,-0.166845 -2.45118,-0.238281 -1.12756,-0.09968 -2.22466,-0.179502 -3.31445,-0.251953 -0.79119,-0.0526 -1.58221,-0.106403 -2.35156,-0.144532 -1.10616,-0.05486 -2.1658,-0.08467 -3.22266,-0.109375 -0.6643,-0.01553 -1.34305,-0.03944 -1.98633,-0.04297 -0.18892,-0.001 -0.39693,-0.01367 -0.58398,-0.01367 z" /></svg>
