<?xml version="1.0" encoding="UTF-8" standalone="no"?>
<svg
   version="1.1"
   width="496.78"
   height="1080"
   preserveAspectRatio="none"
   viewBox="0 0 496.78 1080"
   id="svg897"
   xmlns="http://www.w3.org/2000/svg"
   xmlns:svg="http://www.w3.org/2000/svg">
  <g
     mask="url(#SvgjsMask1114)"
     fill="none"
     id="g890"
     transform="translate(-103.22)">
    <path
       style="fill:none;stroke:#e92063;stroke-opacity:1"
       d="m 659.8,780.14 42.43,24.5 v 49 l -42.43,24.5 -42.44,-24.5 v -49 z"
       id="path1553" />
    <path
       style="fill:none;stroke:#e92063;stroke-opacity:1"
       d="m 659.8,633.14 42.43,24.5 v 49 l -42.43,24.5 -42.44,-24.5 v -49 z"
       id="path1551" />
    <path
       style="fill:none;stroke:#e92063;stroke-opacity:1"
       d="m 617.36,559.64 42.44,24.5 v 49 l -42.44,24.5 -42.44,-24.5 v -49 z"
       id="path1549" />
    <path
       style="fill:none;stroke:#e92063;stroke-opacity:1"
       d="m 659.8,339.14 42.43,24.5 v 49 l -42.43,24.5 -42.44,-24.5 v -49 z"
       id="path1547" />
    <path
       style="fill:none;stroke:#e92063;stroke-opacity:1"
       d="m 659.8,192.14 42.43,24.5 v 49 l -42.43,24.5 -42.44,-24.5 v -49 z"
       id="path1545" />
    <path
       style="fill:none;stroke:#e92063;stroke-opacity:1"
       d="m 617.36,118.64 42.44,24.5 v 49 l -42.44,24.5 -42.44,-24.5 v -49 z"
       id="path1543" />
    <path
       style="fill:none;stroke:#e92063;stroke-opacity:1"
       d="m 574.92,927.14 42.44,24.5 v 49 l -42.44,24.5 -42.43,-24.5 v -49 z"
       id="path1541" />
    <path
       style="fill:none;stroke:#e92063;stroke-opacity:1"
       d="m 574.92,780.14 42.44,24.5 v 49 l -42.44,24.5 -42.43,-24.5 v -49 z"
       id="path1539" />
    <path
       style="fill:none;stroke:#e92063;stroke-opacity:1"
       d="m 574.92,633.14 42.44,24.5 v 49 l -42.44,24.5 -42.43,-24.5 v -49 z"
       id="path1537" />
    <path
       style="fill:none;stroke:#e92063;stroke-opacity:1"
       d="m 574.92,339.14 42.44,24.5 v 49 l -42.44,24.5 -42.43,-24.5 v -49 z"
       id="path1535" />
    <path
       style="fill:none;stroke:#e92063;stroke-opacity:1"
       d="m 532.49,265.64 42.43,24.5 v 49 l -42.43,24.5 -42.44,-24.5 v -49 z"
       id="path1533" />
    <path
       style="fill:none;stroke:#e92063;stroke-opacity:1"
       d="m 532.49,118.64 42.43,24.5 v 49 l -42.43,24.5 -42.44,-24.5 v -49 z"
       id="path1531" />
    <path
       style="fill:none;stroke:#e92063;stroke-opacity:1"
       d="m 532.49,-28.36 42.43,24.5 v 49 l -42.43,24.5 -42.44,-24.5 v -49 z"
       id="path1529" />
    <path
       style="fill:none;stroke:#e92063;stroke-opacity:1"
       d="m 490.05,633.14 42.44,24.5 v 49 l -42.44,24.5 -42.44,-24.5 v -49 z"
       id="path1527" />
    <path
       style="fill:none;stroke:#e92063;stroke-opacity:1"
       d="m 447.61,559.64 42.44,24.5 v 49 l -42.44,24.5 -42.43,-24.5 v -49 z"
       id="path1525" />
    <path
       style="fill:none;stroke:#e92063;stroke-opacity:1"
       d="m 490.05,486.14 42.44,24.5 v 49 l -42.44,24.5 -42.44,-24.5 v -49 z"
       id="path1523" />
    <path
       style="fill:none;stroke:#e92063;stroke-opacity:1"
       d="m 447.61,412.64 42.44,24.5 v 49 l -42.44,24.5 -42.43,-24.5 v -49 z"
       id="path1521" />
    <path
       style="fill:none;stroke:#e92063;stroke-opacity:1"
       d="m 490.05,339.14 42.44,24.5 v 49 l -42.44,24.5 -42.44,-24.5 v -49 z"
       id="path1519" />
    <path
       style="fill:none;stroke:#e92063;stroke-opacity:1"
       d="m 447.61,265.64 42.44,24.5 v 49 l -42.44,24.5 -42.43,-24.5 v -49 z"
       id="path1517" />
    <path
       style="fill:none;stroke:#e92063;stroke-opacity:1"
       d="m 362.74,706.64 42.44,24.5 v 49 l -42.44,24.5 -42.43,-24.5 v -49 z"
       id="path1515" />
    <path
       style="fill:none;stroke:#e92063;stroke-opacity:1"
       d="m 362.74,-28.36 42.44,24.5 v 49 l -42.44,24.5 -42.43,-24.5 v -49 z"
       id="path1513" />
    <path
       style="fill:none;stroke:#e92063;stroke-opacity:1"
       d="m 277.87,706.64 42.44,24.5 v 49 l -42.44,24.5 -42.44,-24.5 v -49 z"
       id="path1511" />
    <path
       style="fill:none;stroke:#e92063;stroke-opacity:1"
       d="m 320.31,633.14 42.43,24.5 v 49 l -42.43,24.5 -42.44,-24.5 v -49 z"
       id="path1509" />
    <path
       style="fill:none;stroke:#e92063;stroke-opacity:1"
       d="m 320.31,192.14 42.43,24.5 v 49 l -42.43,24.5 -42.44,-24.5 v -49 z"
       id="path1507" />
    <path
       style="fill:none;stroke:#e92063;stroke-opacity:1"
       d="m 193,265.64 42.43,24.5 v 49 l -42.43,24.5 -42.44,-24.5 v -49 z"
       id="path1505" />
    <path
       style="fill:none;stroke:#e92063;stroke-opacity:1"
       d="m 235.43,192.14 42.44,24.5 v 49 l -42.44,24.5 -42.43,-24.5 v -49 z"
       id="path1503" />
    <path
       style="fill:none;stroke:#e92063;stroke-opacity:1"
       d="m 150.56,339.14 42.44,24.5 v 49 l -42.44,24.5 -42.44,-24.5 v -49 z"
       id="path886" />
    <path
       style="fill:#e92063;fill-opacity:1"
       d="m 654.9,878.14 a 4.9,4.9 0 1 0 9.8,0 4.9,4.9 0 1 0 -9.8,0 z"
       id="path1903" />
    <path
       style="fill:#e92063;fill-opacity:1"
       d="m 697.33,853.64 a 4.9,4.9 0 1 0 9.8,0 4.9,4.9 0 1 0 -9.8,0 z"
       id="path1901" />
    <path
       style="fill:#e92063;fill-opacity:1"
       d="m 697.33,804.64 a 4.9,4.9 0 1 0 9.8,0 4.9,4.9 0 1 0 -9.8,0 z"
       id="path1899" />
    <path
       style="fill:#e92063;fill-opacity:1"
       d="m 654.9,780.14 a 4.9,4.9 0 1 0 9.8,0 4.9,4.9 0 1 0 -9.8,0 z"
       id="path1897" />
    <path
       style="fill:#e92063;fill-opacity:1"
       d="m 654.9,731.14 a 4.9,4.9 0 1 0 9.8,0 4.9,4.9 0 1 0 -9.8,0 z"
       id="path1895" />
    <path
       style="fill:#e92063;fill-opacity:1"
       d="m 697.33,706.64 a 4.9,4.9 0 1 0 9.8,0 4.9,4.9 0 1 0 -9.8,0 z"
       id="path1893" />
    <path
       style="fill:#e92063;fill-opacity:1"
       d="m 697.33,657.64 a 4.9,4.9 0 1 0 9.8,0 4.9,4.9 0 1 0 -9.8,0 z"
       id="path1891" />
    <path
       style="fill:#e92063;fill-opacity:1"
       d="m 570.02,584.14 a 4.9,4.9 0 1 0 9.8,0 4.9,4.9 0 1 0 -9.8,0 z"
       id="path1889" />
    <path
       style="fill:#e92063;fill-opacity:1"
       d="m 654.9,633.14 a 4.9,4.9 0 1 0 9.8,0 4.9,4.9 0 1 0 -9.8,0 z"
       id="path1887" />
    <path
       style="fill:#e92063;fill-opacity:1"
       d="m 654.9,584.14 a 4.9,4.9 0 1 0 9.8,0 4.9,4.9 0 1 0 -9.8,0 z"
       id="path1885" />
    <path
       style="fill:#e92063;fill-opacity:1"
       d="m 612.46,559.64 a 4.9,4.9 0 1 0 9.8,0 4.9,4.9 0 1 0 -9.8,0 z"
       id="path1883" />
    <path
       style="fill:#e92063;fill-opacity:1"
       d="m 654.9,437.14 a 4.9,4.9 0 1 0 9.8,0 4.9,4.9 0 1 0 -9.8,0 z"
       id="path1881" />
    <path
       style="fill:#e92063;fill-opacity:1"
       d="m 697.33,412.64 a 4.9,4.9 0 1 0 9.8,0 4.9,4.9 0 1 0 -9.8,0 z"
       id="path1879" />
    <path
       style="fill:#e92063;fill-opacity:1"
       d="m 697.33,363.64 a 4.9,4.9 0 1 0 9.8,0 4.9,4.9 0 1 0 -9.8,0 z"
       id="path1877" />
    <path
       style="fill:#e92063;fill-opacity:1"
       d="m 654.9,339.14 a 4.9,4.9 0 1 0 9.8,0 4.9,4.9 0 1 0 -9.8,0 z"
       id="path1875" />
    <path
       style="fill:#e92063;fill-opacity:1"
       d="m 612.46,265.64 a 4.9,4.9 0 1 0 9.8,0 4.9,4.9 0 1 0 -9.8,0 z"
       id="path1873" />
    <path
       style="fill:#e92063;fill-opacity:1"
       d="m 654.9,290.14 a 4.9,4.9 0 1 0 9.8,0 4.9,4.9 0 1 0 -9.8,0 z"
       id="path1871" />
    <path
       style="fill:#e92063;fill-opacity:1"
       d="m 697.33,265.64 a 4.9,4.9 0 1 0 9.8,0 4.9,4.9 0 1 0 -9.8,0 z"
       id="path1869" />
    <path
       style="fill:#e92063;fill-opacity:1"
       d="m 697.33,216.64 a 4.9,4.9 0 1 0 9.8,0 4.9,4.9 0 1 0 -9.8,0 z"
       id="path1867" />
    <path
       style="fill:#e92063;fill-opacity:1"
       d="m 612.46,216.64 a 4.9,4.9 0 1 0 9.8,0 4.9,4.9 0 1 0 -9.8,0 z"
       id="path1865" />
    <path
       style="fill:#e92063;fill-opacity:1"
       d="m 654.9,192.14 a 4.9,4.9 0 1 0 9.8,0 4.9,4.9 0 1 0 -9.8,0 z"
       id="path1863" />
    <path
       style="fill:#e92063;fill-opacity:1"
       d="m 654.9,143.14 a 4.9,4.9 0 1 0 9.8,0 4.9,4.9 0 1 0 -9.8,0 z"
       id="path1861" />
    <path
       style="fill:#e92063;fill-opacity:1"
       d="m 612.46,118.64 a 4.9,4.9 0 1 0 9.8,0 4.9,4.9 0 1 0 -9.8,0 z"
       id="path1859" />
    <path
       style="fill:#e92063;fill-opacity:1"
       d="m 527.59,951.64 a 4.9,4.9 0 1 0 9.8,0 4.9,4.9 0 1 0 -9.8,0 z"
       id="path1857" />
    <path
       style="fill:#e92063;fill-opacity:1"
       d="m 527.59,1000.64 a 4.9,4.9 0 1 0 9.8,0 4.9,4.9 0 1 0 -9.8,0 z"
       id="path1855" />
    <path
       style="fill:#e92063;fill-opacity:1"
       d="m 570.02,1025.14 a 4.9,4.9 0 1 0 9.8,0 4.9,4.9 0 1 0 -9.8,0 z"
       id="path1853" />
    <path
       style="fill:#e92063;fill-opacity:1"
       d="m 612.46,1000.64 a 4.9,4.9 0 1 0 9.8,0 4.9,4.9 0 1 0 -9.8,0 z"
       id="path1851" />
    <path
       style="fill:#e92063;fill-opacity:1"
       d="m 612.46,951.64 a 4.9,4.9 0 1 0 9.8,0 4.9,4.9 0 1 0 -9.8,0 z"
       id="path1849" />
    <path
       style="fill:#e92063;fill-opacity:1"
       d="m 570.02,927.14 a 4.9,4.9 0 1 0 9.8,0 4.9,4.9 0 1 0 -9.8,0 z"
       id="path1847" />
    <path
       style="fill:#e92063;fill-opacity:1"
       d="m 527.59,804.64 a 4.9,4.9 0 1 0 9.8,0 4.9,4.9 0 1 0 -9.8,0 z"
       id="path1845" />
    <path
       style="fill:#e92063;fill-opacity:1"
       d="m 527.59,853.64 a 4.9,4.9 0 1 0 9.8,0 4.9,4.9 0 1 0 -9.8,0 z"
       id="path1843" />
    <path
       style="fill:#e92063;fill-opacity:1"
       d="m 570.02,878.14 a 4.9,4.9 0 1 0 9.8,0 4.9,4.9 0 1 0 -9.8,0 z"
       id="path1841" />
    <path
       style="fill:#e92063;fill-opacity:1"
       d="m 612.46,853.64 a 4.9,4.9 0 1 0 9.8,0 4.9,4.9 0 1 0 -9.8,0 z"
       id="path1839" />
    <path
       style="fill:#e92063;fill-opacity:1"
       d="m 612.46,804.64 a 4.9,4.9 0 1 0 9.8,0 4.9,4.9 0 1 0 -9.8,0 z"
       id="path1837" />
    <path
       style="fill:#e92063;fill-opacity:1"
       d="m 570.02,780.14 a 4.9,4.9 0 1 0 9.8,0 4.9,4.9 0 1 0 -9.8,0 z"
       id="path1835" />
    <path
       style="fill:#e92063;fill-opacity:1"
       d="m 570.02,731.14 a 4.9,4.9 0 1 0 9.8,0 4.9,4.9 0 1 0 -9.8,0 z"
       id="path1833" />
    <path
       style="fill:#e92063;fill-opacity:1"
       d="m 612.46,706.64 a 4.9,4.9 0 1 0 9.8,0 4.9,4.9 0 1 0 -9.8,0 z"
       id="path1831" />
    <path
       style="fill:#e92063;fill-opacity:1"
       d="m 612.46,657.64 a 4.9,4.9 0 1 0 9.8,0 4.9,4.9 0 1 0 -9.8,0 z"
       id="path1829" />
    <path
       style="fill:#e92063;fill-opacity:1"
       d="m 570.02,633.14 a 4.9,4.9 0 1 0 9.8,0 4.9,4.9 0 1 0 -9.8,0 z"
       id="path1827" />
    <path
       style="fill:#e92063;fill-opacity:1"
       d="m 570.02,437.14 a 4.9,4.9 0 1 0 9.8,0 4.9,4.9 0 1 0 -9.8,0 z"
       id="path1825" />
    <path
       style="fill:#e92063;fill-opacity:1"
       d="m 612.46,412.64 a 4.9,4.9 0 1 0 9.8,0 4.9,4.9 0 1 0 -9.8,0 z"
       id="path1823" />
    <path
       style="fill:#e92063;fill-opacity:1"
       d="m 612.46,363.64 a 4.9,4.9 0 1 0 9.8,0 4.9,4.9 0 1 0 -9.8,0 z"
       id="path1821" />
    <path
       style="fill:#e92063;fill-opacity:1"
       d="m 570.02,339.14 a 4.9,4.9 0 1 0 9.8,0 4.9,4.9 0 1 0 -9.8,0 z"
       id="path1819" />
    <path
       style="fill:#e92063;fill-opacity:1"
       d="m 570.02,290.14 a 4.9,4.9 0 1 0 9.8,0 4.9,4.9 0 1 0 -9.8,0 z"
       id="path1817" />
    <path
       style="fill:#e92063;fill-opacity:1"
       d="m 527.59,265.64 a 4.9,4.9 0 1 0 9.8,0 4.9,4.9 0 1 0 -9.8,0 z"
       id="path1815" />
    <path
       style="fill:#e92063;fill-opacity:1"
       d="m 485.15,143.14 a 4.9,4.9 0 1 0 9.8,0 4.9,4.9 0 1 0 -9.8,0 z"
       id="path1813" />
    <path
       style="fill:#e92063;fill-opacity:1"
       d="m 485.15,192.14 a 4.9,4.9 0 1 0 9.8,0 4.9,4.9 0 1 0 -9.8,0 z"
       id="path1811" />
    <path
       style="fill:#e92063;fill-opacity:1"
       d="m 527.59,216.64 a 4.9,4.9 0 1 0 9.8,0 4.9,4.9 0 1 0 -9.8,0 z"
       id="path1809" />
    <path
       style="fill:#e92063;fill-opacity:1"
       d="m 570.02,192.14 a 4.9,4.9 0 1 0 9.8,0 4.9,4.9 0 1 0 -9.8,0 z"
       id="path1807" />
    <path
       style="fill:#e92063;fill-opacity:1"
       d="m 570.02,143.14 a 4.9,4.9 0 1 0 9.8,0 4.9,4.9 0 1 0 -9.8,0 z"
       id="path1805" />
    <path
       style="fill:none;stroke:#e92063;stroke-opacity:1"
       d="m 532.08,1051.9172 42.43,24.5 v 49 l -42.43,24.5 -42.44,-24.5 v -49 z"
       id="path1529-3" />
    <path
       style="fill:#e92063;fill-opacity:1"
       d="m 527.59,118.64 a 4.9,4.9 0 1 0 9.8,0 4.9,4.9 0 1 0 -9.8,0 z"
       id="path1803" />
    <path
       style="fill:#e92063;fill-opacity:1"
       d="m 485.15,-3.86 a 4.9,4.9 0 1 0 9.8,0 4.9,4.9 0 1 0 -9.8,0 z"
       id="path1801" />
    <path
       style="fill:#e92063;fill-opacity:1"
       d="m 485.15,45.14 a 4.9,4.9 0 1 0 9.8,0 4.9,4.9 0 1 0 -9.8,0 z"
       id="path1799" />
    <path
       style="fill:none;stroke:#e92063;stroke-opacity:1"
       d="m 362.33,1051.9172 42.44,24.5 v 49 l -42.44,24.5 -42.43,-24.5 v -49 z"
       id="path1513-6" />
    <path
       style="fill:#e92063;fill-opacity:1"
       d="m 527.59,69.64 a 4.9,4.9 0 1 0 9.8,0 4.9,4.9 0 1 0 -9.8,0 z"
       id="path1797" />
    <path
       style="fill:#e92063;fill-opacity:1"
       d="m 570.02,45.14 a 4.9,4.9 0 1 0 9.8,0 4.9,4.9 0 1 0 -9.8,0 z"
       id="path1795" />
    <path
       style="fill:#e92063;fill-opacity:1"
       d="m 570.02,-3.86 a 4.9,4.9 0 1 0 9.8,0 4.9,4.9 0 1 0 -9.8,0 z"
       id="path1793" />
    <path
       style="fill:#e92063;fill-opacity:1"
       d="m 527.59,-28.36 a 4.9,4.9 0 1 0 9.8,0 4.9,4.9 0 1 0 -9.8,0 z"
       id="path1791" />
    <path
       style="fill:#e92063;fill-opacity:1"
       d="m 442.71,706.64 a 4.9,4.9 0 1 0 9.8,0 4.9,4.9 0 1 0 -9.8,0 z"
       id="path1785" />
    <path
       style="fill:#e92063;fill-opacity:1"
       d="m 485.15,731.14 a 4.9,4.9 0 1 0 9.8,0 4.9,4.9 0 1 0 -9.8,0 z"
       id="path1783" />
    <path
       style="fill:#e92063;fill-opacity:1"
       d="m 527.59,706.64 a 4.9,4.9 0 1 0 9.8,0 4.9,4.9 0 1 0 -9.8,0 z"
       id="path1781" />
    <path
       style="fill:#e92063;fill-opacity:1"
       d="m 527.59,657.64 a 4.9,4.9 0 1 0 9.8,0 4.9,4.9 0 1 0 -9.8,0 z"
       id="path1779" />
    <path
       style="fill:#e92063;fill-opacity:1"
       d="m 400.28,584.14 a 4.9,4.9 0 1 0 9.8,0 4.9,4.9 0 1 0 -9.8,0 z"
       id="path1777" />
    <path
       style="fill:#e92063;fill-opacity:1"
       d="m 400.28,633.14 a 4.9,4.9 0 1 0 9.8,0 4.9,4.9 0 1 0 -9.8,0 z"
       id="path1775" />
    <path
       style="fill:#e92063;fill-opacity:1"
       d="m 442.71,657.64 a 4.9,4.9 0 1 0 9.8,0 4.9,4.9 0 1 0 -9.8,0 z"
       id="path1773" />
    <path
       style="fill:#e92063;fill-opacity:1"
       d="m 485.15,633.14 a 4.9,4.9 0 1 0 9.8,0 4.9,4.9 0 1 0 -9.8,0 z"
       id="path1771" />
    <path
       style="fill:#e92063;fill-opacity:1"
       d="m 442.71,559.64 a 4.9,4.9 0 1 0 9.8,0 4.9,4.9 0 1 0 -9.8,0 z"
       id="path1769" />
    <path
       style="fill:#e92063;fill-opacity:1"
       d="m 485.15,584.14 a 4.9,4.9 0 1 0 9.8,0 4.9,4.9 0 1 0 -9.8,0 z"
       id="path1767" />
    <path
       style="fill:#e92063;fill-opacity:1"
       d="m 527.59,559.64 a 4.9,4.9 0 1 0 9.8,0 4.9,4.9 0 1 0 -9.8,0 z"
       id="path1765" />
    <path
       style="fill:#e92063;fill-opacity:1"
       d="m 527.59,510.64 a 4.9,4.9 0 1 0 9.8,0 4.9,4.9 0 1 0 -9.8,0 z"
       id="path1763" />
    <path
       style="fill:#e92063;fill-opacity:1"
       d="m 400.28,437.14 a 4.9,4.9 0 1 0 9.8,0 4.9,4.9 0 1 0 -9.8,0 z"
       id="path1761" />
    <path
       style="fill:#e92063;fill-opacity:1"
       d="m 400.28,486.14 a 4.9,4.9 0 1 0 9.8,0 4.9,4.9 0 1 0 -9.8,0 z"
       id="path1759" />
    <path
       style="fill:#e92063;fill-opacity:1"
       d="m 442.71,510.64 a 4.9,4.9 0 1 0 9.8,0 4.9,4.9 0 1 0 -9.8,0 z"
       id="path1757" />
    <path
       style="fill:#e92063;fill-opacity:1"
       d="m 485.15,486.14 a 4.9,4.9 0 1 0 9.8,0 4.9,4.9 0 1 0 -9.8,0 z"
       id="path1755" />
    <path
       style="fill:#e92063;fill-opacity:1"
       d="m 442.71,412.64 a 4.9,4.9 0 1 0 9.8,0 4.9,4.9 0 1 0 -9.8,0 z"
       id="path1753" />
    <path
       style="fill:#e92063;fill-opacity:1"
       d="m 485.15,437.14 a 4.9,4.9 0 1 0 9.8,0 4.9,4.9 0 1 0 -9.8,0 z"
       id="path1751" />
    <path
       style="fill:#e92063;fill-opacity:1"
       d="m 527.59,412.64 a 4.9,4.9 0 1 0 9.8,0 4.9,4.9 0 1 0 -9.8,0 z"
       id="path1749" />
    <path
       style="fill:#e92063;fill-opacity:1"
       d="m 527.59,363.64 a 4.9,4.9 0 1 0 9.8,0 4.9,4.9 0 1 0 -9.8,0 z"
       id="path1747" />
    <path
       style="fill:#e92063;fill-opacity:1"
       d="m 400.28,290.14 a 4.9,4.9 0 1 0 9.8,0 4.9,4.9 0 1 0 -9.8,0 z"
       id="path1745" />
    <path
       style="fill:#e92063;fill-opacity:1"
       d="m 400.28,339.14 a 4.9,4.9 0 1 0 9.8,0 4.9,4.9 0 1 0 -9.8,0 z"
       id="path1743" />
    <path
       style="fill:#e92063;fill-opacity:1"
       d="m 442.71,363.64 a 4.9,4.9 0 1 0 9.8,0 4.9,4.9 0 1 0 -9.8,0 z"
       id="path1741" />
    <path
       style="fill:#e92063;fill-opacity:1"
       d="m 485.15,339.14 a 4.9,4.9 0 1 0 9.8,0 4.9,4.9 0 1 0 -9.8,0 z"
       id="path1739" />
    <path
       style="fill:#e92063;fill-opacity:1"
       d="m 485.15,290.14 a 4.9,4.9 0 1 0 9.8,0 4.9,4.9 0 1 0 -9.8,0 z"
       id="path1737" />
    <path
       style="fill:#e92063;fill-opacity:1"
       d="m 442.71,265.64 a 4.9,4.9 0 1 0 9.8,0 4.9,4.9 0 1 0 -9.8,0 z"
       id="path1735" />
    <path
       style="fill:#e92063;fill-opacity:1"
       d="m 357.84,804.64 a 4.9,4.9 0 1 0 9.8,0 4.9,4.9 0 1 0 -9.8,0 z"
       id="path1709" />
    <path
       style="fill:#e92063;fill-opacity:1"
       d="m 400.28,780.14 a 4.9,4.9 0 1 0 9.8,0 4.9,4.9 0 1 0 -9.8,0 z"
       id="path1707" />
    <path
       style="fill:#e92063;fill-opacity:1"
       d="m 400.28,731.14 a 4.9,4.9 0 1 0 9.8,0 4.9,4.9 0 1 0 -9.8,0 z"
       id="path1705" />
    <path
       style="fill:#e92063;fill-opacity:1"
       d="m 315.41,-3.86 a 4.9,4.9 0 1 0 9.8,0 4.9,4.9 0 1 0 -9.8,0 z"
       id="path1703" />
    <path
       style="fill:#e92063;fill-opacity:1"
       d="m 315.41,45.14 a 4.9,4.9 0 1 0 9.8,0 4.9,4.9 0 1 0 -9.8,0 z"
       id="path1701" />
    <path
       style="fill:#e92063;fill-opacity:1"
       d="m 484.74,1076.4172 a 4.9,4.9 0 1 0 9.8,0 4.9,4.9 0 1 0 -9.8,0 z"
       id="path1801-7" />
    <path
       style="fill:#e92063;fill-opacity:1"
       d="m 357.84,69.64 a 4.9,4.9 0 1 0 9.8,0 4.9,4.9 0 1 0 -9.8,0 z"
       id="path1699" />
    <path
       style="fill:#e92063;fill-opacity:1"
       d="m 400.28,45.14 a 4.9,4.9 0 1 0 9.8,0 4.9,4.9 0 1 0 -9.8,0 z"
       id="path1697" />
    <path
       style="fill:#e92063;fill-opacity:1"
       d="m 400.28,-3.86 a 4.9,4.9 0 1 0 9.8,0 4.9,4.9 0 1 0 -9.8,0 z"
       id="path1695" />
    <path
       style="fill:#e92063;fill-opacity:1"
       d="m 357.84,-28.36 a 4.9,4.9 0 1 0 9.8,0 4.9,4.9 0 1 0 -9.8,0 z"
       id="path1693" />
    <path
       style="fill:#e92063;fill-opacity:1"
       d="m 484.74,1125.4172 a 4.9,4.9 0 1 0 9.8,0 4.9,4.9 0 1 0 -9.8,0 z"
       id="path1799-5" />
    <path
       style="fill:#e92063;fill-opacity:1"
       d="m 527.18,1130.7098 a 4.9,4.9 0 1 0 9.8,0 4.9,4.9 0 1 0 -9.8,0 z"
       id="path1797-3" />
    <path
       style="fill:#e92063;fill-opacity:1"
       d="m 569.61,1125.4172 a 4.9,4.9 0 1 0 9.8,0 4.9,4.9 0 1 0 -9.8,0 z"
       id="path1795-5" />
    <path
       style="fill:#e92063;fill-opacity:1"
       d="m 569.61,1076.4172 a 4.9,4.9 0 1 0 9.8,0 4.9,4.9 0 1 0 -9.8,0 z"
       id="path1793-6" />
    <path
       style="fill:#e92063;fill-opacity:1"
       d="m 527.18,1051.9172 a 4.9,4.9 0 1 0 9.8,0 4.9,4.9 0 1 0 -9.8,0 z"
       id="path1791-2" />
    <path
       style="fill:#e92063;fill-opacity:1"
       d="m 315,1076.4172 a 4.9,4.9 0 1 0 9.8,0 4.9,4.9 0 1 0 -9.8,0 z"
       id="path1703-9" />
    <path
       style="fill:#e92063;fill-opacity:1"
       d="m 315,1125.4172 a 4.9,4.9 0 1 0 9.8,0 4.9,4.9 0 1 0 -9.8,0 z"
       id="path1701-1" />
    <path
       style="fill:#e92063;fill-opacity:1"
       d="m 357.43,1130.7098 a 4.9,4.9 0 1 0 9.8,0 4.9,4.9 0 1 0 -9.8,0 z"
       id="path1699-2" />
    <path
       style="fill:#e92063;fill-opacity:1"
       d="m 399.87,1125.4172 a 4.9,4.9 0 1 0 9.8,0 4.9,4.9 0 1 0 -9.8,0 z"
       id="path1697-7" />
    <path
       style="fill:#e92063;fill-opacity:1"
       d="m 399.87,1076.4172 a 4.9,4.9 0 1 0 9.8,0 4.9,4.9 0 1 0 -9.8,0 z"
       id="path1695-0" />
    <path
       style="fill:#e92063;fill-opacity:1"
       d="m 357.43,1051.9172 a 4.9,4.9 0 1 0 9.8,0 4.9,4.9 0 1 0 -9.8,0 z"
       id="path1693-9" />
    <path
       style="fill:#e92063;fill-opacity:1"
       d="m 230.53,731.14 a 4.9,4.9 0 1 0 9.8,0 4.9,4.9 0 1 0 -9.8,0 z"
       id="path1691" />
    <path
       style="fill:#e92063;fill-opacity:1"
       d="m 230.53,780.14 a 4.9,4.9 0 1 0 9.8,0 4.9,4.9 0 1 0 -9.8,0 z"
       id="path1689" />
    <path
       style="fill:#e92063;fill-opacity:1"
       d="m 272.97,804.64 a 4.9,4.9 0 1 0 9.8,0 4.9,4.9 0 1 0 -9.8,0 z"
       id="path1687" />
    <path
       style="fill:#e92063;fill-opacity:1"
       d="m 315.41,780.14 a 4.9,4.9 0 1 0 9.8,0 4.9,4.9 0 1 0 -9.8,0 z"
       id="path1685" />
    <path
       style="fill:#e92063;fill-opacity:1"
       d="m 272.97,657.64 a 4.9,4.9 0 1 0 9.8,0 4.9,4.9 0 1 0 -9.8,0 z"
       id="path1683" />
    <path
       style="fill:#e92063;fill-opacity:1"
       d="m 272.97,706.64 a 4.9,4.9 0 1 0 9.8,0 4.9,4.9 0 1 0 -9.8,0 z"
       id="path1681" />
    <path
       style="fill:#e92063;fill-opacity:1"
       d="m 315.41,731.14 a 4.9,4.9 0 1 0 9.8,0 4.9,4.9 0 1 0 -9.8,0 z"
       id="path1679" />
    <path
       style="fill:#e92063;fill-opacity:1"
       d="m 357.84,706.64 a 4.9,4.9 0 1 0 9.8,0 4.9,4.9 0 1 0 -9.8,0 z"
       id="path1677" />
    <path
       style="fill:#e92063;fill-opacity:1"
       d="m 357.84,657.64 a 4.9,4.9 0 1 0 9.8,0 4.9,4.9 0 1 0 -9.8,0 z"
       id="path1675" />
    <path
       style="fill:#e92063;fill-opacity:1"
       d="m 315.41,633.14 a 4.9,4.9 0 1 0 9.8,0 4.9,4.9 0 1 0 -9.8,0 z"
       id="path1673" />
    <path
       style="fill:#e92063;fill-opacity:1"
       d="m 315.41,290.14 a 4.9,4.9 0 1 0 9.8,0 4.9,4.9 0 1 0 -9.8,0 z"
       id="path1671" />
    <path
       style="fill:#e92063;fill-opacity:1"
       d="m 357.84,265.64 a 4.9,4.9 0 1 0 9.8,0 4.9,4.9 0 1 0 -9.8,0 z"
       id="path1669" />
    <path
       style="fill:#e92063;fill-opacity:1"
       d="m 357.84,216.64 a 4.9,4.9 0 1 0 9.8,0 4.9,4.9 0 1 0 -9.8,0 z"
       id="path1667" />
    <path
       style="fill:#e92063;fill-opacity:1"
       d="m 315.41,192.14 a 4.9,4.9 0 1 0 9.8,0 4.9,4.9 0 1 0 -9.8,0 z"
       id="path1665" />
    <path
       style="fill:#e92063;fill-opacity:1"
       d="m 145.66,290.14 a 4.9,4.9 0 1 0 9.8,0 4.9,4.9 0 1 0 -9.8,0 z"
       id="path1663" />
    <path
       style="fill:#e92063;fill-opacity:1"
       d="m 230.53,339.14 a 4.9,4.9 0 1 0 9.8,0 4.9,4.9 0 1 0 -9.8,0 z"
       id="path1661" />
    <path
       style="fill:#e92063;fill-opacity:1"
       d="m 188.1,216.64 a 4.9,4.9 0 1 0 9.8,0 4.9,4.9 0 1 0 -9.8,0 z"
       id="path1659" />
    <path
       style="fill:#e92063;fill-opacity:1"
       d="m 188.1,265.64 a 4.9,4.9 0 1 0 9.8,0 4.9,4.9 0 1 0 -9.8,0 z"
       id="path1657" />
    <path
       style="fill:#e92063;fill-opacity:1"
       d="m 230.53,290.14 a 4.9,4.9 0 1 0 9.8,0 4.9,4.9 0 1 0 -9.8,0 z"
       id="path1655" />
    <path
       style="fill:#e92063;fill-opacity:1"
       d="m 272.97,265.64 a 4.9,4.9 0 1 0 9.8,0 4.9,4.9 0 1 0 -9.8,0 z"
       id="path1653" />
    <path
       style="fill:#e92063;fill-opacity:1"
       d="m 272.97,216.64 a 4.9,4.9 0 1 0 9.8,0 4.9,4.9 0 1 0 -9.8,0 z"
       id="path1651" />
    <path
       style="fill:#e92063;fill-opacity:1"
       d="m 230.53,192.14 a 4.9,4.9 0 1 0 9.8,0 4.9,4.9 0 1 0 -9.8,0 z"
       id="path1649" />
    <path
       style="fill:#e92063;fill-opacity:1"
       d="m 103.22,363.64 a 4.9,4.9 0 1 0 9.8,0 4.9,4.9 0 1 0 -9.8,0 z"
       id="path1631" />
    <path
       style="fill:#e92063;fill-opacity:1"
       d="m 103.22,412.64 a 4.9,4.9 0 1 0 9.8,0 4.9,4.9 0 1 0 -9.8,0 z"
       id="path1629" />
    <path
       style="fill:#e92063;fill-opacity:1"
       d="m 145.66,437.14 a 4.9,4.9 0 1 0 9.8,0 4.9,4.9 0 1 0 -9.8,0 z"
       id="path1627" />
    <path
       style="fill:#e92063;fill-opacity:1"
       d="m 188.1,412.64 a 4.9,4.9 0 1 0 9.8,0 4.9,4.9 0 1 0 -9.8,0 z"
       id="path1625" />
    <path
       style="fill:#e92063;fill-opacity:1"
       d="m 188.1,363.64 a 4.9,4.9 0 1 0 9.8,0 4.9,4.9 0 1 0 -9.8,0 z"
       id="path1623" />
    <path
       style="fill:#e92063;fill-opacity:1"
       d="m 145.66,339.14 a 4.9,4.9 0 1 0 9.8,0 4.9,4.9 0 1 0 -9.8,0 z"
       id="path1621" />
  </g>
  <defs
     id="defs895">
    <mask
       id="SvgjsMask1114">
      <rect
         width="600"
         height="1080"
         fill="#ffffff"
         id="rect892"
         x="0"
         y="0" />
    </mask>
  </defs>
</svg>
