<?xml version="1.0" encoding="UTF-8" standalone="no"?>
<svg
   version="1.1"
   width="496.78"
   height="1080"
   preserveAspectRatio="none"
   viewBox="0 0 496.78 1080"
   id="svg897"
   xmlns="http://www.w3.org/2000/svg"
   xmlns:svg="http://www.w3.org/2000/svg">
  <g
     mask="url(#SvgjsMask1114)"
     fill="none"
     id="g890"
     transform="translate(-103.22)">
    <path
       style="fill:none;stroke:#e92063;stroke-opacity:1"
       d="m 40.12099,337.09455 -42.4300001,-24.5 v -49 l 42.4300001,-24.5 42.44,24.5 v 49 z"
       id="path1553" />
    <path
       style="fill:none;stroke:#e92063;stroke-opacity:1"
       d="m 40.12099,484.09455 -42.4300001,-24.5 v -49 l 42.4300001,-24.5 42.44,24.5 v 49 z"
       id="path1551" />
    <path
       style="fill:none;stroke:#e92063;stroke-opacity:1"
       d="m 82.56099,557.59455 -42.44,-24.5 v -49 l 42.44,-24.5 42.44,24.5 v 49 z"
       id="path1549" />
    <path
       style="fill:none;stroke:#e92063;stroke-opacity:1"
       d="m 40.12099,778.09455 -42.4300001,-24.5 v -49 l 42.4300001,-24.5 42.44,24.5 v 49 z"
       id="path1547" />
    <path
       style="fill:none;stroke:#e92063;stroke-opacity:1"
       d="m 40.12099,925.09455 -42.4300001,-24.5 v -49 l 42.4300001,-24.5 42.44,24.5 v 49 z"
       id="path1545" />
    <path
       style="fill:none;stroke:#e92063;stroke-opacity:1"
       d="m 82.56099,998.59455 -42.44,-24.5 v -49 l 42.44,-24.5 42.44,24.5 v 49 z"
       id="path1543" />
    <path
       style="fill:none;stroke:#e92063;stroke-opacity:1"
       d="m 125.00099,190.09455 -42.44,-24.5 v -49 l 42.44,-24.499999 42.43,24.499999 v 49 z"
       id="path1541" />
    <path
       style="fill:none;stroke:#e92063;stroke-opacity:1"
       d="m 125.00099,337.09455 -42.44,-24.5 v -49 l 42.44,-24.5 42.43,24.5 v 49 z"
       id="path1539" />
    <path
       style="fill:none;stroke:#e92063;stroke-opacity:1"
       d="m 125.00099,484.09455 -42.44,-24.5 v -49 l 42.44,-24.5 42.43,24.5 v 49 z"
       id="path1537" />
    <path
       style="fill:none;stroke:#e92063;stroke-opacity:1"
       d="m 125.00099,778.09455 -42.44,-24.5 v -49 l 42.44,-24.5 42.43,24.5 v 49 z"
       id="path1535" />
    <path
       style="fill:none;stroke:#e92063;stroke-opacity:1"
       d="m 167.43099,851.59455 -42.43,-24.5 v -49 l 42.43,-24.5 42.44,24.5 v 49 z"
       id="path1533" />
    <path
       style="fill:none;stroke:#e92063;stroke-opacity:1"
       d="m 167.43099,998.59455 -42.43,-24.5 v -49 l 42.43,-24.5 42.44,24.5 v 49 z"
       id="path1531" />
    <path
       style="fill:none;stroke:#e92063;stroke-opacity:1"
       d="m 167.43099,1145.5946 -42.43,-24.5 v -49 l 42.43,-24.5 42.44,24.5 v 49 z"
       id="path1529" />
    <path
       style="fill:none;stroke:#e92063;stroke-opacity:1"
       d="m 209.87099,484.09455 -42.44,-24.5 v -49 l 42.44,-24.5 42.44,24.5 v 49 z"
       id="path1527" />
    <path
       style="fill:none;stroke:#e92063;stroke-opacity:1"
       d="m 252.31099,557.59455 -42.44,-24.5 v -49 l 42.44,-24.5 42.43,24.5 v 49 z"
       id="path1525" />
    <path
       style="fill:none;stroke:#e92063;stroke-opacity:1"
       d="m 209.87099,631.09455 -42.44,-24.5 v -49 l 42.44,-24.5 42.44,24.5 v 49 z"
       id="path1523" />
    <path
       style="fill:none;stroke:#e92063;stroke-opacity:1"
       d="m 252.31099,704.59455 -42.44,-24.5 v -49 l 42.44,-24.5 42.43,24.5 v 49 z"
       id="path1521" />
    <path
       style="fill:none;stroke:#e92063;stroke-opacity:1"
       d="m 209.87099,778.09455 -42.44,-24.5 v -49 l 42.44,-24.5 42.44,24.5 v 49 z"
       id="path1519" />
    <path
       style="fill:none;stroke:#e92063;stroke-opacity:1"
       d="m 252.31099,851.59455 -42.44,-24.5 v -49 l 42.44,-24.5 42.43,24.5 v 49 z"
       id="path1517" />
    <path
       style="fill:none;stroke:#e92063;stroke-opacity:1"
       d="m 337.18099,410.59455 -42.44,-24.5 v -49 l 42.44,-24.5 42.43,24.5 v 49 z"
       id="path1515" />
    <path
       style="fill:none;stroke:#e92063;stroke-opacity:1"
       d="m 337.18099,1145.5946 -42.44,-24.5 v -49 l 42.44,-24.5 42.43,24.5 v 49 z"
       id="path1513" />
    <path
       style="fill:#e92063;fill-opacity:1"
       d="m 45.02099,239.09455 a 4.9,4.9 0 1 0 -9.8,0 4.9,4.9 0 1 0 9.8,0 z"
       id="path1903" />
    <path
       style="fill:#e92063;fill-opacity:1"
       d="m 2.5909899,263.59455 a 4.9,4.9 0 1 0 -9.8,0 4.9,4.9 0 1 0 9.8,0 z"
       id="path1901" />
    <path
       style="fill:#e92063;fill-opacity:1"
       d="m 2.5909899,312.59455 a 4.9,4.9 0 1 0 -9.8,0 4.9,4.9 0 1 0 9.8,0 z"
       id="path1899" />
    <path
       style="fill:#e92063;fill-opacity:1"
       d="m 45.02099,337.09455 a 4.9,4.9 0 1 0 -9.8,0 4.9,4.9 0 1 0 9.8,0 z"
       id="path1897" />
    <path
       style="fill:#e92063;fill-opacity:1"
       d="m 45.02099,386.09455 a 4.9,4.9 0 1 0 -9.8,0 4.9,4.9 0 1 0 9.8,0 z"
       id="path1895" />
    <path
       style="fill:#e92063;fill-opacity:1"
       d="m 2.5909899,410.59455 a 4.9,4.9 0 1 0 -9.8,0 4.9,4.9 0 1 0 9.8,0 z"
       id="path1893" />
    <path
       style="fill:#e92063;fill-opacity:1"
       d="m 2.5909899,459.59455 a 4.9,4.9 0 1 0 -9.8,0 4.9,4.9 0 1 0 9.8,0 z"
       id="path1891" />
    <path
       style="fill:#e92063;fill-opacity:1"
       d="m 129.90099,533.09455 a 4.9,4.9 0 1 0 -9.8,0 4.9,4.9 0 1 0 9.8,0 z"
       id="path1889" />
    <path
       style="fill:#e92063;fill-opacity:1"
       d="m 45.02099,484.09455 a 4.9,4.9 0 1 0 -9.8,0 4.9,4.9 0 1 0 9.8,0 z"
       id="path1887" />
    <path
       style="fill:#e92063;fill-opacity:1"
       d="m 45.02099,533.09455 a 4.9,4.9 0 1 0 -9.8,0 4.9,4.9 0 1 0 9.8,0 z"
       id="path1885" />
    <path
       style="fill:#e92063;fill-opacity:1"
       d="m 87.46099,557.59455 a 4.9,4.9 0 1 0 -9.8,0 4.9,4.9 0 1 0 9.8,0 z"
       id="path1883" />
    <path
       style="fill:#e92063;fill-opacity:1"
       d="m 45.02099,680.09455 a 4.9,4.9 0 1 0 -9.8,0 4.9,4.9 0 1 0 9.8,0 z"
       id="path1881" />
    <path
       style="fill:#e92063;fill-opacity:1"
       d="m 2.5909899,704.59455 a 4.9,4.9 0 1 0 -9.8,0 4.9,4.9 0 1 0 9.8,0 z"
       id="path1879" />
    <path
       style="fill:#e92063;fill-opacity:1"
       d="m 2.5909899,753.59455 a 4.9,4.9 0 1 0 -9.8,0 4.9,4.9 0 1 0 9.8,0 z"
       id="path1877" />
    <path
       style="fill:#e92063;fill-opacity:1"
       d="m 45.02099,778.09455 a 4.9,4.9 0 1 0 -9.8,0 4.9,4.9 0 1 0 9.8,0 z"
       id="path1875" />
    <path
       style="fill:#e92063;fill-opacity:1"
       d="m 87.46099,851.59455 a 4.9,4.9 0 1 0 -9.8,0 4.9,4.9 0 1 0 9.8,0 z"
       id="path1873" />
    <path
       style="fill:#e92063;fill-opacity:1"
       d="m 45.02099,827.09455 a 4.9,4.9 0 1 0 -9.8,0 4.9,4.9 0 1 0 9.8,0 z"
       id="path1871" />
    <path
       style="fill:#e92063;fill-opacity:1"
       d="m 2.5909899,851.59455 a 4.9,4.9 0 1 0 -9.8,0 4.9,4.9 0 1 0 9.8,0 z"
       id="path1869" />
    <path
       style="fill:#e92063;fill-opacity:1"
       d="m 2.5909899,900.59455 a 4.9,4.9 0 1 0 -9.8,0 4.9,4.9 0 1 0 9.8,0 z"
       id="path1867" />
    <path
       style="fill:#e92063;fill-opacity:1"
       d="m 87.46099,900.59455 a 4.9,4.9 0 1 0 -9.8,0 4.9,4.9 0 1 0 9.8,0 z"
       id="path1865" />
    <path
       style="fill:#e92063;fill-opacity:1"
       d="m 45.02099,925.09455 a 4.9,4.9 0 1 0 -9.8,0 4.9,4.9 0 1 0 9.8,0 z"
       id="path1863" />
    <path
       style="fill:#e92063;fill-opacity:1"
       d="m 45.02099,974.09455 a 4.9,4.9 0 1 0 -9.8,0 4.9,4.9 0 1 0 9.8,0 z"
       id="path1861" />
    <path
       style="fill:#e92063;fill-opacity:1"
       d="m 87.46099,998.59455 a 4.9,4.9 0 1 0 -9.8,0 4.9,4.9 0 1 0 9.8,0 z"
       id="path1859" />
    <path
       style="fill:#e92063;fill-opacity:1"
       d="m 172.33099,165.59455 a 4.9,4.9 0 1 0 -9.8,0 4.9,4.9 0 1 0 9.8,0 z"
       id="path1857" />
    <path
       style="fill:#e92063;fill-opacity:1"
       d="m 172.33099,116.59455 a 4.9,4.9 0 1 0 -9.8,0 4.9,4.9 0 1 0 9.8,0 z"
       id="path1855" />
    <path
       style="fill:#e92063;fill-opacity:1"
       d="m 129.90099,92.094551 a 4.9,4.9 0 1 0 -9.8,0 4.9,4.9 0 1 0 9.8,0 z"
       id="path1853" />
    <path
       style="fill:#e92063;fill-opacity:1"
       d="m 87.46099,116.59455 a 4.9,4.9 0 1 0 -9.8,0 4.9,4.9 0 1 0 9.8,0 z"
       id="path1851" />
    <path
       style="fill:#e92063;fill-opacity:1"
       d="m 87.46099,165.59455 a 4.9,4.9 0 1 0 -9.8,0 4.9,4.9 0 1 0 9.8,0 z"
       id="path1849" />
    <path
       style="fill:#e92063;fill-opacity:1"
       d="m 129.90099,190.09455 a 4.9,4.9 0 1 0 -9.8,0 4.9,4.9 0 1 0 9.8,0 z"
       id="path1847" />
    <path
       style="fill:#e92063;fill-opacity:1"
       d="m 172.33099,312.59455 a 4.9,4.9 0 1 0 -9.8,0 4.9,4.9 0 1 0 9.8,0 z"
       id="path1845" />
    <path
       style="fill:#e92063;fill-opacity:1"
       d="m 172.33099,263.59455 a 4.9,4.9 0 1 0 -9.8,0 4.9,4.9 0 1 0 9.8,0 z"
       id="path1843" />
    <path
       style="fill:#e92063;fill-opacity:1"
       d="m 129.90099,239.09455 a 4.9,4.9 0 1 0 -9.8,0 4.9,4.9 0 1 0 9.8,0 z"
       id="path1841" />
    <path
       style="fill:#e92063;fill-opacity:1"
       d="m 87.46099,263.59455 a 4.9,4.9 0 1 0 -9.8,0 4.9,4.9 0 1 0 9.8,0 z"
       id="path1839" />
    <path
       style="fill:#e92063;fill-opacity:1"
       d="m 87.46099,312.59455 a 4.9,4.9 0 1 0 -9.8,0 4.9,4.9 0 1 0 9.8,0 z"
       id="path1837" />
    <path
       style="fill:#e92063;fill-opacity:1"
       d="m 129.90099,337.09455 a 4.9,4.9 0 1 0 -9.8,0 4.9,4.9 0 1 0 9.8,0 z"
       id="path1835" />
    <path
       style="fill:#e92063;fill-opacity:1"
       d="m 129.90099,386.09455 a 4.9,4.9 0 1 0 -9.8,0 4.9,4.9 0 1 0 9.8,0 z"
       id="path1833" />
    <path
       style="fill:#e92063;fill-opacity:1"
       d="m 87.46099,410.59455 a 4.9,4.9 0 1 0 -9.8,0 4.9,4.9 0 1 0 9.8,0 z"
       id="path1831" />
    <path
       style="fill:#e92063;fill-opacity:1"
       d="m 87.46099,459.59455 a 4.9,4.9 0 1 0 -9.8,0 4.9,4.9 0 1 0 9.8,0 z"
       id="path1829" />
    <path
       style="fill:#e92063;fill-opacity:1"
       d="m 129.90099,484.09455 a 4.9,4.9 0 1 0 -9.8,0 4.9,4.9 0 1 0 9.8,0 z"
       id="path1827" />
    <path
       style="fill:#e92063;fill-opacity:1"
       d="m 129.90099,680.09455 a 4.9,4.9 0 1 0 -9.8,0 4.9,4.9 0 1 0 9.8,0 z"
       id="path1825" />
    <path
       style="fill:#e92063;fill-opacity:1"
       d="m 87.46099,704.59455 a 4.9,4.9 0 1 0 -9.8,0 4.9,4.9 0 1 0 9.8,0 z"
       id="path1823" />
    <path
       style="fill:#e92063;fill-opacity:1"
       d="m 87.46099,753.59455 a 4.9,4.9 0 1 0 -9.8,0 4.9,4.9 0 1 0 9.8,0 z"
       id="path1821" />
    <path
       style="fill:#e92063;fill-opacity:1"
       d="m 129.90099,778.09455 a 4.9,4.9 0 1 0 -9.8,0 4.9,4.9 0 1 0 9.8,0 z"
       id="path1819" />
    <path
       style="fill:#e92063;fill-opacity:1"
       d="m 129.90099,827.09455 a 4.9,4.9 0 1 0 -9.8,0 4.9,4.9 0 1 0 9.8,0 z"
       id="path1817" />
    <path
       style="fill:#e92063;fill-opacity:1"
       d="m 172.33099,851.59455 a 4.9,4.9 0 1 0 -9.8,0 4.9,4.9 0 1 0 9.8,0 z"
       id="path1815" />
    <path
       style="fill:#e92063;fill-opacity:1"
       d="m 214.77099,974.09455 a 4.9,4.9 0 1 0 -9.8,0 4.9,4.9 0 1 0 9.8,0 z"
       id="path1813" />
    <path
       style="fill:#e92063;fill-opacity:1"
       d="m 214.77099,925.09455 a 4.9,4.9 0 1 0 -9.8,0 4.9,4.9 0 1 0 9.8,0 z"
       id="path1811" />
    <path
       style="fill:#e92063;fill-opacity:1"
       d="m 172.33099,900.59455 a 4.9,4.9 0 1 0 -9.8,0 4.9,4.9 0 1 0 9.8,0 z"
       id="path1809" />
    <path
       style="fill:#e92063;fill-opacity:1"
       d="m 129.90099,925.09455 a 4.9,4.9 0 1 0 -9.8,0 4.9,4.9 0 1 0 9.8,0 z"
       id="path1807" />
    <path
       style="fill:#e92063;fill-opacity:1"
       d="m 129.90099,974.09455 a 4.9,4.9 0 1 0 -9.8,0 4.9,4.9 0 1 0 9.8,0 z"
       id="path1805" />
    <path
       style="fill:none;stroke:#e92063;stroke-opacity:1"
       d="m 167.84099,65.317351 -42.43,-24.5 V -8.1826489 l 42.43,-24.5000001 42.44,24.5000001 V 40.817351 Z"
       id="path1529-3" />
    <path
       style="fill:#e92063;fill-opacity:1"
       d="m 172.33099,998.59455 a 4.9,4.9 0 1 0 -9.8,0 4.9,4.9 0 1 0 9.8,0 z"
       id="path1803" />
    <path
       style="fill:#e92063;fill-opacity:1"
       d="m 214.77099,1121.0946 a 4.9,4.9 0 1 0 -9.8,0 4.9,4.9 0 1 0 9.8,0 z"
       id="path1801" />
    <path
       style="fill:#e92063;fill-opacity:1"
       d="m 214.77099,1072.0946 a 4.9,4.9 0 1 0 -9.8,0 4.9,4.9 0 1 0 9.8,0 z"
       id="path1799" />
    <path
       style="fill:none;stroke:#e92063;stroke-opacity:1"
       d="m 337.59099,65.317351 -42.44,-24.5 V -8.1826489 l 42.44,-24.5000001 42.43,24.5000001 V 40.817351 Z"
       id="path1513-6" />
    <path
       style="fill:#e92063;fill-opacity:1"
       d="m 172.33099,1047.5946 a 4.9,4.9 0 1 0 -9.8,0 4.9,4.9 0 1 0 9.8,0 z"
       id="path1797" />
    <path
       style="fill:#e92063;fill-opacity:1"
       d="m 129.90099,1072.0946 a 4.9,4.9 0 1 0 -9.8,0 4.9,4.9 0 1 0 9.8,0 z"
       id="path1795" />
    <path
       style="fill:#e92063;fill-opacity:1"
       d="m 129.90099,1121.0946 a 4.9,4.9 0 1 0 -9.8,0 4.9,4.9 0 1 0 9.8,0 z"
       id="path1793" />
    <path
       style="fill:#e92063;fill-opacity:1"
       d="m 172.33099,1145.5946 a 4.9,4.9 0 1 0 -9.8,0 4.9,4.9 0 1 0 9.8,0 z"
       id="path1791" />
    <path
       style="fill:#e92063;fill-opacity:1"
       d="m 257.21099,410.59455 a 4.9,4.9 0 1 0 -9.8,0 4.9,4.9 0 1 0 9.8,0 z"
       id="path1785" />
    <path
       style="fill:#e92063;fill-opacity:1"
       d="m 214.77099,386.09455 a 4.9,4.9 0 1 0 -9.8,0 4.9,4.9 0 1 0 9.8,0 z"
       id="path1783" />
    <path
       style="fill:#e92063;fill-opacity:1"
       d="m 172.33099,410.59455 a 4.9,4.9 0 1 0 -9.8,0 4.9,4.9 0 1 0 9.8,0 z"
       id="path1781" />
    <path
       style="fill:#e92063;fill-opacity:1"
       d="m 172.33099,459.59455 a 4.9,4.9 0 1 0 -9.8,0 4.9,4.9 0 1 0 9.8,0 z"
       id="path1779" />
    <path
       style="fill:#e92063;fill-opacity:1"
       d="m 299.64099,533.09455 a 4.9,4.9 0 1 0 -9.8,0 4.9,4.9 0 1 0 9.8,0 z"
       id="path1777" />
    <path
       style="fill:#e92063;fill-opacity:1"
       d="m 299.64099,484.09455 a 4.9,4.9 0 1 0 -9.8,0 4.9,4.9 0 1 0 9.8,0 z"
       id="path1775" />
    <path
       style="fill:#e92063;fill-opacity:1"
       d="m 257.21099,459.59455 a 4.9,4.9 0 1 0 -9.8,0 4.9,4.9 0 1 0 9.8,0 z"
       id="path1773" />
    <path
       style="fill:#e92063;fill-opacity:1"
       d="m 214.77099,484.09455 a 4.9,4.9 0 1 0 -9.8,0 4.9,4.9 0 1 0 9.8,0 z"
       id="path1771" />
    <path
       style="fill:#e92063;fill-opacity:1"
       d="m 257.21099,557.59455 a 4.9,4.9 0 1 0 -9.8,0 4.9,4.9 0 1 0 9.8,0 z"
       id="path1769" />
    <path
       style="fill:#e92063;fill-opacity:1"
       d="m 214.77099,533.09455 a 4.9,4.9 0 1 0 -9.8,0 4.9,4.9 0 1 0 9.8,0 z"
       id="path1767" />
    <path
       style="fill:#e92063;fill-opacity:1"
       d="m 172.33099,557.59455 a 4.9,4.9 0 1 0 -9.8,0 4.9,4.9 0 1 0 9.8,0 z"
       id="path1765" />
    <path
       style="fill:#e92063;fill-opacity:1"
       d="m 172.33099,606.59455 a 4.9,4.9 0 1 0 -9.8,0 4.9,4.9 0 1 0 9.8,0 z"
       id="path1763" />
    <path
       style="fill:#e92063;fill-opacity:1"
       d="m 299.64099,680.09455 a 4.9,4.9 0 1 0 -9.8,0 4.9,4.9 0 1 0 9.8,0 z"
       id="path1761" />
    <path
       style="fill:#e92063;fill-opacity:1"
       d="m 299.64099,631.09455 a 4.9,4.9 0 1 0 -9.8,0 4.9,4.9 0 1 0 9.8,0 z"
       id="path1759" />
    <path
       style="fill:#e92063;fill-opacity:1"
       d="m 257.21099,606.59455 a 4.9,4.9 0 1 0 -9.8,0 4.9,4.9 0 1 0 9.8,0 z"
       id="path1757" />
    <path
       style="fill:#e92063;fill-opacity:1"
       d="m 214.77099,631.09455 a 4.9,4.9 0 1 0 -9.8,0 4.9,4.9 0 1 0 9.8,0 z"
       id="path1755" />
    <path
       style="fill:#e92063;fill-opacity:1"
       d="m 257.21099,704.59455 a 4.9,4.9 0 1 0 -9.8,0 4.9,4.9 0 1 0 9.8,0 z"
       id="path1753" />
    <path
       style="fill:#e92063;fill-opacity:1"
       d="m 214.77099,680.09455 a 4.9,4.9 0 1 0 -9.8,0 4.9,4.9 0 1 0 9.8,0 z"
       id="path1751" />
    <path
       style="fill:#e92063;fill-opacity:1"
       d="m 172.33099,704.59455 a 4.9,4.9 0 1 0 -9.8,0 4.9,4.9 0 1 0 9.8,0 z"
       id="path1749" />
    <path
       style="fill:#e92063;fill-opacity:1"
       d="m 172.33099,753.59455 a 4.9,4.9 0 1 0 -9.8,0 4.9,4.9 0 1 0 9.8,0 z"
       id="path1747" />
    <path
       style="fill:#e92063;fill-opacity:1"
       d="m 299.64099,827.09455 a 4.9,4.9 0 1 0 -9.8,0 4.9,4.9 0 1 0 9.8,0 z"
       id="path1745" />
    <path
       style="fill:#e92063;fill-opacity:1"
       d="m 299.64099,778.09455 a 4.9,4.9 0 1 0 -9.8,0 4.9,4.9 0 1 0 9.8,0 z"
       id="path1743" />
    <path
       style="fill:#e92063;fill-opacity:1"
       d="m 257.21099,753.59455 a 4.9,4.9 0 1 0 -9.8,0 4.9,4.9 0 1 0 9.8,0 z"
       id="path1741" />
    <path
       style="fill:#e92063;fill-opacity:1"
       d="m 214.77099,778.09455 a 4.9,4.9 0 1 0 -9.8,0 4.9,4.9 0 1 0 9.8,0 z"
       id="path1739" />
    <path
       style="fill:#e92063;fill-opacity:1"
       d="m 214.77099,827.09455 a 4.9,4.9 0 1 0 -9.8,0 4.9,4.9 0 1 0 9.8,0 z"
       id="path1737" />
    <path
       style="fill:#e92063;fill-opacity:1"
       d="m 257.21099,851.59455 a 4.9,4.9 0 1 0 -9.8,0 4.9,4.9 0 1 0 9.8,0 z"
       id="path1735" />
    <path
       style="fill:#e92063;fill-opacity:1"
       d="m 342.08099,312.59455 a 4.9,4.9 0 1 0 -9.8,0 4.9,4.9 0 1 0 9.8,0 z"
       id="path1709" />
    <path
       style="fill:#e92063;fill-opacity:1"
       d="m 299.64099,337.09455 a 4.9,4.9 0 1 0 -9.8,0 4.9,4.9 0 1 0 9.8,0 z"
       id="path1707" />
    <path
       style="fill:#e92063;fill-opacity:1"
       d="m 299.64099,386.09455 a 4.9,4.9 0 1 0 -9.8,0 4.9,4.9 0 1 0 9.8,0 z"
       id="path1705" />
    <path
       style="fill:#e92063;fill-opacity:1"
       d="m 384.51099,1121.0946 a 4.9,4.9 0 1 0 -9.8,0 4.9,4.9 0 1 0 9.8,0 z"
       id="path1703" />
    <path
       style="fill:#e92063;fill-opacity:1"
       d="m 384.51099,1072.0946 a 4.9,4.9 0 1 0 -9.8,0 4.9,4.9 0 1 0 9.8,0 z"
       id="path1701" />
    <path
       style="fill:#e92063;fill-opacity:1"
       d="m 215.18099,40.817351 a 4.9,4.9 0 1 0 -9.8,0 4.9,4.9 0 1 0 9.8,0 z"
       id="path1801-7" />
    <path
       style="fill:#e92063;fill-opacity:1"
       d="m 342.08099,1047.5946 a 4.9,4.9 0 1 0 -9.8,0 4.9,4.9 0 1 0 9.8,0 z"
       id="path1699" />
    <path
       style="fill:#e92063;fill-opacity:1"
       d="m 299.64099,1072.0946 a 4.9,4.9 0 1 0 -9.8,0 4.9,4.9 0 1 0 9.8,0 z"
       id="path1697" />
    <path
       style="fill:#e92063;fill-opacity:1"
       d="m 299.64099,1121.0946 a 4.9,4.9 0 1 0 -9.8,0 4.9,4.9 0 1 0 9.8,0 z"
       id="path1695" />
    <path
       style="fill:#e92063;fill-opacity:1"
       d="m 342.08099,1145.5946 a 4.9,4.9 0 1 0 -9.8,0 4.9,4.9 0 1 0 9.8,0 z"
       id="path1693" />
    <path
       style="fill:#e92063;fill-opacity:1"
       d="m 215.18099,-8.1826489 a 4.9,4.9 0 1 0 -9.8,0 4.9,4.9 0 1 0 9.8,0 z"
       id="path1799-5" />
    <path
       style="fill:#e92063;fill-opacity:1"
       d="m 172.74099,-13.475249 a 4.9,4.9 0 1 0 -9.8,0 4.9,4.9 0 1 0 9.8,0 z"
       id="path1797-3" />
    <path
       style="fill:#e92063;fill-opacity:1"
       d="m 130.31099,-8.1826489 a 4.9,4.9 0 1 0 -9.8,0 4.9,4.9 0 1 0 9.8,0 z"
       id="path1795-5" />
    <path
       style="fill:#e92063;fill-opacity:1"
       d="m 130.31099,40.817351 a 4.9,4.9 0 1 0 -9.8,0 4.9,4.9 0 1 0 9.8,0 z"
       id="path1793-6" />
    <path
       style="fill:#e92063;fill-opacity:1"
       d="m 172.74099,65.317351 a 4.9,4.9 0 1 0 -9.8,0 4.9,4.9 0 1 0 9.8,0 z"
       id="path1791-2" />
    <path
       style="fill:#e92063;fill-opacity:1"
       d="m 384.92099,40.817351 a 4.9,4.9 0 1 0 -9.8,0 4.9,4.9 0 1 0 9.8,0 z"
       id="path1703-9" />
    <path
       style="fill:#e92063;fill-opacity:1"
       d="m 384.92099,-8.1826489 a 4.9,4.9 0 1 0 -9.8,0 4.9,4.9 0 1 0 9.8,0 z"
       id="path1701-1" />
    <path
       style="fill:#e92063;fill-opacity:1"
       d="m 342.49099,-13.475249 a 4.9,4.9 0 1 0 -9.8,0 4.9,4.9 0 1 0 9.8,0 z"
       id="path1699-2" />
    <path
       style="fill:#e92063;fill-opacity:1"
       d="m 300.05099,-8.1826489 a 4.9,4.9 0 1 0 -9.8,0 4.9,4.9 0 1 0 9.8,0 z"
       id="path1697-7" />
    <path
       style="fill:#e92063;fill-opacity:1"
       d="m 300.05099,40.817351 a 4.9,4.9 0 1 0 -9.8,0 4.9,4.9 0 1 0 9.8,0 z"
       id="path1695-0" />
    <path
       style="fill:#e92063;fill-opacity:1"
       d="m 342.49099,65.317351 a 4.9,4.9 0 1 0 -9.8,0 4.9,4.9 0 1 0 9.8,0 z"
       id="path1693-9" />
    <path
       style="fill:#e92063;fill-opacity:1"
       d="m 384.51099,337.09455 a 4.9,4.9 0 1 0 -9.8,0 4.9,4.9 0 1 0 9.8,0 z"
       id="path1685" />
    <path
       style="fill:#e92063;fill-opacity:1"
       d="m 384.51099,386.09455 a 4.9,4.9 0 1 0 -9.8,0 4.9,4.9 0 1 0 9.8,0 z"
       id="path1679" />
    <path
       style="fill:#e92063;fill-opacity:1"
       d="m 342.08099,410.59455 a 4.9,4.9 0 1 0 -9.8,0 4.9,4.9 0 1 0 9.8,0 z"
       id="path1677" />
  </g>
  <defs
     id="defs895">
    <mask
       id="SvgjsMask1114">
      <rect
         width="600"
         height="1080"
         fill="#ffffff"
         id="rect892"
         x="0"
         y="0" />
    </mask>
  </defs>
</svg>
