<?xml version="1.0" encoding="UTF-8" standalone="no"?>
<!-- Created with Inkscape (http://www.inkscape.org/) -->

<svg
   version="1.1"
   id="svg2"
   xml:space="preserve"
   width="1066"
   height="1066"
   viewBox="0 0 1066 1066"
   xmlns="http://www.w3.org/2000/svg"
   xmlns:svg="http://www.w3.org/2000/svg"><defs
     id="defs6"><clipPath
       clipPathUnits="userSpaceOnUse"
       id="clipPath2612"><path
         d="m 7468.11,1098.04 h -2.43 l 0.09,0.63 0.54,0.54 h 6.93 l -1.26,20.88 0.54,0.63 0.54,-0.54 1.35,-21.51 -0.18,-0.45 -0.36,-0.18 h -5.76 m -17.46,26.01 -26.64,8.55 0.72,7.56 0.45,1.71 c -3.78,3.69 -6.57,8.28 -7.92,13.5 l -0.81,1.08 c 0,1.08 0,2.16 -0.09,3.24 0,0.36 0,0.63 -0.09,0.99 h -8.91 v 15.48 c -3.6,-0.72 -6.75,-0.72 -8.82,-0.54 -27.09,0.81 -63.27,4.59 -75.42,5.94 -2.52,0.27 -4.41,2.07 -4.95,4.41 l -0.81,3.87 c -0.54,2.7 1.53,5.4 4.41,5.58 7.11,0.63 20.7,1.89 39.78,4.5 l -0.18,0.09 0.9,0.81 c 2.52,1.89 9.18,6.93 12.24,6.84 1.71,-0.09 2.43,-0.27 2.52,-0.63 6.66,2.52 10.17,1.98 11.97,1.26 l -0.18,-0.9 c -1.44,-0.36 -2.79,-0.81 -4.05,-1.26 1.8,0.27 3.69,0.09 5.58,-0.9 0.18,-0.09 0.54,-0.45 0.54,-0.72 0.81,0.09 1.53,0.18 2.34,0.27 0.81,1.17 3.6,5.13 12.96,18.54 0.36,0.54 0.81,1.08 1.17,1.62 v 61.29 h 45.54 v 0.09 c -1.8,3.24 -2.79,7.02 -2.79,11.07 0,5.94 2.16,11.25 5.76,15.3 1.98,3.96 6.48,6.57 11.61,7.02 1.62,0.36 3.33,0.54 5.04,0.54 3.96,0 7.65,-0.99 10.8,-2.79 l 2.97,-0.54 c 0.45,-0.09 0.9,-0.27 1.26,-0.54 3.42,-0.09 6.03,-2.97 5.58,-6.12 2.88,-2.52 2.88,-8.37 1.89,-13.68 -0.09,-1.8 -0.36,-3.6 -0.81,-5.22 1.98,-1.8 2.16,-5.13 0.09,-7.74 -0.72,-0.9 -1.62,-1.62 -2.61,-2.07 0.45,-2.43 1.08,-4.5 0.36,-6.48 -0.54,-1.35 -1.26,-2.07 -1.98,-2.43 v -13.59 l 8.46,-5.4 -0.09,-0.09 c 1.35,-0.36 2.34,-0.45 3.78,-0.9 0.27,-0.09 0.54,-0.18 0.9,-0.27 l 0.54,1.62 7.11,-3.24 -0.36,-1.08 c 22.14,-9.72 33.12,-35.37 35.28,-40.05 l 0.54,0.18 0.45,-0.99 -2.07,-0.81 0.27,-0.72 c 2.07,-4.95 2.61,-10.44 1.26,-15.66 -2.16,-8.19 -6.75,-17.19 -12.24,-20.07 -0.45,-0.27 -0.9,-0.45 -1.35,-0.72 0.45,-4.95 0.9,-9.99 1.26,-14.94 0.54,-7.2 1.26,-17.1 1.89,-26.37 0.18,-2.7 -1.89,-4.86 -4.68,-4.86 h -2.16 c -4.95,0 -9.09,3.6 -9.72,8.46 v -0.09 l -28.89,-10.98 -39.6,1.98"
         clip-rule="evenodd"
         id="path2610" /></clipPath></defs><path
     style="fill:#abc3d5;fill-opacity:0.760784;stroke:none;stroke-width:1.41422px;stroke-linecap:butt;stroke-linejoin:miter;stroke-opacity:1"
     d="M 85.642877,1066 H 938.62672 c 0,0 193.44068,-620.69373 89.26868,-794.86492 C 766.36466,-166.13291 695.61412,475.76505 85.642877,1066 Z"
     id="path59231" /><rect
     style="opacity:0.760826;fill:#6d96b5;fill-opacity:0.991257;stroke:none;stroke-width:2.85536;stroke-linecap:round;stroke-linejoin:round;stop-color:#000000"
     id="rect56657"
     width="1066"
     height="1066"
     x="0"
     y="0" /><path
     d="m 849.10776,385.78362 c 0,0 85.0207,-21.77981 88.57914,-33.36008 3.55844,-11.58025 -177.03761,21.94022 -189.12741,31.98267 -12.09143,10.04339 87.15495,-0.12834 87.15495,-0.12834 0,0 -174.46674,19.42386 -147.88922,30.59804 14.25094,5.99123 55.84701,2.03978 91.37467,-2.91515 -29.29948,5.496 -58.25683,12.37848 -54.78647,17.62753 5.26594,7.96498 83.80059,-5.06334 119.41155,-11.43154 -8.22963,2.19411 -17.60384,5.79043 -23.83408,11.5626 -13.36064,12.37433 168.62095,-8.43579 169.99379,-25.52131 0.4973,-6.18331 -9.98473,-7.89043 -23.56393,-7.55351 9.90878,-2.40262 19.61909,-5.55827 27.74563,-9.70147 19.38992,-9.89051 -18.78329,-7.13251 -50.215,-3.66274 32.91099,-4.42616 77.17502,-11.28204 79.24592,-16.37837 3.3143,-8.15475 -174.08954,18.88167 -174.08954,18.88167"
     style="fill:#d6e9f4;fill-opacity:1;fill-rule:nonzero;stroke:none;stroke-width:0.133333"
     id="path16" /><path
     id="path1700"
     style="fill:#d6e9f4;fill-opacity:1;fill-rule:nonzero;stroke:none;stroke-width:0.26773"
     d="M 241.13477 282.88477 C 223.13521 282.88477 204.71576 294.4396 208.58984 321.86328 C 192.48849 296.43419 172.30931 286.76953 155.0918 286.76953 C 133.78951 286.76953 117.02098 301.56475 118.12109 319.59375 C 101.29393 320.0944 92.45147 325.01445 99.818359 337.56836 C 93.552915 335.58982 87.714163 334.73438 82.548828 334.73438 C 57.870717 334.73438 48.534861 354.27217 81.302734 364.25586 L 164.60742 364.25586 C 164.7801 364.32273 164.94451 364.39013 165.11719 364.45703 L 350.77148 364.45703 C 350.77148 364.45703 374.68022 328.59148 327.71484 326.0293 C 334.06541 300.87059 317.22807 290.91602 300.41992 290.91602 C 287.40016 290.91602 274.40096 296.8908 272.21094 306.39258 C 272.21094 291.67539 256.83184 282.88477 241.13477 282.88477 z " /><path
     d="M 710.84061,324.44074 H 513.84725 c -11.24166,0 -22.47461,-0.88166 -33.5591,-2.76233 -12.8657,-2.18033 -21.04267,-4.94698 -22.01185,-8.43899 -2.6849,-9.69422 10.35979,-12.1699 24.38242,-12.1699 5.48769,0 11.12817,0.37787 16.0352,0.85128 -26.85339,-3.98714 -82.32393,-14.96264 -84.2885,-37.78663 -0.99977,-11.59659 7.26889,-15.16244 17.82514,-15.16244 3.78942,0 7.87572,0.46041 11.93145,1.17269 -13.21061,-5.2597 -28.30281,-13.62488 -38.41376,-26.50276 -11.91399,-15.17111 6.32589,-22.25502 37.55808,-22.25502 25.52186,0 59.71402,4.72984 93.19889,13.64227 74.47445,19.81411 23.4176,49.10526 23.4176,49.10526 97.89205,0 127.26444,13.7856 106.99014,37.04826 8.64847,-0.67319 16.10072,-0.97724 22.5139,-0.97724 34.12667,0 38.62771,8.60407 34.78151,16.23089 -2.51029,4.98173 -7.76657,8.00466 -13.36776,8.00466"
     style="fill:#d6e9f4;fill-opacity:1;fill-rule:nonzero;stroke:none;stroke-width:0.435447"
     id="path1704" /><path
     d="m 758.16702,164.522 c -34.59941,0 -54.81836,-7.40006 -41.61952,-23.24851 11.20511,-13.45155 27.92681,-22.19162 42.56883,-27.68547 -4.49596,0.74464 -9.02116,1.22505 -13.2208,1.22505 -11.69531,0 -20.85914,-3.72663 -19.7507,-15.841598 210.10094,-151.544702 467.32067,-1.57669 161.23036,0 0,0 56.57064,30.600538 -25.94407,51.301158 -37.10894,9.30971 -74.98793,14.24937 -103.2641,14.24937"
     style="fill:#d6e9f4;fill-opacity:1;fill-rule:nonzero;stroke:none;stroke-width:0.177152"
     id="path1706" /><path
     id="path18"
     style="fill:#d6e9f4;fill-opacity:1;fill-rule:nonzero;stroke:none;stroke-width:0.183703"
     d="m 356.45579,42.625434 c 1.60115,0 3.12284,0.05031 4.60688,0.124265 0.29812,0.01515 0.59013,0.03243 0.88321,0.05031 1.74714,0.106534 3.41007,0.262243 4.96654,0.476523 0.48482,0.06668 0.95157,0.141692 1.41656,0.219024 0.37146,0.06168 0.75229,0.118051 1.11073,0.186472 0.55053,0.10517 1.06898,0.22801 1.58783,0.349259 0.29413,0.06865 0.60445,0.127446 0.88811,0.201262 0.78142,0.203582 1.5275,0.425909 2.22637,0.668922 0.004,0.0013 0.009,0.0015 0.0125,0.003 0.68957,0.240149 1.33291,0.502483 1.93767,0.781381 0.24707,0.113959 0.45998,0.243588 0.69239,0.364064 0.34926,0.180987 0.70244,0.3607 1.01777,0.556432 0.22183,0.137751 0.41436,0.287035 0.61898,0.432136 0.27499,0.194929 0.54951,0.389675 0.79268,0.597879 0.19013,0.162862 0.35581,0.335104 0.52601,0.506135 0.21574,0.216735 0.42376,0.436046 0.60676,0.66595 0.13942,0.175137 0.25921,0.358821 0.37921,0.541641 0.15985,0.243513 0.30596,0.491663 0.43059,0.74883 0.094,0.193746 0.17851,0.390432 0.252,0.591968 0.097,0.265986 0.17171,0.540262 0.23243,0.819857 0.0468,0.215826 0.0902,0.433122 0.11499,0.657085 0.0318,0.287627 0.0322,0.586816 0.0269,0.88793 -0.004,0.230904 -0.003,0.459672 -0.0293,0.698517 -0.0358,0.325694 -0.11036,0.665799 -0.18839,1.006329 -0.0537,0.234496 -0.0922,0.46287 -0.16636,0.704443 -0.12364,0.402753 -0.3006,0.823585 -0.48198,1.246068 -0.0847,0.197035 -0.14478,0.384704 -0.24221,0.586043 -0.30851,0.637885 -0.67321,1.295805 -1.11319,1.977152 -5.4426,8.42623 -13.23066,14.270432 -20.53892,18.235331 -1.04404,0.56641 -2.07624,1.09175 -3.09246,1.5835 1.21787,-0.26024 2.43746,-0.46949 3.6405,-0.62156 0.3399,-0.043 0.66183,-0.0415 0.99819,-0.0739 0.84571,-0.0817 1.68869,-0.15921 2.5004,-0.16575 0.0651,-5.3e-4 0.13577,-0.0152 0.20061,-0.0152 0.90032,0 1.76349,0.0691 2.59825,0.18055 0.6373,0.0852 1.25739,0.19594 1.84472,0.35518 0.10447,0.0283 0.20071,0.0668 0.30338,0.0978 0.51697,0.1551 1.00752,0.34662 1.47527,0.56828 0.13728,0.065 0.27594,0.12714 0.40857,0.1983 0.52611,0.28198 1.02219,0.5999 1.46795,0.98266 0.29648,0.25453 0.5727,0.53519 0.82939,0.83762 0.0686,0.0809 0.13007,0.17011 0.19572,0.25455 0.19417,0.24972 0.37388,0.51456 0.54069,0.79618 0.0675,0.11411 0.13283,0.22985 0.19573,0.34926 0.17995,0.34185 0.34458,0.7019 0.48442,1.08921 0.0184,0.0509 0.0411,0.0962 0.0588,0.14805 0.15182,0.44452 0.27037,0.92394 0.36699,1.42959 0.0275,0.14396 0.0456,0.29784 0.0685,0.44694 0.0589,0.38401 0.10284,0.78591 0.12966,1.20464 0.0113,0.18279 0.0239,0.36391 0.0293,0.55348 0.0168,0.58796 0.0145,1.1978 -0.0318,1.85284 -0.0375,0.52815 -0.1066,1.04555 -0.20551,1.55685 -0.0303,0.15665 -0.0815,0.30666 -0.11737,0.46173 -0.08,0.34599 -0.15704,0.69475 -0.26423,1.03297 -0.0661,0.20842 -0.15633,0.41015 -0.23243,0.61564 -0.10384,0.28052 -0.20094,0.56252 -0.32294,0.83762 -0.0883,0.19909 -0.19604,0.39273 -0.29359,0.58901 -0.13711,0.27582 -0.26839,0.55252 -0.42326,0.82283 -0.11224,0.19593 -0.2408,0.38707 -0.36209,0.58012 -0.16288,0.25921 -0.3228,0.51845 -0.50155,0.7725 -0.13314,0.18926 -0.28157,0.373 -0.42325,0.5594 -0.19654,0.25859 -0.38941,0.51938 -0.60186,0.77251 -0.14462,0.17231 -0.30331,0.33929 -0.45506,0.50909 -0.218,0.24397 -0.43323,0.48929 -0.66547,0.72812 -0.19602,0.20158 -0.40584,0.39696 -0.61164,0.5949 -0.19752,0.190008 -0.3932,0.378658 -0.59941,0.565328 -0.42434,0.38414 -0.9109,0.74268 -1.37008,1.11289 -0.51746,0.41721 -1.01743,0.84038 -1.57558,1.24016 -0.48563,0.34782 -1.01536,0.67447 -1.5291,1.00929 -0.57356,0.37381 -1.13174,0.75505 -1.73707,1.11289 -0.57034,0.33715 -1.17575,0.65356 -1.77131,0.97673 -0.59736,0.32417 -1.18331,0.65459 -1.80313,0.9649 -0.60103,0.30092 -1.22524,0.58209 -1.8447,0.87017 -0.69369,0.32265 -1.38102,0.64921 -2.09427,0.95602 -0.57195,0.24603 -1.15712,0.47437 -1.7395,0.71035 -0.73964,0.29977 -1.47349,0.60115 -2.22637,0.88499 -0.67755,0.25542 -1.3601,0.49719 -2.04534,0.73995 -0.69367,0.24575 -1.38343,0.49216 -2.08202,0.72516 -0.72329,0.24121 -1.44481,0.46779 -2.17011,0.69554 -0.65876,0.20689 -1.31411,0.41374 -1.97194,0.60972 -0.69827,0.20802 -1.38769,0.40492 -2.08203,0.60085 -0.63148,0.17821 -1.25063,0.34957 -1.8765,0.51795 -1.37623,0.37031 -2.65603,0.66457 -3.98792,0.98858 -1.47519,0.35899 -2.92801,0.72562 -4.31818,1.03002 -1.1663,0.25558 -2.17055,0.45317 -3.25638,0.67188 -0.9176,0.18488 -1.9438,0.41474 -2.79154,0.57419 h -0.1076 c -0.43515,0.0814 -0.97335,0.2005 -1.38721,0.27526 0.8903,-0.10472 1.86094,-0.1884 2.816,-0.27526 h -0.20062 c 0.26296,-0.0244 0.54314,-0.0367 0.80982,-0.0593 0.53028,-0.0449 1.04881,-0.0823 1.59026,-0.11836 0.87668,-0.0587 1.74983,-0.0976 2.63985,-0.12729 0.51756,-0.0173 1.02204,-0.0359 1.53889,-0.0414 0.2234,-0.003 0.44762,-0.0177 0.67035,-0.0177 1.08308,0 2.15167,0.0323 3.19767,0.0976 0.86782,0.0542 1.71241,0.1376 2.53219,0.24566 0.068,0.009 0.14277,0.0106 0.21041,0.0208 h -0.0807 c 5.99541,0.81668 10.40141,3.19395 9.13792,8.7403 -0.59425,2.61056 -5.62589,4.68066 -13.54175,6.31327 -6.81637,1.40631 -13.72592,2.06297 -20.64167,2.06297 H 203.13239 191.89041 c -0.55955,0 -1.10945,-0.0796 -1.65143,-0.19534 -0.14115,-0.0301 -0.27894,-0.0659 -0.41836,-0.10365 -0.47134,-0.12745 -0.93142,-0.29228 -1.37741,-0.50317 -0.0653,-0.0309 -0.13357,-0.0503 -0.19818,-0.0829 -0.49698,-0.25062 -0.96729,-0.56242 -1.41901,-0.91162 -0.11086,-0.0856 -0.21529,-0.178 -0.32294,-0.26935 -0.37179,-0.31539 -0.72302,-0.66123 -1.05202,-1.04185 -0.0542,-0.0627 -0.12076,-0.10729 -0.17372,-0.17166 v -0.0208 c -0.30454,-0.37156 -0.58819,-0.76964 -0.84651,-1.19576 h -0.0125 c -0.0135,-0.0224 -0.0233,-0.0485 -0.0367,-0.0711 -0.2658,-0.44666 -0.50858,-0.91897 -0.71685,-1.42071 -0.16312,-0.39358 -0.29367,-0.7887 -0.40367,-1.18688 -0.0322,-0.11653 -0.0511,-0.23263 -0.0783,-0.34925 -0.0668,-0.28645 -0.12239,-0.57233 -0.15658,-0.85834 -0.017,-0.14184 -0.0234,-0.28185 -0.0318,-0.42325 -0.015,-0.25276 -0.0167,-0.50431 -0.003,-0.75476 0.009,-0.15569 0.0208,-0.31027 0.0416,-0.46469 0.0337,-0.25136 0.0917,-0.49889 0.15902,-0.74587 0.0381,-0.13957 0.0705,-0.2794 0.11988,-0.41733 0.10598,-0.29589 0.2476,-0.5868 0.40859,-0.87314 0.0447,-0.0796 0.0731,-0.16101 0.12238,-0.23974 0.22778,-0.36472 0.50806,-0.71898 0.83673,-1.06257 0.0755,-0.0789 0.17325,-0.15319 0.25445,-0.23087 0.26815,-0.25674 0.55859,-0.50732 0.89054,-0.74883 0.15736,-0.11441 0.33656,-0.22378 0.50889,-0.33445 0.30437,-0.19557 0.62822,-0.38547 0.98108,-0.56829 0.2133,-0.11047 0.43622,-0.21714 0.66791,-0.32261 0.38631,-0.17593 0.80605,-0.34221 1.2453,-0.50317 0.24719,-0.0906 0.48656,-0.18382 0.75109,-0.26935 0.54423,-0.17601 1.14125,-0.33516 1.76153,-0.48836 0.21275,-0.0526 0.4019,-0.11305 0.62388,-0.1628 0.86951,-0.1947 1.80428,-0.36685 2.82089,-0.515 0.21614,-0.0315 0.46691,-0.0506 0.68993,-0.0799 0.81871,-0.10744 1.66943,-0.20534 2.58357,-0.28119 0.4138,-0.0344 0.86271,-0.0553 1.29669,-0.0829 0.8061,-0.0512 1.63748,-0.0947 2.51506,-0.12139 0.49202,-0.0152 1.00179,-0.0227 1.51688,-0.0296 0.43236,-0.006 0.82574,-0.0267 1.27465,-0.0267 0.3305,0 0.73447,0.0264 1.07405,0.0296 1.27286,0.0121 2.62315,0.0533 4.02705,0.11245 0.64448,0.0271 1.26227,0.0453 1.93523,0.0829 2.13672,0.11911 4.37678,0.27646 6.81124,0.50614 -12.46964,-17.399048 5.5968,-27.709678 65.81265,-27.709678 0,0 -31.40786,-21.911297 14.40293,-36.73411 2.75235,-0.89037 5.51044,-1.717334 8.2645,-2.495108 0.7695,-0.217341 1.53152,-0.404238 2.29978,-0.612683 1.95067,-0.52923 3.89677,-1.046928 5.83261,-1.518375 1.059,-0.257939 2.10133,-0.484691 3.15362,-0.725158 1.61121,-0.368201 3.21681,-0.729704 4.8075,-1.056641 1.14237,-0.234799 2.26417,-0.446715 3.39339,-0.660041 1.5261,-0.288338 3.03842,-0.56219 4.53593,-0.810991 1.08255,-0.179865 2.14712,-0.344122 3.21235,-0.503165 1.48982,-0.222463 2.95497,-0.425363 4.40626,-0.606759 1.03448,-0.129265 2.05792,-0.252832 3.07045,-0.361094 1.41243,-0.151087 2.7867,-0.272017 4.15182,-0.381809 0.99108,-0.07971 1.98194,-0.161256 2.94566,-0.219024 1.38563,-0.0832 2.71298,-0.128356 4.03684,-0.165756 0.83213,-0.02349 1.68236,-0.05971 2.48816,-0.06516 0.23665,-0.0015 0.49721,-0.02076 0.73152,-0.02076 z" /></svg>
